<svg id="Twitter" xmlns="http://www.w3.org/2000/svg" width="29.598" height="29.598" viewBox="0 0 29.598 29.598">
  <path id="back" d="M0,14.8A14.8,14.8,0,1,1,14.8,29.6,14.8,14.8,0,0,1,0,14.8Z" fill="#55acee"/>
  <path id="Shape" d="M6.956,3.149l.031.512L6.47,3.6A8.419,8.419,0,0,1,1.542,1.174L.859.495.683,1A3.016,3.016,0,0,0,1.325,4.09c.414.439.321.5-.393.24a1.221,1.221,0,0,0-.487-.115,3.745,3.745,0,0,0,.373,1.4A3.343,3.343,0,0,0,2.236,6.953l.507.24-.6.01c-.58,0-.6.01-.538.23A3.129,3.129,0,0,0,3.54,9.148l.642.219L3.623,9.7a5.828,5.828,0,0,1-2.774.773A3.065,3.065,0,0,0,0,10.559a7.875,7.875,0,0,0,2,.92,8.744,8.744,0,0,0,6.791-.773A9.088,9.088,0,0,0,12.236,6.65a10.78,10.78,0,0,0,.7-3.135c0-.481.031-.543.611-1.118a6.824,6.824,0,0,0,.725-.8c.1-.2.093-.2-.435-.021-.88.314-1,.272-.569-.2a3.04,3.04,0,0,0,.7-1.118c0-.031-.155.021-.331.115a5.775,5.775,0,0,1-.911.355L12.174.9,11.666.558a4.213,4.213,0,0,0-.88-.46A3.536,3.536,0,0,0,8.975.14,2.992,2.992,0,0,0,6.956,3.149Z" transform="translate(7.4 8.879)" fill="#fff"/>
</svg>
