<svg id="WhatsApp" xmlns="http://www.w3.org/2000/svg" width="29.86" height="29.86" viewBox="0 0 29.86 29.86">
  <circle id="Oval" cx="14.93" cy="14.93" r="14.93" transform="translate(0)" fill="#25d366"/>
  <path id="Page_1" data-name="Page 1" d="M0,17.759H0L1.248,13.2a8.8,8.8,0,1,1,7.626,4.407h0a8.815,8.815,0,0,1-4.205-1.071L0,17.759Zm4.881-2.817h0l.267.158a7.3,7.3,0,0,0,3.723,1.02h0a7.315,7.315,0,1,0-6.2-3.428l.174.277-.739,2.7,2.768-.726Zm6.28-1.91a2.768,2.768,0,0,1-.851-.129,12.564,12.564,0,0,1-1.253-.464A9.515,9.515,0,0,1,5.339,9.174L5.3,9.12l0,0a4.193,4.193,0,0,1-.9-2.272,2.424,2.424,0,0,1,.726-1.788l.043-.046a.8.8,0,0,1,.586-.275c.132,0,.286,0,.421.008h.068c.137,0,.282.029.427.377.057.136.138.334.224.545l0,0c.194.472.414,1.007.452,1.083a.408.408,0,0,1,.018.385L7.34,7.2a1.255,1.255,0,0,1-.189.3c-.037.044-.077.091-.115.138-.074.09-.15.183-.215.248-.106.106-.226.226-.1.449A6.559,6.559,0,0,0,7.948,9.863a5.713,5.713,0,0,0,1.623,1.026c.061.026.109.047.145.065a.545.545,0,0,0,.239.071.3.3,0,0,0,.237-.126c.109-.125.547-.638.7-.862a.3.3,0,0,1,.259-.167.729.729,0,0,1,.236.057c.2.073,1.285.606,1.5.715l.121.059a.7.7,0,0,1,.3.2,1.837,1.837,0,0,1-.128,1.046A2.255,2.255,0,0,1,11.7,12.99,3.607,3.607,0,0,1,11.161,13.032Z" transform="translate(6.085 5.426)" fill="#fdfdfd"/>
</svg>
