<svg xmlns="http://www.w3.org/2000/svg" viewBox="0 0 376.867 455.683">
  <g id="Group_13809" data-name="Group 13809" transform="translate(-429.363 -76.006)">
    <g id="Group_13758" data-name="Group 13758" transform="translate(455.374 396.154)">
      <path id="Path_61277" data-name="Path 61277" d="M699.041,3490.674s38.962-112.991,139.2-93.087c-18.466,93.012-139.2,93.087-139.2,93.087" transform="translate(-699.041 -3395.235)" fill="#50cbcf"/>
      <g id="Group_13757" data-name="Group 13757" transform="translate(4.318 2.177)">
        <g id="Group_13751" data-name="Group 13751">
          <path id="Path_61278" data-name="Path 61278" d="M744.288,3508.419l-.477-.618c.141-.108,14.412-11.113,37.987-27.634,21.757-15.246,56.117-38.44,96.25-62.363l.4.671c-40.112,23.911-74.455,47.094-96.2,62.332C758.685,3497.315,744.429,3508.31,744.288,3508.419Z" transform="translate(-743.811 -3417.804)" fill="#cfecef"/>
        </g>
        <g id="Group_13752" data-name="Group 13752" transform="translate(13.655 65.275)">
          <rect id="Rectangle_6660" data-name="Rectangle 6660" width="0.78" height="17.162" transform="translate(0 0.775) rotate(-83.585)" fill="#cfecef"/>
        </g>
        <g id="Group_13753" data-name="Group 13753" transform="translate(35.188 32.015)">
          <rect id="Rectangle_6661" data-name="Rectangle 6661" width="0.78" height="41.831" transform="translate(0 0.775) rotate(-83.6)" fill="#cfecef"/>
        </g>
        <g id="Group_13754" data-name="Group 13754" transform="translate(74.561 5.268)">
          <rect id="Rectangle_6662" data-name="Rectangle 6662" width="0.78" height="42.81" transform="matrix(0.113, -0.994, 0.994, 0.113, 0, 0.775)" fill="#cfecef"/>
        </g>
        <g id="Group_13755" data-name="Group 13755" transform="translate(82.509 24.381)">
          <rect id="Rectangle_6663" data-name="Rectangle 6663" width="47.021" height="0.78" transform="matrix(0.258, -0.966, 0.966, 0.258, 0, 45.435)" fill="#cfecef"/>
        </g>
        <g id="Group_13756" data-name="Group 13756" transform="translate(45.565 50.348)">
          <rect id="Rectangle_6664" data-name="Rectangle 6664" width="35.84" height="0.78" transform="translate(0 34.416) rotate(-73.795)" fill="#cfecef"/>
        </g>
      </g>
    </g>
    <g id="Group_13766" data-name="Group 13766" transform="translate(533.819 409.881)">
      <path id="Path_61279" data-name="Path 61279" d="M1513.643,3656.194s-15.744-94.354,62.367-118.639c22.532,72.479-62.367,118.639-62.367,118.639" transform="translate(-1512.343 -3537.555)" fill="#cfecef"/>
      <g id="Group_13765" data-name="Group 13765" transform="translate(4.016 0.126)">
        <g id="Group_13759" data-name="Group 13759" transform="translate(0.882)">
          <path id="Path_61280" data-name="Path 61280" d="M1563.695,3650.352l-.573-.248c.054-.122,5.436-12.483,15.264-32.285,9.07-18.274,23.889-46.807,42.983-78.962l.536.319c-19.082,32.136-33.893,60.652-42.957,78.916C1569.126,3637.882,1563.748,3650.23,1563.695,3650.352Z" transform="translate(-1563.122 -3538.857)" fill="#fff"/>
        </g>
        <g id="Group_13760" data-name="Group 13760" transform="translate(0 86.767)">
          <rect id="Rectangle_6665" data-name="Rectangle 6665" width="12.988" height="0.624" transform="translate(0 4.905) rotate(-22.187)" fill="#fff"/>
        </g>
        <g id="Group_13761" data-name="Group 13761" transform="translate(3.457 47.716)">
          <rect id="Rectangle_6666" data-name="Rectangle 6666" width="31.628" height="0.624" transform="translate(0 11.892) rotate(-22.086)" fill="#fff"/>
        </g>
        <g id="Group_13762" data-name="Group 13762" transform="translate(21.891 13.633)">
          <rect id="Rectangle_6667" data-name="Rectangle 6667" width="31.377" height="0.624" transform="translate(0 11.718) rotate(-21.93)" fill="#fff"/>
        </g>
        <g id="Group_13763" data-name="Group 13763" transform="translate(40.57 32.134)">
          <rect id="Rectangle_6668" data-name="Rectangle 6668" width="0.625" height="35.148" transform="matrix(0.973, -0.231, 0.231, 0.973, 0, 0.144)" fill="#fff"/>
        </g>
        <g id="Group_13764" data-name="Group 13764" transform="translate(23.019 65.324)">
          <rect id="Rectangle_6669" data-name="Rectangle 6669" width="0.624" height="23.805" transform="matrix(0.976, -0.217, 0.217, 0.976, 0, 0.136)" fill="#fff"/>
        </g>
      </g>
    </g>
    <path id="Path_61281" data-name="Path 61281" d="M2576.2,721.268l.406-.4-.473-.474-2.223-28.913h47.306l-1.743-1.663c-.2-.187-.2-.187-2.4-.844-1.2-.357-2.948-.873-5.2-1.536-3.8-1.115-9.09-2.66-15.719-4.59l-4.963-1.445v-.032h-.11c-9.4-2.734-17.644-5.126-17.741-5.154l-.132-.038h-.468l-1.6-20.757H2603.9l-1.647-1.647c-.188-.187-.188-.187-1.825-.7-.852-.266-2.1-.652-3.707-1.147-2.706-.833-6.471-1.986-11.188-3.428-6.432-1.964-12.92-3.941-15.294-4.663l-1.487-19.336h-19.447l-1.43,19.263-37.785,11.657h36.921l-.762,10.258-.293.295.253.254-.736,9.95h-.882l-17.654,5.192h-.328v.1l-34.048,10.013h51.776l-2.142,28.89-.493.493.424.424-2.548,34.346,1.924.142.024-.321,0,0,17.5-17.263,17.9,17.9.007-.007,1.916-.148Zm-15.681-16.488,11.588-11.587,1.93,25.1Zm13.35,16.078-14.819,14.617-14.614-14.612,14.718-14.718Zm-36.257-71.905,5.874-1.812-5.874,4.213Zm28.887-3.515-7.655,7.656-7.656-7.656Zm-15.311-1.929,7.848-7.848,7.849,7.848Zm17.3,2.666.563,7.319h-7.882ZM2560.4,634.3l6.664-6.665,1.11,14.439Zm-1.365-1.364-6.5-6.5h13Zm-1.364,1.364-7.725,7.726,1.065-14.385Zm-1.157,19.2h-7.421l.513-6.908Zm22.066,26.256c3.195.927,6.872,2,10.673,3.1v4.2Zm10.918,9.8h-15.738l-.874-11.359Zm-17.71-.478-10.966-10.966h10.122Zm-2.251.478h-21.39l10.7-10.7ZM2546.5,688.47l.769-10.363h9.593Zm24.591,3.01-11.938,11.936-11.935-11.936Zm41.124-1.929H2591.18v-6.139C2598.9,685.659,2606.89,687.988,2612.212,689.551Zm-50.694-13.372,8.615-8.615.662,8.615Zm-2.677-.051-10.153-10.153,10.153-10.153,10.153,10.153Zm11.027-12.007-8.7-8.7h8.03Zm.595-17.423,9.473,6.8h-8.95Zm3.871.4,5.929,1.808v2.445Zm20.915,6.393h-13.056v-4C2586.868,650.925,2591.647,652.386,2595.248,653.493Zm-59.567-3.946v3.946h-12.79Zm2.256,3.946,9.739-6.986-.518,6.986Zm11.012,1.929h7.563l-8.168,8.169Zm-.934,12.607,8.15,8.149h-8.754Zm-3.531,21.522H2528.3l16.736-11.443h.3Zm-15.942-6.641,10.615-3.122-10.615,7.257Zm-1.93.567v6.073h-20.651Zm19.54,9.666,11.636,11.636-13.5,13.5Zm-4.405,59.393,2.184-29.449,13.741,13.741Zm32.652-29.495,2.314,30.1-16.3-16.3Z" transform="translate(-1864.2 -495.592)" fill="#cfecef"/>
    <g id="Group_13767" data-name="Group 13767" transform="translate(685.95 166.845)">
      <path id="Path_61282" data-name="Path 61282" d="M3192.294,1035.225a.316.316,0,0,0,.054.2c-3.635,3.748-7.512,7.828-11.385,11.986-23.691,25.432-34.3,39.585-38.522,45.758-16.811,24.6-52.477,63.048-52.834,63.434l.582.541c.358-.386,36.063-38.875,52.91-63.527,4.188-6.13,14.73-20.191,38.274-45.48,4.4-4.731,8.478-9.007,12.069-12.7,3.7-1.093,15.16-8.969,16.354-15.455C3211.346,1011.551,3192.52,1029.921,3192.294,1035.225Z" transform="translate(-3089.607 -1017.802)" fill="#cfecef"/>
      <path id="Path_61283" data-name="Path 61283" d="M3721.465,1647.778c-1.186,1.993,17.873.48,22.863-5.777C3749.739,1635.212,3724.2,1643.177,3721.465,1647.778Z" transform="translate(-3660.473 -1579.419)" fill="#cfecef"/>
      <path id="Path_61284" data-name="Path 61284" d="M3581.821,1842.878c-1.186,1.994,17.873.481,22.863-5.777C3610.1,1830.311,3584.558,1838.275,3581.821,1842.878Z" transform="translate(-3534.298 -1755.7)" fill="#cfecef"/>
      <path id="Path_61285" data-name="Path 61285" d="M3432.265,2033.568c-1.186,1.994,17.873.481,22.863-5.777C3460.54,2021,3435,2028.967,3432.265,2033.568Z" transform="translate(-3399.166 -1927.998)" fill="#cfecef"/>
      <path id="Path_61286" data-name="Path 61286" d="M3272.8,2219.849c-1.186,1.995,17.873.482,22.862-5.776C3301.073,2207.284,3275.537,2215.248,3272.8,2219.849Z" transform="translate(-3255.081 -2096.313)" fill="#cfecef"/>
      <path id="Path_61287" data-name="Path 61287" d="M3851.581,1509.076c-.5.767,12.908,1.864,18.556-4.114C3876.262,1498.477,3854.509,1504.605,3851.581,1509.076Z" transform="translate(-3778.074 -1455.427)" fill="#cfecef"/>
      <path id="Path_61288" data-name="Path 61288" d="M3980.782,1382.2c-.448.557,11.368,1.289,16.376-3.056C4002.594,1374.432,3983.388,1378.959,3980.782,1382.2Z" transform="translate(-3894.814 -1342.457)" fill="#cfecef"/>
      <path id="Path_61289" data-name="Path 61289" d="M4107.892,1244.059c-.34.615,8.788,1.544,12.6-3.241C4124.635,1235.627,4109.862,1240.476,4107.892,1244.059Z" transform="translate(-4009.668 -1217.256)" fill="#cfecef"/>
      <path id="Path_61290" data-name="Path 61290" d="M3661.141,1483.3c4.194-3.44,7.6-29.052,1.664-22.678C3657.336,1466.5,3659.323,1484.795,3661.141,1483.3Z" transform="translate(-3604.296 -1416.999)" fill="#cfecef"/>
      <path id="Path_61291" data-name="Path 61291" d="M3522.861,1680.932c4.2-3.44,7.6-29.052,1.665-22.678C3519.056,1664.129,3521.043,1682.422,3522.861,1680.932Z" transform="translate(-3479.353 -1595.564)" fill="#cfecef"/>
      <path id="Path_61292" data-name="Path 61292" d="M3370.937,1873.606c4.2-3.44,7.6-29.052,1.665-22.678C3367.132,1856.8,3369.119,1875.1,3370.937,1873.606Z" transform="translate(-3342.083 -1769.654)" fill="#cfecef"/>
      <path id="Path_61293" data-name="Path 61293" d="M3212.519,2056.435c4.2-3.441,7.6-29.052,1.665-22.678C3208.714,2039.633,3210.7,2057.925,3212.519,2056.435Z" transform="translate(-3198.945 -1934.849)" fill="#cfecef"/>
      <path id="Path_61294" data-name="Path 61294" d="M3795.215,1362.917c4.025-3.6,6.253-25.29.763-18.3C3790.917,1351.063,3794.523,1363.535,3795.215,1362.917Z" transform="translate(-3725.448 -1311.851)" fill="#cfecef"/>
      <path id="Path_61295" data-name="Path 61295" d="M3928.626,1241.684c2.831-3.064,3.9-22.053.087-16.043C3925.2,1231.181,3928.14,1242.21,3928.626,1241.684Z" transform="translate(-3846.244 -1204.539)" fill="#cfecef"/>
      <path id="Path_61296" data-name="Path 61296" d="M4064.378,1135.731c3.3-2.529,5.511-17.387.974-12.512C4061.17,1127.711,4063.812,1136.165,4064.378,1135.731Z" transform="translate(-3969.145 -1112.17)" fill="#cfecef"/>
    </g>
    <g id="Group_13771" data-name="Group 13771" transform="translate(584.612 256.619)">
      <rect id="Rectangle_6670" data-name="Rectangle 6670" width="201.896" height="129.887" rx="64.943" transform="translate(0)" fill="#cfecef"/>
      <path id="Rectangle_6671" data-name="Rectangle 6671" d="M16.572,0H185.324A16.572,16.572,0,0,1,201.9,16.572v0a0,0,0,0,1,0,0H0a0,0,0,0,1,0,0v0A16.572,16.572,0,0,1,16.572,0Z" transform="translate(0)" fill="#086e95"/>
      <g id="Group_13768" data-name="Group 13768" transform="translate(165.328 4.904)">
        <circle id="Ellipse_3493" data-name="Ellipse 3493" cx="2.776" cy="2.776" r="2.776" transform="translate(0 5.404) rotate(-76.717)" fill="#cfecef"/>
        <circle id="Ellipse_3494" data-name="Ellipse 3494" cx="2.776" cy="2.776" r="2.776" transform="translate(10.125 5.404) rotate(-76.717)" fill="#cfecef"/>
        <circle id="Ellipse_3495" data-name="Ellipse 3495" cx="2.776" cy="2.776" r="2.776" transform="translate(20.249 5.404) rotate(-76.717)" fill="#cfecef"/>
      </g>
      <g id="Group_13769" data-name="Group 13769" transform="translate(15.276 31.164)">
        <path id="Path_61297" data-name="Path 61297" d="M2200.225,2349.485a2.9,2.9,0,0,1-2.759-3.776,41.681,41.681,0,0,1,6.8-12.166c6.471-8.055,15.08-12.313,24.9-12.313,11.833,0,17.168,2.915,21.877,5.487,4.321,2.36,8.052,4.4,16.821,4.4,10.272,0,17.044-14.794,23.593-29.1,3.257-7.115,6.625-14.474,10.478-20.015,4.7-6.76,9.706-10.133,15.3-10.311a23.652,23.652,0,0,1,16.141,5.578c4.094,3.3,7.255,7.489,10.311,11.544,4.369,5.8,8.142,10.8,13.011,10.8a10.5,10.5,0,0,0,5.964-2.036,22.35,22.35,0,0,0,5.006-4.979,38.765,38.765,0,0,0,4.477-7.71,2.893,2.893,0,0,1,5.363,2.174c-.3.748-7.571,18.339-20.81,18.339-3.59,0-6.925-1.432-10.2-4.377a61.34,61.34,0,0,1-7.436-8.733c-2.843-3.772-5.781-7.673-9.318-10.518a17.864,17.864,0,0,0-12.328-4.3c-3.69.117-7.1,2.606-10.733,7.831-3.558,5.117-6.672,11.918-9.969,19.121-3.5,7.649-7.12,15.558-11.455,21.584-5.274,7.333-10.965,10.9-17.4,10.9-10.247,0-15-2.595-19.594-5.106-4.5-2.457-8.748-4.779-19.1-4.779-8.055,0-14.874,3.367-20.268,10.007a36.456,36.456,0,0,0-5.915,10.445A2.891,2.891,0,0,1,2200.225,2349.485Z" transform="translate(-2197.328 -2271.673)" fill="#50cbcf"/>
      </g>
      <g id="Group_13770" data-name="Group 13770" transform="translate(15.646 45.343)">
        <path id="Path_61298" data-name="Path 61298" d="M2203.692,2499.342a2.525,2.525,0,0,1-2.436-3.193,50.056,50.056,0,0,1,6.661-13.767,35.4,35.4,0,0,1,9.62-9.611,27.17,27.17,0,0,1,15.093-4.472c8.119,0,12.239,2.284,16.225,4.491,4.71,2.61,9.58,5.309,22.471,5.309a19.032,19.032,0,0,0,10.468-3.088,32.4,32.4,0,0,0,8.5-8.3c5.22-7.031,9.289-16.374,12.879-24.617,2.592-5.951,5.041-11.573,7.643-15.727,2.068-3.305,5.387-7.7,10.307-7.7a17.374,17.374,0,0,1,12,4.723c2.985,2.667,5.391,6.194,7.716,9.6,4.889,7.168,9.506,13.939,19.313,13.939,2.814,0,7.475-1.143,13.7-6.588a51.33,51.33,0,0,0,6.568-6.953,2.524,2.524,0,0,1,4.046,3.019c-.475.637-11.754,15.569-24.316,15.569a21.677,21.677,0,0,1-14.634-5.365c-3.586-3.06-6.262-6.983-8.849-10.776-2.254-3.306-4.384-6.427-6.911-8.685a12.372,12.372,0,0,0-8.639-3.439c-1.812,0-3.785,1.742-6.03,5.327-2.4,3.837-4.778,9.29-7.292,15.063-3.7,8.491-7.89,18.116-13.453,25.61a37.291,37.291,0,0,1-9.856,9.556,24.265,24.265,0,0,1-13.171,3.873c-14.2,0-19.892-3.156-24.919-5.94-3.891-2.156-6.964-3.859-13.777-3.859a22.2,22.2,0,0,0-12.273,3.611,30.325,30.325,0,0,0-8.216,8.19,45.667,45.667,0,0,0-6.018,12.344A2.527,2.527,0,0,1,2203.692,2499.342Z" transform="translate(-2201.165 -2418.669)" fill="#fff"/>
      </g>
    </g>
    <g id="Group_13781" data-name="Group 13781" transform="translate(628.002 341.747)">
      <rect id="Rectangle_6672" data-name="Rectangle 6672" width="106.796" height="136.012" rx="53.398" transform="translate(136.012 0) rotate(90)" fill="#50cbcf"/>
      <rect id="Rectangle_6673" data-name="Rectangle 6673" width="117.728" height="85.78" rx="42.89" transform="translate(9.142 10.508)" fill="#cfecef"/>
      <path id="Rectangle_6674" data-name="Rectangle 6674" d="M12.82,0H68.362a12.82,12.82,0,0,1,12.82,12.82v0a12.82,12.82,0,0,1-12.82,12.82H12.82A12.82,12.82,0,0,1,0,12.82v0A12.82,12.82,0,0,1,12.82,0Z" transform="translate(27.415 22.862)" fill="#fff"/>
      <circle id="Ellipse_3496" data-name="Ellipse 3496" cx="4.724" cy="4.724" r="4.724" transform="translate(112.26 32.445) rotate(-80.783)" fill="#086e95"/>
      <g id="Group_13772" data-name="Group 13772" transform="translate(20.915 27.1)">
        <circle id="Ellipse_3497" data-name="Ellipse 3497" cx="1.91" cy="1.91" r="1.91" fill="#086e95"/>
        <circle id="Ellipse_3498" data-name="Ellipse 3498" cx="1.91" cy="1.91" r="1.91" transform="translate(0 13.343)" fill="#086e95"/>
      </g>
      <g id="Group_13773" data-name="Group 13773" transform="translate(112.211 37.782)">
        <rect id="Rectangle_6675" data-name="Rectangle 6675" width="10.936" height="6.339" rx="3.17" transform="translate(0 0.951)" fill="#086e95"/>
        <path id="Path_61299" data-name="Path 61299" d="M3686.615,3231.1h0a2.377,2.377,0,0,1-2.378-2.377v-3.486a2.378,2.378,0,0,1,2.378-2.379h0a2.377,2.377,0,0,1,2.377,2.379v3.486A2.376,2.376,0,0,1,3686.615,3231.1Z" transform="translate(-3681.146 -3222.858)" fill="#2c9db2"/>
      </g>
      <g id="Group_13780" data-name="Group 13780" transform="translate(32.178 27.915)">
        <g id="Group_13774" data-name="Group 13774">
          <path id="Path_61300" data-name="Path 61300" d="M2829.619,3136.622h-4.614a2.586,2.586,0,0,1-2.583-2.581v-10.9a2.585,2.585,0,0,1,2.583-2.581h4.614a2.583,2.583,0,0,1,2.583,2.581v10.9A2.584,2.584,0,0,1,2829.619,3136.622Zm-4.614-14.129a.655.655,0,0,0-.654.652v10.9a.653.653,0,0,0,.654.651h4.614a.653.653,0,0,0,.653-.651v-10.9a.654.654,0,0,0-.653-.652Z" transform="translate(-2822.423 -3120.564)" fill="#ffcb62"/>
        </g>
        <g id="Group_13775" data-name="Group 13775" transform="translate(12.376)">
          <path id="Path_61301" data-name="Path 61301" d="M2957.927,3136.622h-4.616a2.584,2.584,0,0,1-2.582-2.581v-10.9a2.584,2.584,0,0,1,2.582-2.581h4.616a2.584,2.584,0,0,1,2.582,2.581v10.9A2.584,2.584,0,0,1,2957.927,3136.622Zm-4.616-14.129a.654.654,0,0,0-.653.652v10.9a.653.653,0,0,0,.653.651h4.616a.653.653,0,0,0,.653-.651v-10.9a.655.655,0,0,0-.653-.652Z" transform="translate(-2950.729 -3120.564)" fill="#ffcb62"/>
        </g>
        <g id="Group_13776" data-name="Group 13776" transform="translate(24.751)">
          <path id="Path_61302" data-name="Path 61302" d="M3086.235,3136.622h-4.616a2.584,2.584,0,0,1-2.581-2.581v-10.9a2.584,2.584,0,0,1,2.581-2.581h4.616a2.584,2.584,0,0,1,2.582,2.581v10.9A2.584,2.584,0,0,1,3086.235,3136.622Zm-4.616-14.129a.655.655,0,0,0-.652.652v10.9a.653.653,0,0,0,.652.651h4.616a.653.653,0,0,0,.652-.651v-10.9a.655.655,0,0,0-.652-.652Z" transform="translate(-3079.039 -3120.564)" fill="#ffcb62"/>
        </g>
        <g id="Group_13777" data-name="Group 13777" transform="translate(37.127)">
          <path id="Path_61303" data-name="Path 61303" d="M3214.545,3136.622h-4.617a2.584,2.584,0,0,1-2.581-2.581v-10.9a2.583,2.583,0,0,1,2.581-2.581h4.617a2.584,2.584,0,0,1,2.582,2.581v10.9A2.584,2.584,0,0,1,3214.545,3136.622Zm-4.617-14.129a.655.655,0,0,0-.653.652v10.9a.653.653,0,0,0,.653.651h4.617a.652.652,0,0,0,.651-.651v-10.9a.654.654,0,0,0-.651-.652Z" transform="translate(-3207.347 -3120.564)" fill="#ffcb62"/>
        </g>
        <g id="Group_13778" data-name="Group 13778" transform="translate(49.503)">
          <path id="Path_61304" data-name="Path 61304" d="M3342.853,3136.622h-4.617a2.585,2.585,0,0,1-2.582-2.581v-10.9a2.585,2.585,0,0,1,2.582-2.581h4.617a2.583,2.583,0,0,1,2.581,2.581v10.9A2.583,2.583,0,0,1,3342.853,3136.622Zm-4.617-14.129a.654.654,0,0,0-.653.652v10.9a.653.653,0,0,0,.653.651h4.617a.652.652,0,0,0,.651-.651v-10.9a.654.654,0,0,0-.651-.652Z" transform="translate(-3335.655 -3120.564)" fill="#ffcb62"/>
        </g>
        <g id="Group_13779" data-name="Group 13779" transform="translate(61.878)">
          <path id="Path_61305" data-name="Path 61305" d="M3471.16,3136.622h-4.615a2.585,2.585,0,0,1-2.582-2.581v-10.9a2.584,2.584,0,0,1,2.582-2.581h4.615a2.583,2.583,0,0,1,2.582,2.581v10.9A2.584,2.584,0,0,1,3471.16,3136.622Zm-4.615-14.129a.654.654,0,0,0-.652.652v10.9a.652.652,0,0,0,.652.651h4.615a.653.653,0,0,0,.653-.651v-10.9a.655.655,0,0,0-.653-.652Z" transform="translate(-3463.963 -3120.564)" fill="#ffcb62"/>
        </g>
      </g>
      <rect id="Rectangle_6676" data-name="Rectangle 6676" width="101.266" height="21.588" rx="10.794" transform="translate(17.373 59.743)" fill="#086e95"/>
    </g>
    <path id="Path_61306" data-name="Path 61306" d="M752.3,1784.533l-.039-.164-23.716,5.731h-1l-18.187-34.112-.149.08,1.382,2.593c7.2,13.505,9.564,27.286,15.507,31.442a1.014,1.014,0,0,0-.959,1.012h0a1.013,1.013,0,0,0,.986,1.013c-.954,1.981-2.153,4.5-2.743,5.892-3.36,7.89-10.694,27.315-10.694,27.315-.079.194-.053.388.057.433s.264-.077.342-.272l1.252-3.094c6.261-15.477,12.313-23.69,13.157-30.273h1l-4.57,61.226h7.425v-61.226h3.929a1.015,1.015,0,0,0,1.015-1.014h0a1,1,0,0,0-.217-.625c4.024-1.644,8.808-4.163,14.3-5.491Z" transform="translate(-252.856 -1517.943)" fill="#90dcdf"/>
    <path id="Path_61307" data-name="Path 61307" d="M655.719,181.732v-6.1h9.636a2.487,2.487,0,0,0,2.487-2.487h0a2.487,2.487,0,0,0-2.487-2.487h-18.7V76.006h-.415v7.205c0,38.77-11.509,72.222-1.858,87.444h-1.406a2.487,2.487,0,0,0-2.487,2.487h0a2.487,2.487,0,0,0,1.464,2.266c-4.7,4.174-12.341,10.99-15.608,14.054-15.346,14.392-49.85,51.875-49.85,51.875a.933.933,0,1,0,1.319,1.319l5.789-5.788c31.319-31.319,58.868-41.941,61.983-61.239h.037a13.287,13.287,0,0,0,2.619,6.4l-10.73,143.747h18.208V189.243c8.049,6.2,19.514,12.635,29.221,22.342l2.176,1.658,1.253,1.139Z" transform="translate(-132.693)" fill="#90dcdf"/>
    <g id="Group_13788" data-name="Group 13788" transform="translate(465.015 279.594)">
      <path id="Path_61308" data-name="Path 61308" d="M943.461,2268.95l-9-3.785a62.272,62.272,0,0,0,.05-10.1l9.045-3.69a2.408,2.408,0,0,0,1.32-3.14l-12.716-31.163a2.409,2.409,0,0,0-3.139-1.321l-9.045,3.692a62.29,62.29,0,0,0-7.1-7.181l3.785-9a2.407,2.407,0,0,0-1.287-3.153l-31.027-13.044a2.409,2.409,0,0,0-3.153,1.287l-3.785,9a62.289,62.289,0,0,0-10.1-.049l-3.691-9.046a2.407,2.407,0,0,0-3.139-1.318l-31.163,12.716a2.407,2.407,0,0,0-1.32,3.139l3.691,9.046a62.212,62.212,0,0,0-7.18,7.1l-9-3.784a2.407,2.407,0,0,0-3.153,1.287L799.3,2247.469a2.407,2.407,0,0,0,1.287,3.153l9,3.785a62.267,62.267,0,0,0-.05,10.1l-9.045,3.69a2.41,2.41,0,0,0-1.319,3.14L811.9,2302.5a2.408,2.408,0,0,0,3.14,1.321l9.045-3.691a62.114,62.114,0,0,0,7.1,7.18l-3.784,9a2.409,2.409,0,0,0,1.287,3.154l31.027,13.043a2.409,2.409,0,0,0,3.153-1.287l3.784-9a62.183,62.183,0,0,0,10.1.051l3.691,9.045a2.408,2.408,0,0,0,3.139,1.319l31.163-12.715a2.409,2.409,0,0,0,1.32-3.141l-3.691-9.044a62.26,62.26,0,0,0,7.181-7.1l9,3.785a2.407,2.407,0,0,0,3.152-1.286l13.044-31.027A2.407,2.407,0,0,0,943.461,2268.95Zm-43.679,2.5a30.109,30.109,0,1,1-16.087-39.424A30.108,30.108,0,0,1,899.782,2271.454Z" transform="translate(-799 -2186.76)" fill="#cfecef"/>
      <g id="Group_13784" data-name="Group 13784" transform="translate(27.01 23.164)">
        <g id="Group_13782" data-name="Group 13782">
          <path id="Path_61309" data-name="Path 61309" d="M1079.828,2458.559a.8.8,0,0,1-.306-.061.79.79,0,0,1-.422-1.035,49.907,49.907,0,0,1,45.866-30.543h.11a49.555,49.555,0,0,1,19.3,3.908.79.79,0,1,1-.612,1.457,48.23,48.23,0,0,0-63.2,25.792A.79.79,0,0,1,1079.828,2458.559Z" transform="translate(-1079.038 -2426.919)" fill="#fff"/>
        </g>
        <g id="Group_13783" data-name="Group 13783" transform="translate(26.213 68.084)">
          <path id="Path_61310" data-name="Path 61310" d="M1370.591,3164.444a49.533,49.533,0,0,1-19.3-3.908.79.79,0,1,1,.612-1.456,47.965,47.965,0,0,0,18.684,3.785h.106a48.234,48.234,0,0,0,44.414-29.576.79.79,0,1,1,1.456.613,49.906,49.906,0,0,1-45.866,30.542Z" transform="translate(-1350.811 -3132.805)" fill="#fff"/>
        </g>
      </g>
      <g id="Group_13787" data-name="Group 13787" transform="translate(24.399 45.998)">
        <g id="Group_13785" data-name="Group 13785" transform="translate(0 37.137)">
          <path id="Path_61311" data-name="Path 61311" d="M1059.067,3065.5a.79.79,0,0,1-.669-.369,49.994,49.994,0,0,1-6.417-15.483.79.79,0,0,1,1.541-.353,48.413,48.413,0,0,0,6.214,14.994.789.789,0,0,1-.668,1.21Z" transform="translate(-1051.961 -3048.684)" fill="#fff"/>
        </g>
        <g id="Group_13786" data-name="Group 13786" transform="translate(89.296)">
          <path id="Path_61312" data-name="Path 61312" d="M1983.911,2676.816a.79.79,0,0,1-.754-.553,48.519,48.519,0,0,0-5.275-11.393.79.79,0,1,1,1.336-.843,50.123,50.123,0,0,1,5.446,11.763.788.788,0,0,1-.518.989A.763.763,0,0,1,1983.911,2676.816Z" transform="translate(-1977.761 -2663.658)" fill="#fff"/>
        </g>
      </g>
    </g>
    <g id="Group_13795" data-name="Group 13795" transform="translate(620.552 457.508)">
      <path id="Path_61313" data-name="Path 61313" d="M2484.753,4064.979l-4.84-.858a31.418,31.418,0,0,0-1.1-4.963l4.03-2.818a1.211,1.211,0,0,0,.3-1.687l-9.708-13.885a1.211,1.211,0,0,0-1.688-.3l-4.031,2.817a31.307,31.307,0,0,0-4.285-2.734l.857-4.841a1.211,1.211,0,0,0-.982-1.405l-16.683-2.954a1.211,1.211,0,0,0-1.4.984l-.857,4.839a31.5,31.5,0,0,0-4.964,1.1l-2.819-4.031a1.212,1.212,0,0,0-1.688-.3l-13.885,9.709a1.213,1.213,0,0,0-.3,1.688l2.817,4.029a31.58,31.58,0,0,0-2.736,4.287l-4.84-.857a1.214,1.214,0,0,0-1.4.982l-2.953,16.684a1.209,1.209,0,0,0,.981,1.4l4.84.857a31.263,31.263,0,0,0,1.1,4.963l-4.03,2.819a1.211,1.211,0,0,0-.3,1.688l9.708,13.885a1.212,1.212,0,0,0,1.688.3l4.03-2.817a31.626,31.626,0,0,0,4.286,2.736l-.857,4.839a1.212,1.212,0,0,0,.981,1.405l16.683,2.953a1.211,1.211,0,0,0,1.405-.982l.857-4.84a31.279,31.279,0,0,0,4.963-1.1l2.817,4.03a1.214,1.214,0,0,0,1.688.3l13.885-9.71a1.211,1.211,0,0,0,.3-1.687l-2.817-4.029a31.394,31.394,0,0,0,2.735-4.286l4.841.856a1.21,1.21,0,0,0,1.4-.982l2.954-16.682A1.212,1.212,0,0,0,2484.753,4064.979Zm-21.166,6.087A15.156,15.156,0,1,1,2451.3,4053.5,15.158,15.158,0,0,1,2463.587,4071.065Z" transform="translate(-2411.573 -4031.333)" fill="#cfecef"/>
      <g id="Group_13791" data-name="Group 13791" transform="translate(12.375 11.991)">
        <g id="Group_13789" data-name="Group 13789">
          <path id="Path_61314" data-name="Path 61314" d="M2540.275,4176.843a.248.248,0,0,1-.07-.009.4.4,0,0,1-.323-.458,25.09,25.09,0,0,1,29.083-20.335.4.4,0,0,1,.323.46.4.4,0,0,1-.46.324,24.3,24.3,0,0,0-28.162,19.688A.4.4,0,0,1,2540.275,4176.843Z" transform="translate(-2539.877 -4155.649)" fill="#fff"/>
        </g>
        <g id="Group_13790" data-name="Group 13790" transform="translate(20.013 29.006)">
          <path id="Path_61315" data-name="Path 61315" d="M2752.126,4477.575a25.336,25.336,0,0,1-4.428-.389.4.4,0,0,1,.14-.784,24.293,24.293,0,0,0,28.16-19.69.4.4,0,1,1,.783.139,25.1,25.1,0,0,1-24.655,20.724Z" transform="translate(-2747.37 -4456.383)" fill="#fff"/>
        </g>
      </g>
      <g id="Group_13794" data-name="Group 13794" transform="translate(14.419 19.201)">
        <g id="Group_13792" data-name="Group 13792" transform="translate(0 28.163)">
          <path id="Path_61316" data-name="Path 61316" d="M2566.266,4529.962a.4.4,0,0,1-.283-.115,25.189,25.189,0,0,1-4.872-6.889.4.4,0,0,1,.717-.344,24.4,24.4,0,0,0,4.719,6.671.4.4,0,0,1-.28.677Z" transform="translate(-2561.071 -4522.388)" fill="#fff"/>
        </g>
        <g id="Group_13793" data-name="Group 13793" transform="translate(39.709)">
          <path id="Path_61317" data-name="Path 61317" d="M2977.084,4236.284a.4.4,0,0,1-.344-.2,24.5,24.5,0,0,0-3.857-5.006.4.4,0,1,1,.563-.563,25.313,25.313,0,0,1,3.981,5.171.4.4,0,0,1-.143.543A.4.4,0,0,1,2977.084,4236.284Z" transform="translate(-2972.766 -4230.401)" fill="#fff"/>
        </g>
      </g>
    </g>
    <g id="Group_13802" data-name="Group 13802" transform="translate(697.273 458.61)">
      <path id="Path_61318" data-name="Path 61318" d="M3247.664,4065.9l-2.533-1.063a17.653,17.653,0,0,0,.014-2.844l2.545-1.04a.678.678,0,0,0,.372-.883l-3.579-8.771a.678.678,0,0,0-.884-.372l-2.546,1.039a17.47,17.47,0,0,0-2-2.019l1.065-2.535a.678.678,0,0,0-.362-.888l-8.734-3.673a.68.68,0,0,0-.888.365l-1.065,2.533a17.5,17.5,0,0,0-2.843-.015l-1.039-2.544a.677.677,0,0,0-.884-.373l-8.772,3.58a.677.677,0,0,0-.371.882l1.04,2.547a17.513,17.513,0,0,0-2.021,2l-2.534-1.066a.681.681,0,0,0-.889.362l-3.671,8.734a.68.68,0,0,0,.361.889l2.535,1.063a17.619,17.619,0,0,0-.015,2.844l-2.546,1.04a.676.676,0,0,0-.371.883l3.58,8.772a.68.68,0,0,0,.883.372l2.545-1.04a17.447,17.447,0,0,0,2,2.021l-1.064,2.534a.677.677,0,0,0,.364.887l8.734,3.672a.675.675,0,0,0,.885-.362l1.065-2.534a17.51,17.51,0,0,0,2.844.014l1.038,2.547a.68.68,0,0,0,.883.372l8.772-3.582a.676.676,0,0,0,.372-.883l-1.039-2.544a17.644,17.644,0,0,0,2.02-2l2.535,1.065a.675.675,0,0,0,.886-.362l3.672-8.734A.676.676,0,0,0,3247.664,4065.9Zm-12.3.706a8.475,8.475,0,1,1-4.528-11.1A8.475,8.475,0,0,1,3235.368,4066.6Z" transform="translate(-3206.999 -4042.76)" fill="#cfecef"/>
      <g id="Group_13798" data-name="Group 13798" transform="translate(7.603 6.516)">
        <g id="Group_13796" data-name="Group 13796">
          <path id="Path_61319" data-name="Path 61319" d="M3286.05,4119.23a.223.223,0,0,1-.085-.019.219.219,0,0,1-.119-.29,14.027,14.027,0,0,1,18.373-7.5.221.221,0,0,1-.172.408,13.589,13.589,0,0,0-17.791,7.259A.224.224,0,0,1,3286.05,4119.23Z" transform="translate(-3285.828 -4110.32)" fill="#fff"/>
        </g>
        <g id="Group_13797" data-name="Group 13797" transform="translate(7.379 19.169)">
          <path id="Path_61320" data-name="Path 61320" d="M3367.883,4317.962a13.965,13.965,0,0,1-5.419-1.1.223.223,0,0,1,.174-.41,13.6,13.6,0,0,0,17.79-7.26.223.223,0,0,1,.411.172A14.051,14.051,0,0,1,3367.883,4317.962Z" transform="translate(-3362.328 -4309.06)" fill="#fff"/>
        </g>
      </g>
      <g id="Group_13801" data-name="Group 13801" transform="translate(6.868 12.948)">
        <g id="Group_13799" data-name="Group 13799" transform="translate(0 10.453)">
          <path id="Path_61321" data-name="Path 61321" d="M3280.207,4290.111a.22.22,0,0,1-.189-.1,14.029,14.029,0,0,1-1.806-4.358.222.222,0,1,1,.434-.1,13.653,13.653,0,0,0,1.748,4.221.224.224,0,0,1-.069.309A.221.221,0,0,1,3280.207,4290.111Z" transform="translate(-3278.206 -4285.378)" fill="#fff"/>
        </g>
        <g id="Group_13800" data-name="Group 13800" transform="translate(25.136)">
          <path id="Path_61322" data-name="Path 61322" d="M3540.537,4180.706a.225.225,0,0,1-.212-.157,13.633,13.633,0,0,0-1.484-3.205.223.223,0,0,1,.376-.241,14.209,14.209,0,0,1,1.532,3.312.226.226,0,0,1-.145.281A.373.373,0,0,1,3540.537,4180.706Z" transform="translate(-3538.806 -4177)" fill="#fff"/>
        </g>
      </g>
    </g>
    <g id="Group_13803" data-name="Group 13803" transform="translate(534.364 186.326)">
      <circle id="Ellipse_3499" data-name="Ellipse 3499" cx="12.256" cy="12.256" r="12.256" transform="translate(6.254 17.333) rotate(-45)" fill="#fff" opacity="0.4"/>
      <circle id="Ellipse_3500" data-name="Ellipse 3500" cx="7.743" cy="7.743" r="7.743" transform="translate(0 29.603)" fill="#fff" opacity="0.4"/>
    </g>
    <g id="Group_13804" data-name="Group 13804" transform="translate(538.792 192.193)">
      <circle id="Ellipse_3501" data-name="Ellipse 3501" cx="12.256" cy="12.256" r="12.256" transform="translate(6.254 17.333) rotate(-45)" fill="#fff" opacity="0.4"/>
      <circle id="Ellipse_3502" data-name="Ellipse 3502" cx="7.743" cy="7.743" r="7.743" transform="translate(0 29.603)" fill="#fff" opacity="0.4"/>
    </g>
    <g id="Group_13806" data-name="Group 13806" transform="translate(518.615 174.291)">
      <path id="Path_61323" data-name="Path 61323" d="M1507.994,1232.069a85.355,85.355,0,1,0-135.863,0A88.124,88.124,0,0,1,1385.1,1255.8l.126.353a86.688,86.688,0,0,1,5.067,29.2h0a22.211,22.211,0,0,0,22.211,22.211h55.113a22.211,22.211,0,0,0,22.211-22.211h0a86.715,86.715,0,0,1,5.067-29.2l.126-.353A88.138,88.138,0,0,1,1507.994,1232.069Z" transform="translate(-1354.713 -1095.005)" fill="#ffcb62"/>
      <path id="Path_61324" data-name="Path 61324" d="M1848.176,1372.972a85.415,85.415,0,0,1-2.952,99.253,88.11,88.11,0,0,0-12.971,23.734l-.127.352a86.722,86.722,0,0,0-5.067,29.206h0a22.21,22.21,0,0,1-22.211,22.21h-55.112a22.1,22.1,0,0,1-12.055-3.554,22.219,22.219,0,0,0,20.855,14.554h55.113a22.211,22.211,0,0,0,22.211-22.211h0a86.7,86.7,0,0,1,5.067-29.2l.126-.353a88.113,88.113,0,0,1,12.971-23.733A85.369,85.369,0,0,0,1848.176,1372.972Z" transform="translate(-1700.742 -1346.161)" fill="#086e95" opacity="0.1"/>
      <circle id="Ellipse_3503" data-name="Ellipse 3503" cx="11.648" cy="11.648" r="11.648" transform="translate(44.065 30.169)" fill="#fff" opacity="0.4"/>
      <circle id="Ellipse_3504" data-name="Ellipse 3504" cx="7.359" cy="7.359" r="7.359" transform="translate(33.296 53.478)" fill="#fff" opacity="0.4"/>
      <circle id="Ellipse_3505" data-name="Ellipse 3505" cx="47.307" cy="47.307" r="47.307" transform="translate(17.269 18.791)" fill="#fff" opacity="0.2"/>
      <g id="Group_13805" data-name="Group 13805" transform="translate(45.633 207.341)">
        <path id="Path_61325" data-name="Path 61325" d="M1829,3244.675a1.167,1.167,0,0,0-1.167,1.167v8.728a7.846,7.846,0,0,0,3.059,6.221v40.518a8.673,8.673,0,0,0,2.751,6.318,49.34,49.34,0,0,0,8.787,6.58,7.459,7.459,0,0,1,3.707,5.021,2.8,2.8,0,0,0,1.764,2.059l11.529,4.4v1.94a3.544,3.544,0,0,0,3.544,3.542h9.151a3.543,3.543,0,0,0,3.543-3.542v-1.909l11.505-4.346a2.8,2.8,0,0,0,1.774-2.063,7.588,7.588,0,0,1,3.721-5.1,49.311,49.311,0,0,0,8.787-6.58,8.666,8.666,0,0,0,2.752-6.318v-40.518a7.846,7.846,0,0,0,3.059-6.221v-8.728a1.167,1.167,0,0,0-1.168-1.167Z" transform="translate(-1827.829 -3244.675)" fill="#086e95"/>
        <rect id="Rectangle_6677" data-name="Rectangle 6677" width="78.494" height="7.786" rx="3.893" transform="translate(0.564 17.939)" fill="#2c9db2"/>
        <rect id="Rectangle_6678" data-name="Rectangle 6678" width="78.494" height="7.786" rx="3.893" transform="translate(0.564 33.553)" fill="#2c9db2"/>
        <rect id="Rectangle_6679" data-name="Rectangle 6679" width="78.494" height="7.786" rx="3.893" transform="translate(0.564 49.166)" fill="#2c9db2"/>
        <path id="Path_61326" data-name="Path 61326" d="M1871.462,3430.66h-34.2a3.583,3.583,0,0,0-3.584,3.585v.617a3.583,3.583,0,0,0,2.1,3.26,3.577,3.577,0,0,1-.323-1.483v-.619a3.583,3.583,0,0,1,3.584-3.584Z" transform="translate(-1833.11 -3412.721)" fill="#fff" opacity="0.2"/>
        <path id="Path_61327" data-name="Path 61327" d="M1871.462,3592.541h-34.2a3.584,3.584,0,0,0-3.584,3.583v.62a3.581,3.581,0,0,0,2.1,3.259,3.578,3.578,0,0,1-.323-1.484v-.617a3.582,3.582,0,0,1,3.584-3.583Z" transform="translate(-1833.11 -3558.988)" fill="#fff" opacity="0.2"/>
        <path id="Path_61328" data-name="Path 61328" d="M1871.462,3754.421h-34.2a3.583,3.583,0,0,0-3.584,3.583v.619a3.58,3.58,0,0,0,2.1,3.26,3.575,3.575,0,0,1-.323-1.483v-.618a3.582,3.582,0,0,1,3.584-3.583Z" transform="translate(-1833.11 -3705.255)" fill="#fff" opacity="0.2"/>
        <path id="Path_61329" data-name="Path 61329" d="M1906.094,3244.675H1829a1.167,1.167,0,0,0-1.167,1.167v6.775a4.22,4.22,0,0,0,4.24,4.153h68.852c.534.623.858,3.431.858,4.319v.618a3.579,3.579,0,0,1-1.812,3.112,1.668,1.668,0,0,0-.871,1.443v5.885a1.672,1.672,0,0,0,.871,1.444,3.576,3.576,0,0,1,1.812,3.112v.617a3.578,3.578,0,0,1-1.812,3.112,1.669,1.669,0,0,0-.871,1.445v5.884a1.672,1.672,0,0,0,.871,1.443,3.574,3.574,0,0,1,1.812,3.111v.619a3.578,3.578,0,0,1-1.9,3.161,1.647,1.647,0,0,0-.861,1.241,8.694,8.694,0,0,1-2.673,5.183,49.524,49.524,0,0,1-8.788,6.579,7.587,7.587,0,0,0-3.716,5.07,2.833,2.833,0,0,1-1.78,2.093l-11.5,4.346v1.908a3.543,3.543,0,0,1-3.544,3.543h-7.586v1.565a3.544,3.544,0,0,0,3.544,3.542h9.151a3.543,3.543,0,0,0,3.543-3.542v-1.909l11.505-4.346a2.83,2.83,0,0,0,1.78-2.092,7.591,7.591,0,0,1,3.716-5.072,49.311,49.311,0,0,0,8.787-6.58,8.672,8.672,0,0,0,2.747-6.117,3.584,3.584,0,0,0,2.688-3.467v-.618a3.58,3.58,0,0,0-2.684-3.465v-8.066a3.58,3.58,0,0,0,2.684-3.465v-.619a3.583,3.583,0,0,0-2.684-3.466v-8.063a3.582,3.582,0,0,0,2.684-3.466v-.618a3.58,3.58,0,0,0-2.684-3.465v-1.941a7.847,7.847,0,0,0,3.057-6.131c0-.014,0-.029,0-.044s0-.03,0-.046h0v-8.728h0A1.167,1.167,0,0,0,1906.094,3244.675Z" transform="translate(-1827.829 -3244.675)" fill="#085770" opacity="0.4"/>
      </g>
    </g>
    <g id="Group_13807" data-name="Group 13807" transform="translate(580.079 238.659)">
      <path id="Path_61330" data-name="Path 61330" d="M2019.709,1817.557l22.458-55.2-50.211,55.2Z" transform="translate(-1991.956 -1762.356)" fill="#086e95"/>
      <path id="Path_61331" data-name="Path 61331" d="M2014.414,2207.054l-22.458,55.2,50.211-55.2Z" transform="translate(-1991.956 -2164.163)" fill="#086e95"/>
    </g>
    <path id="Path_61332" data-name="Path 61332" d="M1701.224,608.87a8.2,8.2,0,0,0-9.446-8.1,13.043,13.043,0,0,0-12.626-9.777c-.183,0-.364,0-.545.012a16.558,16.558,0,0,0-29.171,4c-.157-.006-.315-.011-.475-.011a11.034,11.034,0,0,0-.487,22.056v.011h44.705v0A8.2,8.2,0,0,0,1701.224,608.87Z" transform="translate(-1091.994 -458.958)" fill="#e7f5f7"/>
    <path id="Path_61333" data-name="Path 61333" d="M473.308,918.17a10.558,10.558,0,0,0-10.558-10.558c-.148,0-.295,0-.441.01a13.41,13.41,0,0,0-23.624,3.243c-.128-.005-.256-.009-.385-.009a8.936,8.936,0,0,0-.395,17.863v.009h25.267v-.009A10.558,10.558,0,0,0,473.308,918.17Z" transform="translate(0 -746.247)" fill="#e7f5f7"/>
  </g>
</svg>
