<svg xmlns="http://www.w3.org/2000/svg" viewBox="0 0 23.316 28.634">
  <path id="Icon_metro-apple" data-name="Icon metro-apple" d="M24.909,17.143A6.478,6.478,0,0,1,28,11.691a6.687,6.687,0,0,0-5.236-2.837c-2.23-.226-4.351,1.313-5.483,1.313S14.407,8.887,12.557,8.92a7.006,7.006,0,0,0-5.923,3.59c-2.525,4.382-.647,10.873,1.815,14.427,1.2,1.739,2.637,3.693,4.52,3.623,1.813-.072,2.5-1.173,4.691-1.173s2.808,1.173,4.727,1.137c1.951-.036,3.187-1.773,4.382-3.518a15.784,15.784,0,0,0,1.983-4.072,6.324,6.324,0,0,1-3.842-5.792ZM21.3,6.5a6.311,6.311,0,0,0,1.49-4.573A6.419,6.419,0,0,0,18.576,4.1a6,6,0,0,0-1.52,4.43A5.311,5.311,0,0,0,21.3,6.5Z" transform="translate(-5.436 -1.928)" fill="#1e1e1e"/>
</svg>
