<svg xmlns="http://www.w3.org/2000/svg" width="48" height="48" viewBox="0 0 48 48">
  <g id="Group_15905" data-name="Group 15905" transform="translate(-7118 -7416)">
    <circle id="Ellipse_4020" data-name="Ellipse 4020" cx="24" cy="24" r="24" transform="translate(7118 7416)" fill="#f3f7f8"/>
    <g id="Group_15923" data-name="Group 15923" transform="translate(7130 7428)">
      <path id="Path_68806" data-name="Path 68806" d="M16,22.75H8c-4.62,0-5.48-2.15-5.7-4.24L1.55,10.5a4.742,4.742,0,0,1,.9-3.76c.9-1,2.39-1.48,4.55-1.48H17c2.17,0,3.66.49,4.55,1.48a4.756,4.756,0,0,1,.9,3.77L21.7,18.5C21.48,20.6,20.62,22.75,16,22.75Zm-9-16c-1.69,0-2.85.33-3.44.99a3.236,3.236,0,0,0-.52,2.61l.75,8.01c.17,1.58.6,2.89,4.21,2.89h8c3.6,0,4.04-1.31,4.21-2.9l.75-7.99a3.25,3.25,0,0,0-.52-2.62c-.59-.66-1.75-.99-3.44-.99Z" fill="#347f95"/>
      <path id="Path_68807" data-name="Path 68807" d="M16,6.75A.755.755,0,0,1,15.25,6V5.2c0-1.78,0-2.45-2.45-2.45H11.2c-2.45,0-2.45.67-2.45,2.45V6a.75.75,0,0,1-1.5,0V5.2c0-1.76,0-3.95,3.95-3.95h1.6c3.95,0,3.95,2.19,3.95,3.95V6A.755.755,0,0,1,16,6.75Z" fill="#347f95"/>
      <path id="Path_68808" data-name="Path 68808" d="M12,16.75c-2.75,0-2.75-1.7-2.75-2.72V13c0-1.41.34-1.75,1.75-1.75h2c1.41,0,1.75.34,1.75,1.75v1C14.75,15.04,14.75,16.75,12,16.75Zm-1.25-4v1.28c0,1.03,0,1.22,1.25,1.22s1.25-.16,1.25-1.23V12.75h-2.5Z" fill="#347f95"/>
      <path id="Path_68809" data-name="Path 68809" d="M14,14.77a.746.746,0,0,1-.74-.66.753.753,0,0,1,.65-.84,15.775,15.775,0,0,0,7.3-2.88.745.745,0,0,1,1.05.17.754.754,0,0,1-.17,1.05,17.364,17.364,0,0,1-8,3.16Z" fill="#347f95"/>
      <path id="Path_68810" data-name="Path 68810" d="M10,14.78H9.91a17.152,17.152,0,0,1-7.72-2.89.749.749,0,1,1,.84-1.24,15.753,15.753,0,0,0,7.04,2.64.751.751,0,0,1,.66.83A.722.722,0,0,1,10,14.78Z" fill="#347f95"/>
    </g>
  </g>
</svg>
