<svg xmlns="http://www.w3.org/2000/svg" width="347.895" height="203.705" viewBox="0 0 347.895 203.705">
  <g id="Group_16234" data-name="Group 16234" transform="translate(-25.43 -52.419)">
    <g id="Group_16229" data-name="Group 16229" transform="translate(25.43 52.419)">
      <path id="Path_68960" data-name="Path 68960" d="M375.676,139.077a32.863,32.863,0,0,0-52.442-26.394c-.174-.1-.343-.211-.519-.308a25.732,25.732,0,0,0-9.25-2.991c-.314-.039-.632-.061-.948-.089.047-.666.079-1.331.079-1.992a26.758,26.758,0,0,0-47.473-16.938,23.3,23.3,0,0,0-43.334,11.926,25.052,25.052,0,0,0,.176,2.909c.033.282.079.565.121.848-.444-.026-.889-.043-1.34-.043a22.54,22.54,0,0,0-11.78,3.3c0-.041,0-.084,0-.125a15.785,15.785,0,0,0-7.435-13.4,30.566,30.566,0,0,0,.681-6.276,27.086,27.086,0,0,0-53.953-3.439,28.46,28.46,0,0,0-24.846,28.224c0,.715.032,1.435.085,2.156a27.365,27.365,0,0,0-22.587,2.145,32.856,32.856,0,0,0-65.484,3.862,38.748,38.748,0,0,0,1.909,11.714C40.16,143,45.92,151.2,53.3,156.154a29.125,29.125,0,0,0,8.132,3.828,23.462,23.462,0,0,0-.451,4.574,27.48,27.48,0,0,0,1.355,8.314,31.8,31.8,0,0,0,3.648,7.659c-1,10.154-1.559,21.53,1.784,30.173,5.348,13.828,3.922,22.339,2.411,31.351a91.639,91.639,0,0,0-1.511,13.111H94.877c-1.287-8.724.082-23.091,1.68-37.025a30.975,30.975,0,0,0,4.784,3.995,23.323,23.323,0,0,0,11.882,4.106l-.119.156-.836,1.083a.726.726,0,0,0,.575,1.17h1.1a83.792,83.792,0,0,1-1.6,10.768c-1.12,5.962-2.379,12.684-1.964,17.4h27.111c.562-5.12-.049-13.272-.736-22.387-.494-6.553-1.033-13.722-1.2-20.687a37.87,37.87,0,0,0,6.411-15.245,16.208,16.208,0,0,0,5.74,2.129c.151.649.323,1.3.528,1.938a26.09,26.09,0,0,0,1.293,3.257c.047,1.209.106,2.587.172,4.119.533,12.347,1.413,32.726-.931,42.732h31.674c.122-3.315-.678-8.687-1.629-15.068-.82-5.505-1.728-11.617-2.132-17.244A28.878,28.878,0,0,0,179.8,222.8a22.391,22.391,0,0,0,11.406,3.942l-.115.149-.8,1.039a.7.7,0,0,0,.552,1.123h.4c-.122,1.554-.276,3.221-.441,4.988a161.215,161.215,0,0,0-.951,21.95h30.408c1.7-16-.3-35.721-1.773-49.506a15.607,15.607,0,0,0,6.915,2.057l-.083.107-.575.746a.5.5,0,0,0,.4.805h1.942a.5.5,0,0,0,.383-.821l-.2-.241-.495-.592a15.422,15.422,0,0,0,6.249-1.7c.151,9.023-.489,18.159-1.121,27.11-.613,8.681-1.187,16.92-.994,24.518h32.37c.916-10.792-2.1-27.608-4.791-42.542q-.375-2.086-.743-4.142a24.161,24.161,0,0,0,4.359,3.787,17.912,17.912,0,0,0,9.128,3.155l-.093.119-.642.832a.558.558,0,0,0,.441.9h.372c-1.107,7.389.05,14.55,1.081,20.883.711,4.375,1.326,8.245.987,11.211h31.745c-.525-3.663.512-10.94,1.521-17.992.916-6.412,1.784-12.489,1.468-15.7h.949a.7.7,0,0,0,.537-1.148l-.282-.338-.692-.828a20.4,20.4,0,0,0,3.372-.441c.249,2.062.52,4.2.8,6.4,1.484,11.705,3.14,24.826,2.269,33.367h30.538c-3.266-12.582-2.8-29.289-2.341-45.478.068-2.408.136-4.835.193-7.262a20.549,20.549,0,0,0,8.118-15.864,15.717,15.717,0,0,0-3.822-10.286C363.553,173.861,375.676,155.552,375.676,139.077ZM86.028,191.8c-.018.376-.025.754-.028,1.133a.542.542,0,0,0-.037-.06l-.242-.289-.594-.711C85.43,191.856,85.729,191.826,86.028,191.8Zm8.1,63.366H69.5A90.935,90.935,0,0,1,71,242.189c1.53-9.127,2.974-17.747-2.456-31.787-3.17-8.2-2.753-19-1.829-28.806a27.414,27.414,0,0,0,6.952,6.876,19.278,19.278,0,0,0,9.819,3.394l-.1.128-.691.895a.6.6,0,0,0,.475.967H85.5a.584.584,0,0,0,.5-.276,33.415,33.415,0,0,0,1.631,9.673,38.049,38.049,0,0,0,8.256,14.2C94.264,231.549,92.837,246.193,94.127,255.162Zm41.884-20.674c.691,9.159,1.3,17.333.735,22.331H111.209c-.427-4.6.83-11.309,1.946-17.251a83.745,83.745,0,0,0,1.613-10.921h.9a.727.727,0,0,0,.558-1.192l-.293-.35-.719-.86c7.74-.37,14.685-5.019,19.624-11.522C135.027,221.4,135.539,228.226,136.011,234.488Zm-4.216-63.353a28.228,28.228,0,0,0-2.869-2.015,34.264,34.264,0,0,0,8.1-9.475c.067.227.119.457.192.682.252.789.542,1.569.863,2.339A19.473,19.473,0,0,0,131.794,171.135ZM244.437,177.8c-.19.06-.37.137-.557.2-.1-.233-.216-.461-.328-.69C243.844,177.485,244.141,177.641,244.437,177.8Zm-64.786-57.057q.693-.159,1.373-.363c.23.337.471.663.72.984a22.777,22.777,0,0,0-3.022,2.946A36.077,36.077,0,0,0,179.651,120.744Zm-5.877,13.738a22.653,22.653,0,0,0-.405,3.18q-.544-.571-1.127-1.1C172.774,135.886,173.287,135.195,173.774,134.481Zm4.3,103.237c.921,6.184,1.742,11.709,1.619,14.958H149.612c2.317-10.2,1.442-30.457.911-42.768q-.054-1.245-.1-2.354a23.765,23.765,0,0,0,7.245,8.011,16.058,16.058,0,0,0,8.18,2.827l-.083.107-.575.746a.5.5,0,0,0,.4.805h1.942a.5.5,0,0,0,.383-.821l-.2-.241-.495-.592a15.361,15.361,0,0,0,6.039-1.6,32.994,32.994,0,0,0,2.633,2.835C176.256,225.507,177.214,231.944,178.075,237.718Zm41.432,18.272H190.59a160.5,160.5,0,0,1,.948-21.881c.166-1.79.322-3.48.445-5.057h1.566a.7.7,0,0,0,.535-1.144l-.281-.336-.69-.825c10.985-.526,20.3-10.035,24.19-20.979.125.083.255.159.382.239C219.155,219.8,221.235,239.838,219.507,255.991Zm6.572-89.626a19.4,19.4,0,0,0-15.979,8.382,27.053,27.053,0,0,0-38.153,2.245,19.267,19.267,0,0,0-2.636-.571,19.336,19.336,0,0,0-.389-2.587A28.617,28.617,0,0,0,179.118,155.8a26.437,26.437,0,0,0,6.507,6.346,18.687,18.687,0,0,0,9.519,3.29l-.1.125-.67.867a.582.582,0,0,0,.461.938h2.26a.582.582,0,0,0,.446-.955l-.234-.281-.576-.688a17.133,17.133,0,0,0,3.787-.608,20.2,20.2,0,0,0,8.6,2.463l-.107.138-.747.968a.65.65,0,0,0,.514,1.046H211.3a.649.649,0,0,0,.5-1.065l-.261-.314-.643-.769c6.837-.327,12.981-4.4,17.387-10.1.021.069.04.138.062.207a38.813,38.813,0,0,0,5.205,10.454A19.329,19.329,0,0,0,226.079,166.364Zm31.666,49.7c2.685,14.923,5.7,31.728,4.775,42.411H231.64c-.194-7.568.38-15.795.992-24.466.642-9.094,1.294-18.378,1.118-27.555a19.978,19.978,0,0,0,3.335-2.394,18.71,18.71,0,0,0,4.925,4.987,13.048,13.048,0,0,0,6.649,2.3l-.067.087-.468.606a.407.407,0,0,0,.322.655h1.579a.406.406,0,0,0,.312-.667l-.164-.2-.4-.481a12.839,12.839,0,0,0,6.037-1.916c.314.429.639.846.974,1.254Q257.25,213.324,257.746,216.064Zm24.415-77.746a19.961,19.961,0,0,0,2.443.307c.014.11.033.22.048.331l-.661.856a.689.689,0,0,0,.545,1.109h.451a33.176,33.176,0,0,0,.886,3.378c.325,1.017.7,2.021,1.125,3.01a34.9,34.9,0,0,0,5.806,9.293,17.283,17.283,0,0,0-11.763,16.375c0,.228.021.459.03.688a21.529,21.529,0,0,0-7.449-1.932c6.109-6.558,9.987-15.8,9.987-24.47A28.4,28.4,0,0,0,282.161,138.318ZM305.9,234.58c-1.006,7.036-2.04,14.292-1.534,18.1H274.113c.33-3.06-.287-6.947-1-11.331-1.026-6.31-2.182-13.449-1.064-20.763H273.1a.558.558,0,0,0,.428-.915l-.224-.268-.552-.661c6.838-.327,12.871-5,16.678-11.188a30.6,30.6,0,0,0,5.829,5.156,22.466,22.466,0,0,0,11.447,3.956l-.115.15-.805,1.043a.7.7,0,0,0,.554,1.127h1.026C307.689,222.058,306.818,228.151,305.9,234.58Zm38.924,21.411H315.8c.862-8.637-.794-21.753-2.278-33.461-.278-2.2-.554-4.371-.808-6.48,6.47-1.652,12.131-6.336,16.107-12.308a12.957,12.957,0,0,0,6.394,2.138l-.067.087-.467.606a.407.407,0,0,0,.322.655h1.579a.406.406,0,0,0,.312-.667l-.164-.2-.4-.481a12.957,12.957,0,0,0,6.362-2.12c-.054,2.249-.116,4.5-.18,6.727C342.048,226.652,341.583,243.327,344.823,255.991Z" transform="translate(-27.782 -54.771)" fill="#0097a5" opacity="0.5"/>
      <g id="Group_16228" data-name="Group 16228">
        <path id="Path_68961" data-name="Path 68961" d="M210.3,220.635a19.428,19.428,0,0,0-38.856,0,22.9,22.9,0,0,0,1.129,6.925,25.014,25.014,0,0,0,9.437,13,16.058,16.058,0,0,0,8.18,2.827l-.083.107-.575.746a.5.5,0,0,0,.4.805h1.942a.5.5,0,0,0,.383-.821l-.2-.241-.495-.592C201.965,242.89,210.3,231.135,210.3,220.635Z" transform="translate(-59.769 -87.412)" fill="#0097a5"/>
        <path id="Path_68962" data-name="Path 68962" d="M105.485,178.791a23.322,23.322,0,0,0-46.644,0,27.48,27.48,0,0,0,1.355,8.314,30.028,30.028,0,0,0,11.328,15.6,19.278,19.278,0,0,0,9.819,3.394l-.1.128-.691.895a.6.6,0,0,0,.475.967H83.36a.6.6,0,0,0,.46-.985l-.242-.289-.594-.711C95.484,205.507,105.485,191.4,105.485,178.791Z" transform="translate(-33.288 -76.655)" fill="#0097a5"/>
        <path id="Path_68963" data-name="Path 68963" d="M315.738,97.382a23.2,23.2,0,0,0-4.895-14.28,23.314,23.314,0,0,0-41.748,14.28,25.059,25.059,0,0,0,.176,2.909,28.873,28.873,0,0,0,1.179,5.4,30.029,30.029,0,0,0,11.329,15.6,19.278,19.278,0,0,0,9.819,3.393l-.1.128-.691.9a.6.6,0,0,0,.476.967h2.331a.6.6,0,0,0,.46-.985l-.242-.289-.594-.711C305.737,124.1,315.738,109.986,315.738,97.382Z" transform="translate(-82.736 -57.509)" fill="#0097a5"/>
        <path id="Path_68964" data-name="Path 68964" d="M402.7,139.452a25.888,25.888,0,0,0-51.776,0,30.523,30.523,0,0,0,1.5,9.228c.325,1.017.7,2.021,1.125,3.01A32.729,32.729,0,0,0,365,166a21.4,21.4,0,0,0,10.9,3.767l-.11.142-.766.993a.666.666,0,0,0,.527,1.073h2.588a.666.666,0,0,0,.511-1.093l-.268-.321-.659-.789C391.6,169.107,402.7,153.444,402.7,139.452Z" transform="translate(-101.98 -66.799)" fill="#0097a5"/>
        <path id="Path_68965" data-name="Path 68965" d="M271.158,143.162a25.227,25.227,0,0,0-50.454,0,29.74,29.74,0,0,0,1.465,8.993,32.482,32.482,0,0,0,12.255,16.876,20.846,20.846,0,0,0,10.621,3.671l-.107.138-.747.968a.65.65,0,0,0,.514,1.046h2.522a.649.649,0,0,0,.5-1.065l-.261-.314-.643-.769C260.341,172.059,271.158,156.8,271.158,143.162Z" transform="translate(-71.355 -67.827)" fill="#0097a5"/>
        <path id="Path_68966" data-name="Path 68966" d="M242.615,108.705a15.8,15.8,0,1,0-31.6,0,18.613,18.613,0,0,0,.918,5.631,20.341,20.341,0,0,0,7.675,10.571,13.062,13.062,0,0,0,6.652,2.3l-.067.086-.467.606a.407.407,0,0,0,.322.655h1.579a.407.407,0,0,0,.312-.668l-.164-.2-.4-.482C235.84,126.8,242.615,117.244,242.615,108.705Z" transform="translate(-69.077 -61.941)" fill="#0097a5"/>
        <path id="Path_68967" data-name="Path 68967" d="M429.062,210.959a15.793,15.793,0,1,0-31.586,0,18.62,18.62,0,0,0,.917,5.629,20.339,20.339,0,0,0,7.672,10.566,13.055,13.055,0,0,0,6.649,2.3l-.067.087-.467.607a.407.407,0,0,0,.322.655h1.579a.407.407,0,0,0,.312-.667l-.164-.2-.4-.481C422.29,229.05,429.062,219.495,429.062,210.959Z" transform="translate(-112.93 -85.991)" fill="#0097a5"/>
        <path id="Path_68968" data-name="Path 68968" d="M315.891,218.107a15.793,15.793,0,0,0-31.586,0,18.6,18.6,0,0,0,.918,5.63,20.329,20.329,0,0,0,7.671,10.565,13.048,13.048,0,0,0,6.649,2.3l-.067.087-.468.606a.407.407,0,0,0,.322.655h1.579a.406.406,0,0,0,.312-.667l-.164-.2-.4-.481C309.119,236.2,315.891,226.642,315.891,218.107Z" transform="translate(-86.313 -87.672)" fill="#0097a5"/>
        <path id="Path_68969" data-name="Path 68969" d="M200.255,163.654a21.694,21.694,0,1,0-43.389,0,25.567,25.567,0,0,0,1.26,7.733A27.928,27.928,0,0,0,168.665,185.9a17.928,17.928,0,0,0,9.133,3.156l-.092.119-.642.833a.558.558,0,0,0,.442.9h2.168a.558.558,0,0,0,.428-.916l-.225-.269-.552-.662C190.952,188.5,200.255,175.379,200.255,163.654Z" transform="translate(-56.342 -73.477)" fill="#0097a5"/>
        <g id="Group_16154" data-name="Group 16154" transform="translate(137.899 53.93)">
          <g id="Group_16152" data-name="Group 16152" transform="translate(20.927 48.096)">
            <path id="Path_68970" data-name="Path 68970" d="M234.989,185.819l-.858,1.112,2.263.57Z" transform="translate(-233.34 -185.819)" fill="#feb200"/>
            <path id="Path_68971" data-name="Path 68971" d="M236.152,187.842l-2.263-.569-.67.867a.582.582,0,0,0,.461.938h2.26a.582.582,0,0,0,.446-.955Z" transform="translate(-233.097 -186.161)" fill="#ffd54f"/>
          </g>
          <g id="Group_16153" data-name="Group 16153">
            <path id="Path_68972" data-name="Path 68972" d="M228.343,122.933a22.609,22.609,0,0,0-22.609,22.609,26.641,26.641,0,0,0,1.313,8.059C219.481,152.857,233.094,132.683,228.343,122.933Z" transform="translate(-205.734 -122.933)" fill="#feebb2"/>
            <path id="Path_68973" data-name="Path 68973" d="M239.626,125.72a22.507,22.507,0,0,0-10.879-2.787c4.75,9.75-8.863,29.924-21.3,30.668a29.113,29.113,0,0,0,10.983,15.125C238.21,163.2,249.041,137.176,239.626,125.72Z" transform="translate(-206.138 -122.933)" fill="#ffe082"/>
            <path id="Path_68974" data-name="Path 68974" d="M243,126.577c9.415,11.456-1.416,37.477-21.192,43.006a18.478,18.478,0,0,0,10.314,3.323c12.486,0,22.609-14.021,22.609-26.507A22.6,22.6,0,0,0,243,126.577Z" transform="translate(-209.515 -123.79)" fill="#ffd54f"/>
          </g>
        </g>
        <g id="Group_16157" data-name="Group 16157" transform="translate(191.26 56.384)">
          <g id="Group_16155" data-name="Group 16155" transform="translate(26.344 60.543)">
            <path id="Path_68975" data-name="Path 68975" d="M312.33,205.3l-1.08,1.4,2.849.717Z" transform="translate(-310.254 -205.301)" fill="#00bad3"/>
            <path id="Path_68976" data-name="Path 68976" d="M313.793,207.848l-2.849-.717-.843,1.093a.733.733,0,0,0,.58,1.179h2.844a.733.733,0,0,0,.562-1.2Z" transform="translate(-309.947 -205.732)" fill="#80dde9"/>
          </g>
          <g id="Group_16156" data-name="Group 16156">
            <path id="Path_68977" data-name="Path 68977" d="M303.964,126.141A28.461,28.461,0,0,0,275.5,154.6a33.539,33.539,0,0,0,1.654,10.145C292.808,163.81,309.943,138.414,303.964,126.141Z" transform="translate(-275.503 -126.141)" fill="#b1eaf1"/>
            <path id="Path_68978" data-name="Path 68978" d="M318.167,129.649a28.329,28.329,0,0,0-13.694-3.508c5.979,12.273-11.156,37.669-26.808,38.6a36.643,36.643,0,0,0,13.825,19.04C316.385,176.825,330.018,144.07,318.167,129.649Z" transform="translate(-276.011 -126.141)" fill="#80dde9"/>
            <path id="Path_68979" data-name="Path 68979" d="M322.418,130.728c11.852,14.421-1.782,47.175-26.677,54.137a23.268,23.268,0,0,0,12.983,4.183c15.718,0,28.46-17.65,28.46-33.367A28.452,28.452,0,0,0,322.418,130.728Z" transform="translate(-280.263 -127.22)" fill="#4dcfe1"/>
          </g>
        </g>
        <g id="Group_16160" data-name="Group 16160" transform="translate(162.67 43.588)">
          <g id="Group_16158" data-name="Group 16158" transform="translate(20.961 48.173)">
            <path id="Path_68980" data-name="Path 68980" d="M267.424,172.4l-.859,1.114,2.267.571Z" transform="translate(-265.772 -172.397)" fill="#00abbf"/>
            <path id="Path_68981" data-name="Path 68981" d="M268.588,174.424l-2.267-.571-.671.869a.583.583,0,0,0,.462.939h2.263a.583.583,0,0,0,.447-.957Z" transform="translate(-265.528 -172.739)" fill="#00bad3"/>
          </g>
          <g id="Group_16159" data-name="Group 16159">
            <path id="Path_68982" data-name="Path 68982" d="M260.767,109.41a22.646,22.646,0,0,0-22.645,22.645,26.677,26.677,0,0,0,1.316,8.072C251.891,139.382,265.525,119.176,260.767,109.41Z" transform="translate(-238.122 -109.41)" fill="#80dde9"/>
            <path id="Path_68983" data-name="Path 68983" d="M272.068,112.2a22.541,22.541,0,0,0-10.9-2.792c4.758,9.766-8.876,29.972-21.33,30.717a29.153,29.153,0,0,0,11,15.149C270.65,149.738,281.5,123.676,272.068,112.2Z" transform="translate(-238.526 -109.41)" fill="#25c5d9"/>
            <path id="Path_68984" data-name="Path 68984" d="M275.451,113.061c9.429,11.474-1.418,37.536-21.226,43.074a18.511,18.511,0,0,0,10.33,3.328c12.507,0,22.645-14.043,22.645-26.55A22.636,22.636,0,0,0,275.451,113.061Z" transform="translate(-241.909 -110.269)" fill="#00bad3"/>
          </g>
        </g>
        <path id="Path_68985" data-name="Path 68985" d="M281.554,289.926c-1.013-20.81,4.667-47.422.532-71.311" transform="translate(-85.637 -91.506)" fill="none" stroke="#b1eaf1" stroke-miterlimit="10" stroke-width="0.971"/>
        <g id="Group_16163" data-name="Group 16163" transform="translate(171.221 103.945)">
          <g id="Group_16161" data-name="Group 16161" transform="translate(17.983 41.329)">
            <path id="Path_68986" data-name="Path 68986" d="M274.441,242.366l-.737.955,1.945.489Z" transform="translate(-273.024 -242.366)" fill="#00abbf"/>
            <path id="Path_68987" data-name="Path 68987" d="M275.44,244.1l-1.945-.489-.575.746a.5.5,0,0,0,.4.805h1.942a.5.5,0,0,0,.383-.821Z" transform="translate(-272.815 -242.66)" fill="#00bad3"/>
          </g>
          <g id="Group_16162" data-name="Group 16162" transform="translate(0 0)">
            <path id="Path_68988" data-name="Path 68988" d="M268.731,188.328A19.428,19.428,0,0,0,249.3,207.756a22.9,22.9,0,0,0,1.129,6.925C261.115,214.042,272.812,196.706,268.731,188.328Z" transform="translate(-249.302 -188.328)" fill="#80dde9"/>
            <path id="Path_68989" data-name="Path 68989" d="M278.425,190.723a19.332,19.332,0,0,0-9.348-2.4c4.082,8.378-7.616,25.714-18.3,26.353a25.018,25.018,0,0,0,9.437,13C277.209,222.926,286.516,200.567,278.425,190.723Z" transform="translate(-249.649 -188.328)" fill="#25c5d9"/>
            <path id="Path_68990" data-name="Path 68990" d="M281.327,191.46c8.09,9.843-1.216,32.2-18.21,36.955a15.881,15.881,0,0,0,8.863,2.855c10.73,0,19.428-12.048,19.428-22.778A19.421,19.421,0,0,0,281.327,191.46Z" transform="translate(-252.551 -189.065)" fill="#00bad3"/>
          </g>
        </g>
        <g id="Group_16166" data-name="Group 16166" transform="translate(95.099 96.188)">
          <g id="Group_16164" data-name="Group 16164" transform="translate(17.983 41.329)">
            <path id="Path_68991" data-name="Path 68991" d="M174.911,232.223l-.737.955,1.945.489Z" transform="translate(-173.494 -232.223)" fill="#00abbf"/>
            <path id="Path_68992" data-name="Path 68992" d="M174.734,235.136c0,7.123,2.5,39.321-.937,51.648" transform="translate(-173.405 -232.908)" fill="none" stroke="#b1eaf1" stroke-miterlimit="10" stroke-width="1.083"/>
            <path id="Path_68993" data-name="Path 68993" d="M175.91,233.961l-1.945-.489-.575.746a.5.5,0,0,0,.4.805h1.942a.5.5,0,0,0,.383-.821Z" transform="translate(-173.285 -232.516)" fill="#00bad3"/>
          </g>
          <g id="Group_16165" data-name="Group 16165" transform="translate(0 0)">
            <path id="Path_68994" data-name="Path 68994" d="M169.2,178.185a19.428,19.428,0,0,0-19.429,19.428,22.9,22.9,0,0,0,1.129,6.925C161.585,203.9,173.282,186.563,169.2,178.185Z" transform="translate(-149.772 -178.185)" fill="#80dde9"/>
            <path id="Path_68995" data-name="Path 68995" d="M178.9,180.58a19.34,19.34,0,0,0-9.348-2.395c4.082,8.378-7.616,25.714-18.3,26.353a25.018,25.018,0,0,0,9.437,13C177.679,212.783,186.986,190.424,178.9,180.58Z" transform="translate(-150.119 -178.185)" fill="#25c5d9"/>
            <path id="Path_68996" data-name="Path 68996" d="M181.8,181.316c8.09,9.844-1.216,32.2-18.21,36.956a15.883,15.883,0,0,0,8.863,2.855c10.73,0,19.428-12.048,19.428-22.778A19.423,19.423,0,0,0,181.8,181.316Z" transform="translate(-153.021 -178.921)" fill="#00bad3"/>
          </g>
        </g>
        <g id="Group_16169" data-name="Group 16169" transform="translate(245.613 93.278)">
          <g id="Group_16167" data-name="Group 16167" transform="translate(15.994 36.758)">
            <path id="Path_68997" data-name="Path 68997" d="M368.929,222.442l-.655.85,1.73.435Z" transform="translate(-367.668 -222.442)" fill="#00abbf"/>
            <path id="Path_68998" data-name="Path 68998" d="M369.817,223.988l-1.73-.435-.512.663a.444.444,0,0,0,.353.716h1.727a.445.445,0,0,0,.341-.73Z" transform="translate(-367.482 -222.703)" fill="#00bad3"/>
          </g>
          <g id="Group_16168" data-name="Group 16168">
            <path id="Path_68999" data-name="Path 68999" d="M363.849,174.381A17.279,17.279,0,0,0,346.57,191.66a20.355,20.355,0,0,0,1,6.159C357.076,197.251,367.48,181.833,363.849,174.381Z" transform="translate(-346.57 -174.381)" fill="#80dde9"/>
            <path id="Path_69000" data-name="Path 69000" d="M372.473,176.511a17.2,17.2,0,0,0-8.314-2.13c3.631,7.452-6.773,22.87-16.275,23.439a22.247,22.247,0,0,0,8.393,11.559C371.39,205.153,379.668,185.267,372.473,176.511Z" transform="translate(-346.879 -174.381)" fill="#25c5d9"/>
            <path id="Path_69001" data-name="Path 69001" d="M375.054,177.166c7.2,8.756-1.082,28.642-16.2,32.868a14.127,14.127,0,0,0,7.882,2.539c9.543,0,17.279-10.715,17.279-20.258A17.274,17.274,0,0,0,375.054,177.166Z" transform="translate(-349.46 -175.036)" fill="#00bad3"/>
          </g>
        </g>
        <g id="Group_16172" data-name="Group 16172" transform="translate(87.986 23.413)">
          <g id="Group_16170" data-name="Group 16170" transform="translate(26.344 60.543)">
            <path id="Path_69002" data-name="Path 69002" d="M177.3,162.193l-1.08,1.4,2.849.717Z" transform="translate(-175.223 -162.193)" fill="#00bad3"/>
            <path id="Path_69003" data-name="Path 69003" d="M178.762,164.74l-2.849-.717-.843,1.092a.733.733,0,0,0,.581,1.18h2.844a.733.733,0,0,0,.562-1.2Z" transform="translate(-174.916 -162.623)" fill="#80dde9"/>
          </g>
          <g id="Group_16171" data-name="Group 16171">
            <path id="Path_69004" data-name="Path 69004" d="M168.933,83.032a28.461,28.461,0,0,0-28.461,28.46,33.543,33.543,0,0,0,1.654,10.145C157.777,120.7,174.912,95.3,168.933,83.032Z" transform="translate(-140.472 -83.032)" fill="#b1eaf1"/>
            <path id="Path_69005" data-name="Path 69005" d="M183.136,86.541a28.329,28.329,0,0,0-13.694-3.509c5.979,12.273-11.156,37.669-26.808,38.606a36.641,36.641,0,0,0,13.825,19.039C181.354,133.716,194.987,100.962,183.136,86.541Z" transform="translate(-140.98 -83.032)" fill="#80dde9"/>
            <path id="Path_69006" data-name="Path 69006" d="M187.387,87.62c11.852,14.421-1.782,47.175-26.677,54.136a23.261,23.261,0,0,0,12.983,4.183c15.718,0,28.46-17.649,28.46-33.367A28.45,28.45,0,0,0,187.387,87.62Z" transform="translate(-145.232 -84.111)" fill="#4dcfe1"/>
          </g>
        </g>
        <path id="Path_69007" data-name="Path 69007" d="M67.275,182.847c0,11.879-5.433,33.9.167,48.378,8.047,20.806.9,29.513.9,46.25" transform="translate(-34.715 -83.094)" fill="none" stroke="#b1eaf1" stroke-miterlimit="10" stroke-width="1.083"/>
        <g id="Group_16175" data-name="Group 16175" transform="translate(0 27.173)">
          <g id="Group_16173" data-name="Group 16173" transform="translate(30.418 69.908)">
            <path id="Path_69008" data-name="Path 69008" d="M67.953,179.353l-1.247,1.616L70,181.8Z" transform="translate(-65.556 -179.353)" fill="#00bad3"/>
            <path id="Path_69009" data-name="Path 69009" d="M69.643,182.294l-3.289-.828-.974,1.262a.846.846,0,0,0,.67,1.362h3.285a.846.846,0,0,0,.649-1.388Z" transform="translate(-65.202 -179.85)" fill="#80dde9"/>
          </g>
          <g id="Group_16174" data-name="Group 16174">
            <path id="Path_69010" data-name="Path 69010" d="M58.293,87.948A32.863,32.863,0,0,0,25.43,120.811a38.748,38.748,0,0,0,1.909,11.714C45.412,131.444,65.2,102.119,58.293,87.948Z" transform="translate(-25.43 -87.948)" fill="#dff7f9"/>
            <path id="Path_69011" data-name="Path 69011" d="M74.693,92A32.713,32.713,0,0,0,58.88,87.948c6.9,14.171-12.882,43.5-30.954,44.576,2.821,8.833,8.581,17.035,15.964,21.985C72.636,146.471,88.377,108.65,74.693,92Z" transform="translate(-26.017 -87.948)" fill="#b1eaf1"/>
            <path id="Path_69012" data-name="Path 69012" d="M79.6,93.245c13.684,16.651-2.057,54.472-30.8,62.511a26.863,26.863,0,0,0,14.99,4.829c18.149,0,32.863-20.379,32.863-38.528A32.853,32.853,0,0,0,79.6,93.245Z" transform="translate(-30.926 -89.194)" fill="#80dde9"/>
          </g>
        </g>
        <g id="Group_16178" data-name="Group 16178" transform="translate(223.648 18.126)">
          <g id="Group_16176" data-name="Group 16176" transform="translate(24.769 56.924)">
            <path id="Path_69013" data-name="Path 69013" d="M352.476,150.547l-1.015,1.316,2.679.674Z" transform="translate(-350.524 -150.547)" fill="#00bad3"/>
            <path id="Path_69014" data-name="Path 69014" d="M353.851,152.942l-2.678-.674-.792,1.027a.689.689,0,0,0,.545,1.109H353.6a.688.688,0,0,0,.528-1.13Z" transform="translate(-350.236 -150.952)" fill="#80dde9"/>
          </g>
          <g id="Group_16177" data-name="Group 16177">
            <path id="Path_69015" data-name="Path 69015" d="M344.61,76.119a26.759,26.759,0,0,0-26.759,26.759,31.523,31.523,0,0,0,1.555,9.539C334.121,111.536,350.232,87.659,344.61,76.119Z" transform="translate(-317.851 -76.119)" fill="#dff7f9"/>
            <path id="Path_69016" data-name="Path 69016" d="M357.964,79.418a26.638,26.638,0,0,0-12.876-3.3c5.622,11.54-10.489,35.417-25.2,36.3a34.452,34.452,0,0,0,13,17.9C356.288,123.772,369.107,92.976,357.964,79.418Z" transform="translate(-318.329 -76.119)" fill="#b1eaf1"/>
            <path id="Path_69017" data-name="Path 69017" d="M361.961,80.432c11.143,13.559-1.676,44.355-25.082,50.9a21.872,21.872,0,0,0,12.206,3.933c14.779,0,26.759-16.594,26.759-31.373A26.75,26.75,0,0,0,361.961,80.432Z" transform="translate(-322.326 -77.133)" fill="#80dde9"/>
          </g>
        </g>
        <path id="Path_69018" data-name="Path 69018" d="M103.088,287.168c-3.744-14.174,3.476-52.414,4.011-68.459" transform="translate(-43.442 -91.528)" fill="none" stroke="#b1eaf1" stroke-miterlimit="10" stroke-width="0.971"/>
        <path id="Path_69019" data-name="Path 69019" d="M156.929,288.191c4.345-9.586-6.556-56.706,2.694-75.37" transform="translate(-56.085 -90.143)" fill="none" stroke="#b1eaf1" stroke-miterlimit="10" stroke-width="0.971"/>
        <g id="Group_16181" data-name="Group 16181" transform="translate(50.563 102.551)">
          <g id="Group_16179" data-name="Group 16179" transform="translate(24.711 60.036)">
            <path id="Path_69020" data-name="Path 69020" d="M128.059,265l-1.071,1.388,2.825.711Z" transform="translate(-124.588 -265.002)" fill="#00bad3"/>
            <path id="Path_69021" data-name="Path 69021" d="M127.521,268.95c0,6.733-4.489,21.232-3.539,29.259" transform="translate(-123.85 -265.931)" fill="none" stroke="#b1eaf1" stroke-miterlimit="10" stroke-width="1.083"/>
            <path id="Path_69022" data-name="Path 69022" d="M129.509,267.527l-2.825-.711-.835,1.083a.726.726,0,0,0,.575,1.17h2.821a.727.727,0,0,0,.558-1.192Z" transform="translate(-124.285 -265.429)" fill="#80dde9"/>
          </g>
          <g id="Group_16180" data-name="Group 16180">
            <path id="Path_69023" data-name="Path 69023" d="M119.763,186.505a28.222,28.222,0,0,0-28.222,28.222,33.264,33.264,0,0,0,1.64,10.06C108.7,223.858,125.692,198.675,119.763,186.505Z" transform="translate(-91.541 -186.505)" fill="#dff7f9"/>
            <path id="Path_69024" data-name="Path 69024" d="M133.847,189.984a28.086,28.086,0,0,0-13.579-3.479c5.929,12.17-11.063,37.353-26.583,38.281a36.335,36.335,0,0,0,13.709,18.88C132.08,236.763,145.6,204.284,133.847,189.984Z" transform="translate(-92.045 -186.505)" fill="#b1eaf1"/>
            <path id="Path_69025" data-name="Path 69025" d="M138.062,191.054c11.752,14.3-1.767,46.779-26.453,53.682a23.07,23.07,0,0,0,12.874,4.148c15.586,0,28.222-17.5,28.222-33.088A28.213,28.213,0,0,0,138.062,191.054Z" transform="translate(-96.261 -187.575)" fill="#80dde9"/>
          </g>
        </g>
        <path id="Path_69026" data-name="Path 69026" d="M312.122,208.823C308.1,219.1,322.746,266.2,319.986,286.9" transform="translate(-92.69 -89.203)" fill="none" stroke="#b1eaf1" stroke-miterlimit="10" stroke-width="0.971"/>
        <g id="Group_16184" data-name="Group 16184" transform="translate(214.872 109.246)">
          <g id="Group_16182" data-name="Group 16182" transform="translate(20.068 46.121)">
            <path id="Path_69027" data-name="Path 69027" d="M334.429,255.562l-.822,1.066,2.17.546Z" transform="translate(-332.848 -255.562)" fill="#feb200"/>
            <path id="Path_69028" data-name="Path 69028" d="M334.239,258.7c-2.261,13.913,3.833,27.544,1.631,34.443" transform="translate(-332.876 -256.3)" fill="none" stroke="#b1eaf1" stroke-miterlimit="10" stroke-width="0.971"/>
            <path id="Path_69029" data-name="Path 69029" d="M335.544,257.5l-2.171-.547-.642.832a.558.558,0,0,0,.441.9h2.167a.558.558,0,0,0,.428-.915Z" transform="translate(-332.615 -255.89)" fill="#fec928"/>
          </g>
          <g id="Group_16183" data-name="Group 16183" transform="translate(0 0)">
            <path id="Path_69030" data-name="Path 69030" d="M328.056,195.259a21.68,21.68,0,0,0-21.68,21.681,25.554,25.554,0,0,0,1.259,7.728C319.558,223.955,332.611,204.609,328.056,195.259Z" transform="translate(-306.376 -195.259)" fill="#ffe082"/>
            <path id="Path_69031" data-name="Path 69031" d="M338.875,197.932a21.58,21.58,0,0,0-10.432-2.673c4.555,9.35-8.5,28.7-20.421,29.409a27.915,27.915,0,0,0,10.532,14.5C337.518,233.869,347.9,208.917,338.875,197.932Z" transform="translate(-306.763 -195.259)" fill="#ffd54f"/>
            <path id="Path_69032" data-name="Path 69032" d="M342.114,198.754c9.028,10.985-1.358,35.937-20.321,41.24a17.717,17.717,0,0,0,9.889,3.187c11.974,0,21.681-13.445,21.681-25.419A21.673,21.673,0,0,0,342.114,198.754Z" transform="translate(-310.002 -196.081)" fill="#fec928"/>
          </g>
        </g>
        <g id="Group_16187" data-name="Group 16187" transform="translate(51.724 52.528)">
          <g id="Group_16185" data-name="Group 16185" transform="translate(25.374 58.315)">
            <path id="Path_69033" data-name="Path 69033" d="M128.531,197.347l-1.04,1.348,2.744.691Z" transform="translate(-126.531 -197.347)" fill="#feb200"/>
            <path id="Path_69034" data-name="Path 69034" d="M129.94,199.8l-2.744-.691-.811,1.052a.7.7,0,0,0,.558,1.136h2.74a.7.7,0,0,0,.541-1.157Z" transform="translate(-126.236 -197.762)" fill="#fec928"/>
          </g>
          <g id="Group_16186" data-name="Group 16186">
            <path id="Path_69035" data-name="Path 69035" d="M120.472,121.1A27.413,27.413,0,0,0,93.06,148.513a32.3,32.3,0,0,0,1.592,9.771C109.728,157.383,126.232,132.922,120.472,121.1Z" transform="translate(-93.06 -121.1)" fill="#ffe082"/>
            <path id="Path_69036" data-name="Path 69036" d="M134.153,124.48a27.291,27.291,0,0,0-13.191-3.38c5.76,11.822-10.745,36.283-25.82,37.185a35.294,35.294,0,0,0,13.316,18.339C132.437,169.918,145.568,138.369,134.153,124.48Z" transform="translate(-93.55 -121.1)" fill="#ffd54f"/>
            <path id="Path_69037" data-name="Path 69037" d="M138.248,125.519c11.415,13.89-1.716,45.438-25.695,52.144a22.4,22.4,0,0,0,12.5,4.029c15.14,0,27.413-17,27.413-32.139A27.4,27.4,0,0,0,138.248,125.519Z" transform="translate(-97.644 -122.139)" fill="#fec928"/>
          </g>
        </g>
        <path id="Path_69038" data-name="Path 69038" d="M212.9,288.569c2.619-5.893-7.858-40.727-1.441-51.334" transform="translate(-68.684 -95.885)" fill="none" stroke="#b1eaf1" stroke-miterlimit="10" stroke-width="0.971"/>
        <path id="Path_69039" data-name="Path 69039" d="M265.344,290.413c3.054-21.133-1.475-51.25-2.381-62.8" transform="translate(-81.294 -93.622)" fill="none" stroke="#b1eaf1" stroke-miterlimit="10" stroke-width="0.971"/>
        <path id="Path_69040" data-name="Path 69040" d="M227.955,297.039c-1.344-17.344,2.966-33.842.917-39.942" transform="translate(-72.998 -100.556)" fill="none" stroke="#b1eaf1" stroke-miterlimit="10" stroke-width="0.971"/>
        <g id="Group_16190" data-name="Group 16190" transform="translate(129.64 105.512)">
          <g id="Group_16188" data-name="Group 16188" transform="translate(25.073 57.626)">
            <path id="Path_69041" data-name="Path 69041" d="M229.987,265.724l-1.028,1.332,2.712.682Z" transform="translate(-228.01 -265.724)" fill="#feb200"/>
            <path id="Path_69042" data-name="Path 69042" d="M231.379,268.148l-2.711-.682-.8,1.039a.7.7,0,0,0,.552,1.123h2.707a.7.7,0,0,0,.535-1.144Z" transform="translate(-227.719 -266.134)" fill="#ffd54f"/>
          </g>
          <g id="Group_16189" data-name="Group 16189">
            <path id="Path_69043" data-name="Path 69043" d="M222.024,190.377a27.089,27.089,0,0,0-27.089,27.089,31.916,31.916,0,0,0,1.573,9.657C211.405,226.231,227.716,202.059,222.024,190.377Z" transform="translate(-194.935 -190.377)" fill="#feebb2"/>
            <path id="Path_69044" data-name="Path 69044" d="M235.542,193.717a26.953,26.953,0,0,0-13.034-3.34c5.692,11.682-10.619,35.854-25.516,36.746a34.88,34.88,0,0,0,13.159,18.122C233.846,238.618,246.822,207.442,235.542,193.717Z" transform="translate(-195.419 -190.377)" fill="#ffe082"/>
            <path id="Path_69045" data-name="Path 69045" d="M239.588,194.744c11.28,13.725-1.7,44.9-25.391,51.528a22.144,22.144,0,0,0,12.357,3.981c14.961,0,27.089-16.8,27.089-31.76A27.08,27.08,0,0,0,239.588,194.744Z" transform="translate(-199.465 -191.404)" fill="#ffd54f"/>
          </g>
        </g>
        <g id="Group_16193" data-name="Group 16193" transform="translate(112.607)">
          <g id="Group_16191" data-name="Group 16191" transform="translate(25.073 57.626)">
            <path id="Path_69046" data-name="Path 69046" d="M207.716,127.766l-1.028,1.332,2.712.682Z" transform="translate(-205.739 -127.766)" fill="#feb200"/>
            <path id="Path_69047" data-name="Path 69047" d="M209.108,130.19l-2.712-.682-.8,1.039a.7.7,0,0,0,.552,1.123h2.707a.7.7,0,0,0,.535-1.144Z" transform="translate(-205.448 -128.176)" fill="#ffd54f"/>
          </g>
          <g id="Group_16192" data-name="Group 16192">
            <path id="Path_69048" data-name="Path 69048" d="M199.753,52.419a27.089,27.089,0,0,0-27.089,27.089,31.916,31.916,0,0,0,1.573,9.657C189.134,88.274,205.445,64.1,199.753,52.419Z" transform="translate(-172.664 -52.419)" fill="#feebb2"/>
            <path id="Path_69049" data-name="Path 69049" d="M213.271,55.759a26.953,26.953,0,0,0-13.034-3.34c5.692,11.682-10.619,35.855-25.516,36.746a34.881,34.881,0,0,0,13.159,18.122C211.575,100.66,224.552,69.484,213.271,55.759Z" transform="translate(-173.148 -52.419)" fill="#ffe082"/>
            <path id="Path_69050" data-name="Path 69050" d="M217.317,56.786c11.281,13.725-1.7,44.9-25.391,51.528a22.144,22.144,0,0,0,12.357,3.981c14.961,0,27.089-16.8,27.089-31.76A27.08,27.08,0,0,0,217.317,56.786Z" transform="translate(-177.194 -53.446)" fill="#ffd54f"/>
          </g>
        </g>
        <g id="Group_16196" data-name="Group 16196" transform="translate(274.52 43.796)">
          <g id="Group_16194" data-name="Group 16194" transform="translate(30.418 69.908)">
            <path id="Path_69051" data-name="Path 69051" d="M426.89,201.087l-1.247,1.616,3.289.828Z" transform="translate(-424.492 -201.087)" fill="#fec928"/>
            <path id="Path_69052" data-name="Path 69052" d="M427.245,205.939c1.771,25.152-3.185,57.07,2.814,77.713" transform="translate(-424.808 -202.228)" fill="none" stroke="#b1eaf1" stroke-miterlimit="10" stroke-width="0.971"/>
            <path id="Path_69053" data-name="Path 69053" d="M428.579,204.028l-3.289-.828-.973,1.262a.846.846,0,0,0,.669,1.362h3.286a.846.846,0,0,0,.649-1.388Z" transform="translate(-424.139 -201.584)" fill="#ffe082"/>
          </g>
          <g id="Group_16195" data-name="Group 16195">
            <path id="Path_69054" data-name="Path 69054" d="M417.23,109.682a32.863,32.863,0,0,0-32.863,32.863,38.724,38.724,0,0,0,1.909,11.714C404.348,153.178,424.134,123.853,417.23,109.682Z" transform="translate(-384.367 -109.682)" fill="#fef7e0"/>
            <path id="Path_69055" data-name="Path 69055" d="M433.629,113.733a32.709,32.709,0,0,0-15.813-4.051c6.9,14.171-12.882,43.5-30.954,44.576,2.821,8.832,8.58,17.035,15.963,21.985C431.572,168.2,447.314,130.384,433.629,113.733Z" transform="translate(-384.954 -109.682)" fill="#feebb2"/>
            <path id="Path_69056" data-name="Path 69056" d="M438.538,114.979c13.685,16.651-2.057,54.472-30.8,62.51a26.86,26.86,0,0,0,14.99,4.83c18.15,0,32.863-20.379,32.863-38.528A32.852,32.852,0,0,0,438.538,114.979Z" transform="translate(-389.863 -110.928)" fill="#ffe082"/>
          </g>
        </g>
        <path id="Path_69057" data-name="Path 69057" d="M389.891,289.264c2.894-16.211-6.558-54.5-3.328-62.743" transform="translate(-110.202 -93.365)" fill="none" stroke="#b1eaf1" stroke-miterlimit="10" stroke-width="0.971"/>
        <g id="Group_16199" data-name="Group 16199" transform="translate(245.037 95.218)">
          <g id="Group_16197" data-name="Group 16197" transform="translate(24.131 57.838)">
            <path id="Path_69058" data-name="Path 69058" d="M381,252.541l-1.031,1.337,2.721.685Z" transform="translate(-377.98 -252.541)" fill="#00bad3"/>
            <path id="Path_69059" data-name="Path 69059" d="M380.409,256.252c1.128,5.942-4.062,27.6-2.858,34.674" transform="translate(-377.368 -253.414)" fill="none" stroke="#b1eaf1" stroke-miterlimit="10" stroke-width="0.971"/>
            <path id="Path_69060" data-name="Path 69060" d="M382.4,254.973l-2.721-.684-.805,1.043a.7.7,0,0,0,.554,1.127h2.718a.7.7,0,0,0,.537-1.149Z" transform="translate(-377.687 -252.952)" fill="#80dde9"/>
          </g>
          <g id="Group_16198" data-name="Group 16198" transform="translate(0 0)">
            <path id="Path_69061" data-name="Path 69061" d="M373.006,176.917a27.189,27.189,0,0,0-27.189,27.188A32.054,32.054,0,0,0,347.4,213.8C362.348,212.9,378.719,188.642,373.006,176.917Z" transform="translate(-345.817 -176.917)" fill="#dff7f9"/>
            <path id="Path_69062" data-name="Path 69062" d="M386.574,180.269a27.058,27.058,0,0,0-13.082-3.352c5.712,11.725-10.658,35.986-25.61,36.88a35,35,0,0,0,13.208,18.189C384.871,225.336,397.9,194.045,386.574,180.269Z" transform="translate(-346.303 -176.917)" fill="#b1eaf1"/>
            <path id="Path_69063" data-name="Path 69063" d="M390.635,181.3c11.322,13.776-1.7,45.067-25.484,51.717a22.222,22.222,0,0,0,12.4,4c15.016,0,27.188-16.86,27.188-31.877A27.178,27.178,0,0,0,390.635,181.3Z" transform="translate(-350.364 -177.948)" fill="#80dde9"/>
          </g>
        </g>
        <g id="Group_16209" data-name="Group 16209" transform="translate(27.896 194.377)">
          <g id="Group_16207" data-name="Group 16207">
            <path id="Path_69071" data-name="Path 69071" d="M66.123,308.677a2.109,2.109,0,1,1-2.109-2.109A2.11,2.11,0,0,1,66.123,308.677Z" transform="translate(-61.904 -306.568)" fill="#fe9f00"/>
            <circle id="Ellipse_4021" data-name="Ellipse 4021" cx="1.44" cy="1.44" r="1.44" transform="translate(0.67 0.67)" fill="#feb200"/>
          </g>
          <g id="Group_16208" data-name="Group 16208" transform="translate(31.26)">
            <path id="Path_69072" data-name="Path 69072" d="M107,308.677a2.11,2.11,0,1,1-2.109-2.109A2.11,2.11,0,0,1,107,308.677Z" transform="translate(-102.776 -306.568)" fill="#fe9f00"/>
            <circle id="Ellipse_4022" data-name="Ellipse 4022" cx="1.44" cy="1.44" r="1.44" transform="translate(0.67 0.67)" fill="#feb200"/>
          </g>
        </g>
        <g id="Group_16212" data-name="Group 16212" transform="translate(69.087 195.891)">
          <g id="Group_16210" data-name="Group 16210">
            <path id="Path_69073" data-name="Path 69073" d="M119.98,310.657a2.109,2.109,0,1,1-2.109-2.109A2.11,2.11,0,0,1,119.98,310.657Z" transform="translate(-115.761 -308.548)" fill="#fe9f00"/>
            <circle id="Ellipse_4023" data-name="Ellipse 4023" cx="1.44" cy="1.44" r="1.44" transform="translate(0.67 0.67)" fill="#feb200"/>
          </g>
          <g id="Group_16211" data-name="Group 16211" transform="translate(31.26)">
            <path id="Path_69074" data-name="Path 69074" d="M160.852,310.657a2.11,2.11,0,1,1-2.109-2.109A2.11,2.11,0,0,1,160.852,310.657Z" transform="translate(-156.633 -308.548)" fill="#fe9f00"/>
            <circle id="Ellipse_4024" data-name="Ellipse 4024" cx="1.44" cy="1.44" r="1.44" transform="translate(0.67 0.67)" fill="#feb200"/>
          </g>
        </g>
        <g id="Group_16215" data-name="Group 16215" transform="translate(111.396 191.787)">
          <g id="Group_16213" data-name="Group 16213">
            <path id="Path_69075" data-name="Path 69075" d="M175.3,305.291a2.109,2.109,0,1,1-2.109-2.109A2.109,2.109,0,0,1,175.3,305.291Z" transform="translate(-171.081 -303.182)" fill="#fe9f00"/>
            <circle id="Ellipse_4025" data-name="Ellipse 4025" cx="1.44" cy="1.44" r="1.44" transform="translate(0.67 0.67)" fill="#feb200"/>
          </g>
          <g id="Group_16214" data-name="Group 16214" transform="translate(31.26)">
            <path id="Path_69076" data-name="Path 69076" d="M216.172,305.291a2.11,2.11,0,1,1-2.109-2.109A2.11,2.11,0,0,1,216.172,305.291Z" transform="translate(-211.953 -303.182)" fill="#fe9f00"/>
            <circle id="Ellipse_4026" data-name="Ellipse 4026" cx="1.44" cy="1.44" r="1.44" transform="translate(0.67 0.67)" fill="#feb200"/>
          </g>
        </g>
        <g id="Group_16218" data-name="Group 16218" transform="translate(153.219 195.348)">
          <g id="Group_16216" data-name="Group 16216">
            <path id="Path_69077" data-name="Path 69077" d="M229.984,309.948a2.109,2.109,0,1,1-2.109-2.11A2.11,2.11,0,0,1,229.984,309.948Z" transform="translate(-225.765 -307.838)" fill="#fe9f00"/>
            <circle id="Ellipse_4027" data-name="Ellipse 4027" cx="1.44" cy="1.44" r="1.44" transform="translate(0.67 0.67)" fill="#feb200"/>
          </g>
          <g id="Group_16217" data-name="Group 16217" transform="translate(31.26)">
            <path id="Path_69078" data-name="Path 69078" d="M270.856,309.948a2.11,2.11,0,1,1-2.109-2.11A2.11,2.11,0,0,1,270.856,309.948Z" transform="translate(-266.637 -307.838)" fill="#fe9f00"/>
            <path id="Path_69079" data-name="Path 69079" d="M270.393,310.154a1.44,1.44,0,1,1-1.439-1.44A1.44,1.44,0,0,1,270.393,310.154Z" transform="translate(-266.843 -308.044)" fill="#feb200"/>
          </g>
        </g>
        <g id="Group_16221" data-name="Group 16221" transform="translate(194.22 197.631)">
          <g id="Group_16219" data-name="Group 16219">
            <path id="Path_69080" data-name="Path 69080" d="M283.593,312.933a2.11,2.11,0,1,1-2.109-2.11A2.11,2.11,0,0,1,283.593,312.933Z" transform="translate(-279.374 -310.823)" fill="#fe9f00"/>
            <path id="Path_69081" data-name="Path 69081" d="M283.13,313.139a1.44,1.44,0,1,1-1.439-1.44A1.44,1.44,0,0,1,283.13,313.139Z" transform="translate(-279.58 -311.029)" fill="#feb200"/>
          </g>
          <g id="Group_16220" data-name="Group 16220" transform="translate(31.26)">
            <path id="Path_69082" data-name="Path 69082" d="M324.466,312.933a2.109,2.109,0,1,1-2.109-2.11A2.109,2.109,0,0,1,324.466,312.933Z" transform="translate(-320.247 -310.823)" fill="#fe9f00"/>
            <path id="Path_69083" data-name="Path 69083" d="M324,313.139a1.439,1.439,0,1,1-1.439-1.44A1.439,1.439,0,0,1,324,313.139Z" transform="translate(-320.453 -311.029)" fill="#feb200"/>
          </g>
        </g>
        <g id="Group_16224" data-name="Group 16224" transform="translate(235.77 191.696)">
          <g id="Group_16222" data-name="Group 16222">
            <path id="Path_69084" data-name="Path 69084" d="M337.919,305.172a2.11,2.11,0,1,1-2.11-2.109A2.11,2.11,0,0,1,337.919,305.172Z" transform="translate(-333.7 -303.063)" fill="#fe9f00"/>
            <circle id="Ellipse_4028" data-name="Ellipse 4028" cx="1.44" cy="1.44" r="1.44" transform="translate(0.67 0.669)" fill="#feb200"/>
          </g>
          <g id="Group_16223" data-name="Group 16223" transform="translate(31.26)">
            <path id="Path_69085" data-name="Path 69085" d="M378.792,305.172a2.109,2.109,0,1,1-2.109-2.109A2.11,2.11,0,0,1,378.792,305.172Z" transform="translate(-374.573 -303.063)" fill="#fe9f00"/>
            <circle id="Ellipse_4029" data-name="Ellipse 4029" cx="1.44" cy="1.44" r="1.44" transform="translate(0.67 0.669)" fill="#feb200"/>
          </g>
        </g>
        <g id="Group_16227" data-name="Group 16227" transform="translate(276.862 194.892)">
          <g id="Group_16225" data-name="Group 16225">
            <path id="Path_69086" data-name="Path 69086" d="M391.648,309.351a2.109,2.109,0,1,1-2.109-2.11A2.11,2.11,0,0,1,391.648,309.351Z" transform="translate(-387.429 -307.241)" fill="#fe9f00"/>
            <circle id="Ellipse_4030" data-name="Ellipse 4030" cx="1.44" cy="1.44" r="1.44" transform="translate(0.67 0.67)" fill="#feb200"/>
          </g>
          <g id="Group_16226" data-name="Group 16226" transform="translate(31.26)">
            <path id="Path_69087" data-name="Path 69087" d="M432.52,309.351a2.11,2.11,0,1,1-2.109-2.11A2.11,2.11,0,0,1,432.52,309.351Z" transform="translate(-428.301 -307.241)" fill="#fe9f00"/>
            <circle id="Ellipse_4031" data-name="Ellipse 4031" cx="1.44" cy="1.44" r="1.44" transform="translate(0.67 0.67)" fill="#feb200"/>
          </g>
        </g>
      </g>
    </g>
    <path id="Path_69088" data-name="Path 69088" d="M392.386,75.771a1.693,1.693,0,1,1-1.692-1.693A1.693,1.693,0,0,1,392.386,75.771Z" transform="translate(-85.506 -5.094)" fill="#0097a5"/>
    <path id="Path_69089" data-name="Path 69089" d="M259.912,98.711a1.479,1.479,0,1,1-1.479-1.479A1.479,1.479,0,0,1,259.912,98.711Z" transform="translate(-54.451 -10.539)" fill="none" stroke="#80dde9" stroke-miterlimit="10" stroke-width="1"/>
    <path id="Path_69090" data-name="Path 69090" d="M404.663,105.957a1.632,1.632,0,1,1-1.632-1.632A1.632,1.632,0,0,1,404.663,105.957Z" transform="translate(-88.422 -12.207)" fill="none" stroke="#80dde9" stroke-miterlimit="10" stroke-width="1"/>
    <path id="Path_69091" data-name="Path 69091" d="M430.854,100.227a.933.933,0,1,1-.932-.932A.933.933,0,0,1,430.854,100.227Z" transform="translate(-94.911 -11.025)" fill="#25c5d9"/>
    <circle id="Ellipse_4032" data-name="Ellipse 4032" cx="1.786" cy="1.786" r="1.786" transform="translate(349.998 175.304)" fill="#25c5d9"/>
    <path id="Path_69092" data-name="Path 69092" d="M46.955,186.91a1.41,1.41,0,1,0,1.41-1.41A1.411,1.411,0,0,0,46.955,186.91Z" transform="translate(-5.062 -31.299)" fill="#80dde9"/>
    <circle id="Ellipse_4033" data-name="Ellipse 4033" cx="1.908" cy="1.908" r="1.908" transform="translate(43.22 166.895)" fill="none" stroke="#25c5d9" stroke-miterlimit="10" stroke-width="1"/>
    <path id="Path_69093" data-name="Path 69093" d="M134.116,83.236a2.613,2.613,0,1,1,2.613-2.613A2.614,2.614,0,0,1,134.116,83.236Z" transform="translate(-24.947 -6.019)" fill="none" stroke="#00818e" stroke-miterlimit="10" stroke-width="2"/>
  </g>
</svg>
