<svg xmlns="http://www.w3.org/2000/svg" width="31.391" height="22.397" viewBox="0 0 31.391 22.397">
  <g id="Group_13745" data-name="Group 13745" transform="translate(-5271.222 16170.477)">
    <g id="Group_13745-2" data-name="Group 13745" transform="translate(5268.198 -16169.688) rotate(-8)">
      <g id="Group_11950" data-name="Group 11950" transform="translate(5.226 0)">
        <g id="Group_11948" data-name="Group 11948" transform="translate(0 0)">
          <rect id="Rectangle_5792" data-name="Rectangle 5792" width="6.573" height="3.094" transform="matrix(0.99, 0.142, -0.142, 0.99, 0.44, 0)" fill="#415763"/>
        </g>
        <g id="Group_11949" data-name="Group 11949" transform="translate(19.519 2.802)">
          <rect id="Rectangle_5793" data-name="Rectangle 5793" width="6.573" height="3.094" transform="matrix(0.99, 0.142, -0.142, 0.99, 0.44, 0)" fill="#415763"/>
        </g>
      </g>
      <g id="Group_11951" data-name="Group 11951" transform="translate(2.358 2.393)">
        <rect id="Rectangle_5794" data-name="Rectangle 5794" width="31.334" height="2.935" transform="translate(0.417 0) rotate(8.169)" fill="#63b3db"/>
      </g>
      <g id="Group_11952" data-name="Group 11952" transform="translate(0 18.822)">
        <rect id="Rectangle_5795" data-name="Rectangle 5795" width="31.334" height="2.935" transform="translate(0.417 0) rotate(8.169)" fill="#63b3db"/>
      </g>
      <g id="Group_11953" data-name="Group 11953" transform="translate(2.378 5.58)">
        <rect id="Rectangle_5796" data-name="Rectangle 5796" width="27.372" height="13.662" transform="translate(1.941 0) rotate(8.169)" fill="#415763"/>
      </g>
      <g id="Group_11954" data-name="Group 11954" transform="translate(13.551 8.642)">
        <path id="Path_58214" data-name="Path 58214" d="M6.391,5.009,2.919,4.516,6.028.389,3.321,0,.4,5.562l3.467.5L0,10.8Z" transform="translate(0 0)" fill="#f8d56b"/>
      </g>
      <g id="Group_11960" data-name="Group 11960" transform="translate(6.514 10.939)">
        <g id="Group_11957" data-name="Group 11957" transform="translate(0 0)">
          <g id="Group_11955" data-name="Group 11955" transform="translate(1.458 0)">
            <rect id="Rectangle_5797" data-name="Rectangle 5797" width="4.262" height="0.822" transform="matrix(-0.142, 0.99, -0.99, -0.142, 1.42, 0.117)" fill="#fff"/>
          </g>
          <g id="Group_11956" data-name="Group 11956" transform="translate(0 1.458)">
            <rect id="Rectangle_5798" data-name="Rectangle 5798" width="4.262" height="0.822" transform="translate(4.219 1.42) rotate(-171.831)" fill="#fff"/>
          </g>
        </g>
        <g id="Group_11959" data-name="Group 11959" transform="translate(16.429 3.816)">
          <g id="Group_11958" data-name="Group 11958" transform="translate(0 0)">
            <rect id="Rectangle_5799" data-name="Rectangle 5799" width="4.262" height="0.822" transform="translate(4.219 1.42) rotate(-171.831)" fill="#fff"/>
          </g>
        </g>
      </g>
    </g>
  </g>
</svg>
