<svg xmlns="http://www.w3.org/2000/svg" width="108.325" height="79.923" viewBox="0 0 108.325 79.923"><g transform="translate(0.5)"><path d="M106.214,0H37.709A5.709,5.709,0,0,0,32,5.709V74.214a5.709,5.709,0,0,0,5.709,5.709h68.505a5.709,5.709,0,0,0,5.709-5.709V5.709A5.709,5.709,0,0,0,106.214,0Z" transform="translate(-17.157)" fill="rgba(52,127,149,0.1)"/><g transform="translate(24.548 30.827)"><path d="M51.854,54h77.068a2.854,2.854,0,0,1,2.854,2.854V71.126a2.854,2.854,0,0,1-2.854,2.854H51.854A2.854,2.854,0,0,1,49,71.126V56.854A2.854,2.854,0,0,1,51.854,54Z" transform="translate(-49 -54)" fill="#fff" stroke="rgba(112,112,112,0.08)" stroke-width="1"/></g><path d="M115.555,62H100.713a1.713,1.713,0,1,0,0,3.425h14.843a1.713,1.713,0,1,0,0-3.425Z" transform="translate(-45.908 -26.606)" fill="#5ebcd8"/><path d="M125.831,75H100.713a1.713,1.713,0,1,0,0,3.425h25.119a1.713,1.713,0,1,0,0-3.425Z" transform="translate(-45.908 -32.184)" fill="#dee9fc"/><path d="M75.423,72.847A5.423,5.423,0,1,0,70,67.423,5.423,5.423,0,0,0,75.423,72.847Z" transform="translate(-33.464 -26.606)" fill="#347f95"/><g transform="translate(0 55.375)"><path d="M8.854,97H85.923a2.854,2.854,0,0,1,2.854,2.854v14.272a2.854,2.854,0,0,1-2.854,2.854H8.854A2.854,2.854,0,0,1,6,114.126V99.854A2.854,2.854,0,0,1,8.854,97Z" transform="translate(-6 -97)" fill="#fff" stroke="rgba(112,112,112,0.08)" stroke-width="1"/></g><path d="M72.555,105H57.713a1.713,1.713,0,1,0,0,3.425H72.555a1.713,1.713,0,0,0,0-3.425Z" transform="translate(-27.456 -45.058)" fill="#5ebcd8"/><path d="M82.831,118H57.713a1.713,1.713,0,1,0,0,3.425H82.831a1.713,1.713,0,0,0,0-3.425Z" transform="translate(-27.456 -50.636)" fill="#dee9fc"/><path d="M19.423,115.847A5.423,5.423,0,1,0,14,110.423,5.423,5.423,0,0,0,19.423,115.847Z" transform="translate(-9.433 -45.058)" fill="#347f95"/><g transform="translate(0 6.28)"><path d="M85.923,11H8.854A2.854,2.854,0,0,0,6,13.854V28.126a2.854,2.854,0,0,0,2.854,2.854H85.923a2.855,2.855,0,0,0,2.854-2.854V13.854A2.855,2.855,0,0,0,85.923,11Z" transform="translate(-6 -11)" fill="#fff" stroke="rgba(112,112,112,0.08)" stroke-width="1"/></g><path d="M70.555,19H55.713a1.713,1.713,0,0,0,0,3.425H70.555a1.713,1.713,0,0,0,0-3.425Z" transform="translate(-26.598 -8.153)" fill="#5ebcd8"/><path d="M80.831,32H55.713a1.713,1.713,0,0,0,0,3.425H80.831a1.713,1.713,0,0,0,0-3.425Z" transform="translate(-26.598 -13.732)" fill="#dee9fc"/><path d="M32.423,29.847A5.423,5.423,0,1,0,27,24.423,5.423,5.423,0,0,0,32.423,29.847Z" transform="translate(-15.012 -8.153)" fill="#347f95"/><g transform="translate(14.981 13.977)"><path d="M0,0H4.862V4.862H0Z" fill="none"/><path d="M4.748,5.184c-.056-.253-.311-.46-.415-.6a1.647,1.647,0,0,1,.152-2.161,1.469,1.469,0,0,1,2.068,0,1.647,1.647,0,0,1,.152,2.161,1.67,1.67,0,0,0-.415.6H4.748Zm1.531.4v.2a.389.389,0,0,1-.38.4h-.76a.389.389,0,0,1-.38-.4v-.2Zm-.57-1.989V2.8L4.854,3.991h.475v.8l.855-1.194H5.709Z" transform="translate(-3.088 -1.545)" fill="#fcfcfc"/></g><g transform="translate(39.529 38.387)"><path d="M0,0H4.862V4.862H0Z" fill="none"/><path d="M4.748,5.184c-.056-.253-.311-.46-.415-.6a1.647,1.647,0,0,1,.152-2.161,1.469,1.469,0,0,1,2.068,0,1.647,1.647,0,0,1,.152,2.161,1.67,1.67,0,0,0-.415.6H4.748Zm1.531.4v.2a.389.389,0,0,1-.38.4h-.76a.389.389,0,0,1-.38-.4v-.2Zm-.57-1.989V2.8L4.854,3.991h.475v.8l.855-1.194H5.709Z" transform="translate(-3.088 -1.545)" fill="#fcfcfc"/></g><g transform="translate(7.559 62.934)"><path d="M0,0H4.862V4.862H0Z" fill="none"/><path d="M4.748,5.184c-.056-.253-.311-.46-.415-.6a1.647,1.647,0,0,1,.152-2.161,1.469,1.469,0,0,1,2.068,0,1.647,1.647,0,0,1,.152,2.161,1.67,1.67,0,0,0-.415.6H4.748Zm1.531.4v.2a.389.389,0,0,1-.38.4h-.76a.389.389,0,0,1-.38-.4v-.2Zm-.57-1.989V2.8L4.854,3.991h.475v.8l.855-1.194H5.709Z" transform="translate(-3.088 -1.545)" fill="#fcfcfc"/></g></g></svg>