<svg id="Group_6727" data-name="Group 6727" xmlns="http://www.w3.org/2000/svg" width="23.024" height="23.024" viewBox="0 0 23.024 23.024">
  <path id="Path_47408" data-name="Path 47408" d="M0,0H23.024V23.024H0Z" fill="none"/>
  <path id="Path_47409" data-name="Path 47409" d="M7.781,17.349c-.285-1.221-1.57-2.22-2.1-2.878a7.675,7.675,0,1,1,11.982,0c-.528.657-1.811,1.656-2.1,2.876H7.78Zm7.731,1.919v.959a1.919,1.919,0,0,1-1.919,1.919H9.756a1.919,1.919,0,0,1-1.919-1.919v-.959ZM12.634,9.68V5.837L8.317,11.6h2.4v3.837L15.032,9.68h-2.4Z" transform="translate(-0.163 -0.081)" fill="#fcfcfc"/>
</svg>
