<svg xmlns="http://www.w3.org/2000/svg" width="48" height="48" viewBox="0 0 48 48">
  <g id="Group_15904" data-name="Group 15904" transform="translate(-7190 -7416)">
    <circle id="Ellipse_4019" data-name="Ellipse 4019" cx="24" cy="24" r="24" transform="translate(7190 7416)" fill="#f3f7f8"/>
    <g id="Group_15900" data-name="Group 15900" transform="translate(7202.5 7428.5)">
      <path id="Path_68767" data-name="Path 68767" d="M6.845,18.734a.72.72,0,0,1-.715-.715V16.045a.715.715,0,0,1,1.43,0v1.974A.714.714,0,0,1,6.845,18.734Z" transform="translate(-0.227 -0.654)" fill="#347f95"/>
      <path id="Path_68768" data-name="Path 68768" d="M11.965,18.637a.72.72,0,0,1-.715-.715V13.965a.715.715,0,1,1,1.43,0v3.957A.714.714,0,0,1,11.965,18.637Z" transform="translate(-0.465 -0.558)" fill="#347f95"/>
      <path id="Path_68769" data-name="Path 68769" d="M17.085,18.541a.72.72,0,0,1-.715-.715V11.9a.715.715,0,1,1,1.43,0v5.931A.708.708,0,0,1,17.085,18.541Z" transform="translate(-0.703 -0.461)" fill="#347f95"/>
      <path id="Path_68770" data-name="Path 68770" d="M6.845,12.8a.722.722,0,0,1-.7-.544.713.713,0,0,1,.524-.868,17.281,17.281,0,0,0,8.954-5.53l.439-.515a.717.717,0,1,1,1.087.934l-.439.515a18.607,18.607,0,0,1-9.7,5.988A.528.528,0,0,1,6.845,12.8Z" transform="translate(-0.227 -0.179)" fill="#347f95"/>
      <path id="Path_68771" data-name="Path 68771" d="M16.949,9.315a.72.72,0,0,1-.715-.715V6.53H14.155a.715.715,0,0,1,0-1.43h2.794a.72.72,0,0,1,.715.715V8.609A.706.706,0,0,1,16.949,9.315Z" transform="translate(-0.566 -0.179)" fill="#347f95"/>
      <path id="Path_68772" data-name="Path 68772" d="M14.361,21.751H8.64c-5.178,0-7.39-2.212-7.39-7.39V8.64c0-5.178,2.212-7.39,7.39-7.39h5.721c5.178,0,7.39,2.212,7.39,7.39v5.721C21.751,19.539,19.539,21.751,14.361,21.751ZM8.64,2.68c-4.4,0-5.96,1.564-5.96,5.96v5.721c0,4.4,1.564,5.96,5.96,5.96h5.721c4.4,0,5.96-1.564,5.96-5.96V8.64c0-4.4-1.564-5.96-5.96-5.96Z" transform="translate(0 0)" fill="#347f95"/>
    </g>
  </g>
</svg>
