<svg xmlns="http://www.w3.org/2000/svg" width="96.711" height="107.027" viewBox="0 0 96.711 107.027">
  <g id="Group_6891" data-name="Group 6891" transform="translate(0 -9)">
    <path id="Path_48500" data-name="Path 48500" d="M48.355,113.711A48.355,48.355,0,1,0,0,65.355,48.356,48.356,0,0,0,48.355,113.711Z" transform="translate(0 -2.842)" fill="rgba(52,127,149,0.1)"/>
    <g id="Group_6889" data-name="Group 6889" transform="translate(17.408 41.882)">
      <path id="Path_48501" data-name="Path 48501" d="M85.671,60H30.224A3.224,3.224,0,0,0,27,63.224v67.7a3.224,3.224,0,0,0,3.224,3.224H85.671a3.224,3.224,0,0,0,3.224-3.224v-67.7A3.224,3.224,0,0,0,85.671,60Z" transform="translate(-27 -60)" fill="#fff"/>
    </g>
    <path id="Path_48502" data-name="Path 48502" d="M54.7,75H37.934a1.934,1.934,0,0,0,0,3.868H54.7A1.934,1.934,0,0,0,54.7,75Z" transform="translate(-12.789 -23.447)" fill="#5ebcd8"/>
    <path id="Path_48503" data-name="Path 48503" d="M66.3,88H37.934a1.934,1.934,0,0,0,0,3.868H66.3A1.934,1.934,0,0,0,66.3,88Z" transform="translate(-12.789 -28.066)" fill="#dfeafb"/>
    <path id="Path_48504" data-name="Path 48504" d="M54.7,102H37.934a1.934,1.934,0,0,0,0,3.868H54.7a1.934,1.934,0,0,0,0-3.868Z" transform="translate(-12.789 -33.039)" fill="#5ebcd8"/>
    <path id="Path_48505" data-name="Path 48505" d="M66.3,115H37.934a1.934,1.934,0,0,0,0,3.868H66.3a1.934,1.934,0,1,0,0-3.868Z" transform="translate(-12.789 -37.658)" fill="#dfeafb"/>
    <path id="Path_48506" data-name="Path 48506" d="M54.7,129H37.934a1.934,1.934,0,0,0,0,3.868H54.7a1.934,1.934,0,0,0,0-3.868Z" transform="translate(-12.789 -42.631)" fill="#5ebcd8"/>
    <path id="Path_48507" data-name="Path 48507" d="M66.3,142H37.934a1.934,1.934,0,0,0,0,3.868H66.3a1.934,1.934,0,0,0,0-3.868Z" transform="translate(-12.789 -47.25)" fill="#dfeafb"/>
    <g id="Group_6890" data-name="Group 6890" transform="translate(17.408 9)">
      <path id="Path_48508" data-name="Path 48508" d="M85.671,9H30.224A3.224,3.224,0,0,0,27,12.224V31.566a3.224,3.224,0,0,0,3.224,3.224H85.671A3.224,3.224,0,0,0,88.9,31.566V12.224A3.224,3.224,0,0,0,85.671,9Z" transform="translate(-27 -9)" fill="#347f95"/>
    </g>
    <path id="Path_48509" data-name="Path 48509" d="M54.7,20H37.934a1.934,1.934,0,0,0,0,3.868H54.7A1.934,1.934,0,0,0,54.7,20Z" transform="translate(-12.789 -3.908)" fill="#5ebcd8"/>
    <path id="Path_48510" data-name="Path 48510" d="M66.3,33H37.934a1.934,1.934,0,0,0,0,3.868H66.3A1.934,1.934,0,1,0,66.3,33Z" transform="translate(-12.789 -8.526)" fill="#fff"/>
  </g>
</svg>
