<svg xmlns="http://www.w3.org/2000/svg" width="80" height="80" viewBox="0 0 138.81 152.272"><g transform="translate(0 -2.941)"><path d="M69.405,155.81A69.405,69.405,0,1,0,0,86.405,69.406,69.406,0,0,0,69.405,155.81Z" transform="translate(0 -0.597)" fill="rgba(52,127,149,0.1)"/><g transform="translate(-13.159 2.941)"><rect width="8.807" height="38.53" rx="4.403" transform="translate(63.194 93.38)" fill="#0d3643"/><rect width="8.807" height="38.53" rx="4.403" transform="translate(95.119 93.38)" fill="#0d3643"/><path d="M99.1,371.613v27.015a3.6,3.6,0,0,0,3.6,3.6h61.233a3.6,3.6,0,0,0,3.6-3.6V371.613Z" transform="translate(-51.657 -290.569)" fill="#edebed"/><rect width="68.438" height="5.403" transform="translate(47.441 81.043)" fill="#dbd9dc"/><g transform="translate(33.032 34.218)"><path d="M36.634,160.5a3.6,3.6,0,0,0,0,7.2,3.6,3.6,0,0,1,3.6,3.6V156.9A3.6,3.6,0,0,1,36.634,160.5Z" transform="translate(-33.032 -156.902)" fill="#4b3f4e"/><path d="M449.538,160.5a3.6,3.6,0,0,1-3.6-3.6v14.408a3.6,3.6,0,0,1,3.6-3.6,3.6,3.6,0,0,0,0-7.2Z" transform="translate(-355.887 -156.903)" fill="#4b3f4e"/></g><path d="M141.706,82.845H73.269a7.2,7.2,0,0,1-7.2-7.2V7.2a7.2,7.2,0,0,1,7.2-7.2h68.437a7.2,7.2,0,0,1,7.2,7.2V75.64A7.2,7.2,0,0,1,141.706,82.845Z" transform="translate(-25.829 0)" fill="#6f6571"/><path d="M143.506,68.437V10.806a5.4,5.4,0,0,0-5.4-5.4H80.473a1.8,1.8,0,0,1-1.8-1.8V0h-5.4a7.2,7.2,0,0,0-7.2,7.2V75.64a7.2,7.2,0,0,0,7.2,7.2h68.437a7.2,7.2,0,0,0,7.2-7.2v-5.4h-3.6A1.8,1.8,0,0,1,143.506,68.437Z" transform="translate(-25.829)" fill="#5d5360"/><path d="M170.389,106.125H109.156a1.8,1.8,0,0,1-1.8-1.8V43.091a1.8,1.8,0,0,1,1.8-1.8h61.233a1.8,1.8,0,0,1,1.8,1.8v61.233A1.8,1.8,0,0,1,170.389,106.125Z" transform="translate(-58.114 -32.285)" fill="#edebed"/><path d="M132.129,379.871v12.607a1.8,1.8,0,0,0,1.8,1.8h50.427a1.8,1.8,0,0,0,1.8-1.8V379.871Z" transform="translate(-77.485 -297.026)" fill="#5d5360"/><rect width="54.029" height="3.602" transform="translate(54.644 82.844)" fill="#4b3f4e"/><path d="M198.325,142.935H158.7a1.8,1.8,0,0,1-1.8-1.8v-7.2a1.8,1.8,0,0,1,1.8-1.8h39.621a1.8,1.8,0,0,1,1.8,1.8v7.2A1.8,1.8,0,0,1,198.325,142.935Z" transform="translate(-96.856 -103.314)" fill="#5d5360"/><g transform="translate(60.047 48.625)"><circle cx="3.602" cy="3.602" r="3.602" fill="#c9c6ca"/><circle cx="3.602" cy="3.602" r="3.602" transform="translate(36.019)" fill="#c9c6ca"/></g><circle cx="3.602" cy="3.602" r="3.602" transform="translate(78.056 48.625)" fill="#e6646e"/><g transform="translate(65.45 28.816)"><rect width="3.602" height="10.806" fill="#4b3f4e"/><rect width="3.602" height="10.806" transform="translate(7.203)" fill="#4b3f4e"/><rect width="3.602" height="10.806" transform="translate(14.407)" fill="#4b3f4e"/><rect width="3.602" height="10.806" transform="translate(21.61)" fill="#4b3f4e"/><rect width="3.602" height="10.806" transform="translate(28.816)" fill="#4b3f4e"/></g><path d="M333.925,142.935h-3.6V132.129h3.6a1.8,1.8,0,0,1,1.8,1.8v7.2A1.8,1.8,0,0,1,333.925,142.935Z" transform="translate(-232.456 -103.314)" fill="#e6646e"/><g transform="translate(49.241 9.005)"><path d="M132.569,102.523a21.612,21.612,0,0,1-21.612-21.612V41.29h-1.8a1.8,1.8,0,0,0-1.8,1.8v61.233a1.8,1.8,0,0,0,1.8,1.8h61.233a1.8,1.8,0,0,0,1.8-1.8v-1.8H132.569Z" transform="translate(-107.355 -41.29)" fill="#dbd9dc"/><path d="M173.419,379.871v9a1.8,1.8,0,0,0,3.6,0v-9Z" transform="translate(-159.011 -306.031)" fill="#dbd9dc"/></g><g transform="translate(63.649 84.646)"><circle cx="1.801" cy="1.801" r="1.801" transform="translate(0 5.402)" fill="#c9c6ca"/><circle cx="1.801" cy="1.801" r="1.801" fill="#c9c6ca"/></g><path d="M222.968,379.871v9a1.8,1.8,0,0,0,3.6,0v-9Z" transform="translate(-148.514 -297.026)" fill="#dbd9dc"/><g transform="translate(74.455 84.646)"><circle cx="1.801" cy="1.801" r="1.801" transform="translate(0 5.402)" fill="#c9c6ca"/><circle cx="1.801" cy="1.801" r="1.801" fill="#c9c6ca"/></g><path d="M272.516,379.871v9a1.8,1.8,0,0,0,3.6,0v-9Z" transform="translate(-187.256 -297.026)" fill="#dbd9dc"/><g transform="translate(85.259 84.646)"><circle cx="1.801" cy="1.801" r="1.801" transform="translate(0 5.402)" fill="#c9c6ca"/><circle cx="1.801" cy="1.801" r="1.801" fill="#c9c6ca"/></g><path d="M322.065,379.871v9a1.8,1.8,0,0,0,3.6,0v-9Z" transform="translate(-225.999 -297.026)" fill="#dbd9dc"/><g transform="translate(96.065 84.646)"><circle cx="1.801" cy="1.801" r="1.801" transform="translate(0 5.402)" fill="#c9c6ca"/><circle cx="1.801" cy="1.801" r="1.801" fill="#c9c6ca"/></g></g></g></svg>