<svg xmlns="http://www.w3.org/2000/svg" viewBox="0 0 448.33 363.598">
  <g id="Group_14612" data-name="Group 14612" transform="translate(0 -22.059)">
    <g id="Background_Complete" data-name="Background Complete" transform="translate(0 22.059)">
      <g id="Group_14589" data-name="Group 14589" transform="translate(0 29.495)">
        <rect id="Rectangle_7930" data-name="Rectangle 7930" width="448.33" height="0.224" transform="translate(0 293.607)" fill="#ebebeb"/>
        <rect id="Rectangle_7931" data-name="Rectangle 7931" width="29.699" height="0.224" transform="translate(373.709 308.04)" fill="#ebebeb"/>
        <rect id="Rectangle_7932" data-name="Rectangle 7932" width="11.556" height="0.224" transform="translate(233.432 305.23)" fill="#ebebeb"/>
        <rect id="Rectangle_7933" data-name="Rectangle 7933" width="24.335" height="0.224" transform="translate(289.197 306.177)" fill="#ebebeb"/>
        <rect id="Rectangle_7934" data-name="Rectangle 7934" width="50.313" height="0.224" transform="translate(322.499 299.713)" fill="#ebebeb"/>
        <rect id="Rectangle_7935" data-name="Rectangle 7935" width="23.785" height="0.224" transform="translate(47.038 310.087)" fill="#ebebeb"/>
        <rect id="Rectangle_7936" data-name="Rectangle 7936" width="20.623" height="0.224" transform="translate(78.806 310.087)" fill="#ebebeb"/>
        <rect id="Rectangle_7937" data-name="Rectangle 7937" width="54.529" height="0.224" transform="translate(117.462 305.118)" fill="#ebebeb"/>
        <path id="Path_62979" data-name="Path 62979" d="M216.469,308.571H43.325a5.124,5.124,0,0,1-5.118-5.118V60.07a5.124,5.124,0,0,1,5.118-5.117H216.469a5.123,5.123,0,0,1,5.117,5.117V303.452A5.124,5.124,0,0,1,216.469,308.571ZM43.325,55.177a4.9,4.9,0,0,0-4.894,4.893V303.452a4.9,4.9,0,0,0,4.894,4.894H216.469a4.9,4.9,0,0,0,4.893-4.894V60.07a4.9,4.9,0,0,0-4.893-4.893Z" transform="translate(-3.948 -54.953)" fill="#ebebeb"/>
        <path id="Path_62980" data-name="Path 62980" d="M432.766,308.571H259.622a5.124,5.124,0,0,1-5.117-5.118V60.07a5.123,5.123,0,0,1,5.117-5.117H432.766a5.124,5.124,0,0,1,5.119,5.117V303.452A5.125,5.125,0,0,1,432.766,308.571ZM259.622,55.177a4.9,4.9,0,0,0-4.893,4.893V303.452a4.9,4.9,0,0,0,4.893,4.894H432.766a4.9,4.9,0,0,0,4.895-4.894V60.07a4.9,4.9,0,0,0-4.895-4.893Z" transform="translate(-26.301 -54.953)" fill="#ebebeb"/>
      </g>
      <g id="Group_14599" data-name="Group 14599" transform="translate(41.81)">
        <g id="Group_14594" data-name="Group 14594" transform="translate(135.486)">
          <g id="Group_14590" data-name="Group 14590">
            <path id="Path_62981" data-name="Path 62981" d="M439.231,176.386a48.287,48.287,0,0,0-.889-29.629,41.685,41.685,0,0,0-18.81-62.631A71.949,71.949,0,0,0,305.725,36,36.8,36.8,0,0,0,242.34,61.046a55.508,55.508,0,0,0-31.492,90.249A41.771,41.771,0,0,0,257.42,212.1a64.5,64.5,0,0,0,86.819,16.552c6.744,15.686,12.288,39.213.357,62.284,43.348-4.252,74.652-45.831,68.273-83.925A48.4,48.4,0,0,0,439.231,176.386Z" transform="translate(-197.728 -22.059)" fill="#ebebeb"/>
            <path id="Path_62982" data-name="Path 62982" d="M356.793,283.059a.9.9,0,0,1-.862-1.144c6.107-21.266.542-41.655-5.2-55.015l-2.911-6.767-6.22,3.948a58.22,58.22,0,0,1-78.374-14.939l-2.486-3.427-4.108,1.022a35.492,35.492,0,0,1-39.566-51.679l2.093-3.782-2.786-3.3A49.231,49.231,0,0,1,244.3,67.922l4.979-1,.057-5.08a30.521,30.521,0,0,1,52.57-20.779l3.8,3.979,4.442-3.249A65.671,65.671,0,0,1,414.04,85.718l.507,3.623,3.4,1.346a35.407,35.407,0,0,1,15.971,53.2l-1.851,2.649,1.08,3.047a42.2,42.2,0,0,1-22.182,52.456l-4.36,2.006.794,4.733c2.722,16.256-2.174,34.011-13.436,48.716a72.658,72.658,0,0,1-36.922,25.532A.9.9,0,0,1,356.793,283.059Zm-8.564-65.143a.865.865,0,0,1,.265.04.892.892,0,0,1,.559.5l3.326,7.734c5.717,13.3,11.255,33.439,5.711,54.637A71,71,0,0,0,392.543,256.4c10.959-14.311,15.73-31.562,13.089-47.329l-.906-5.409a.9.9,0,0,1,.509-.962l4.982-2.293a40.4,40.4,0,0,0,21.242-50.228l-1.235-3.481a.894.894,0,0,1,.11-.812l2.114-3.027a33.616,33.616,0,0,0-15.16-50.5l-3.89-1.537a.9.9,0,0,1-.558-.709l-.578-4.142a63.857,63.857,0,0,0-101.05-42.729l-5.077,3.714a.9.9,0,0,1-1.178-.1L300.614,42.3a28.73,28.73,0,0,0-49.48,19.562l-.065,5.8a.9.9,0,0,1-.72.869l-5.69,1.146a47.437,47.437,0,0,0-26.916,77.135l3.184,3.776a.9.9,0,0,1,.1,1.012l-2.392,4.322a33.933,33.933,0,0,0-2.915,7.007,33.7,33.7,0,0,0,40.48,42.061l4.7-1.167a.89.89,0,0,1,.942.344l2.841,3.917a55.908,55.908,0,0,0,30.032,21.081,56.256,56.256,0,0,0,45.931-6.606l7.109-4.51A.894.894,0,0,1,348.229,217.915Z" transform="translate(-198.453 -22.782)" fill="#fff"/>
          </g>
          <g id="Group_14591" data-name="Group 14591" transform="translate(55.903 43.921)">
            <path id="Path_62983" data-name="Path 62983" d="M299.632,138.423,275.6,134.682l.375-2.4a30.033,30.033,0,0,1,2.942-9.745,22.351,22.351,0,0,1,5.23-6.345q3.244-2.733,14.1-9.205,5.774-3.379,6.314-6.855a7.142,7.142,0,0,0-1.213-5.728q-1.755-2.25-5.93-2.9a10.141,10.141,0,0,0-7.894,1.815q-3.4,2.516-5.378,9.788l-24.067-6.857Q263.446,82.909,273.3,75.99t27.564-4.162q13.787,2.147,21.366,9.221,10.3,9.571,8.282,22.537a20.255,20.255,0,0,1-4.588,9.911q-3.751,4.534-14.043,10.315-7.177,4.067-9.33,6.872A16.84,16.84,0,0,0,299.632,138.423Zm-25.852,2.519,25.741,4.008-3.535,22.705-25.741-4.008Z" transform="translate(-260.074 -71.042)" fill="#fff"/>
          </g>
          <g id="Group_14592" data-name="Group 14592" transform="translate(129.91 98.974)">
            <path id="Path_62984" data-name="Path 62984" d="M369.495,179.949,356.15,169.14l1.08-1.334a21.209,21.209,0,0,1,5.253-4.9,15.761,15.761,0,0,1,5.444-2.017,90.992,90.992,0,0,1,11.871-.619q4.722-.015,6.285-1.945a5.04,5.04,0,0,0,1.291-3.926,6.3,6.3,0,0,0-2.59-3.874,7.162,7.162,0,0,0-5.462-1.692q-2.971.328-6.755,4.067l-12.259-12.722q6.788-6.947,15.258-7.674t18.3,7.235q7.654,6.2,9.772,13.208,2.893,9.5-2.938,16.694a14.3,14.3,0,0,1-6.316,4.422q-3.9,1.438-12.231,1.315-5.823-.063-8.132.886A11.882,11.882,0,0,0,369.495,179.949Zm-16.673-7.631,14.291,11.577L356.9,196.5,342.61,184.923Z" transform="translate(-342.61 -132.439)" fill="#fff"/>
          </g>
          <g id="Group_14593" data-name="Group 14593" transform="translate(145.005 43.392)">
            <path id="Path_62985" data-name="Path 62985" d="M374.964,95.874l-5.775-7.886.788-.577a12.1,12.1,0,0,1,3.6-1.938,8.985,8.985,0,0,1,3.289-.32,51.74,51.74,0,0,1,6.624,1.383q2.6.678,3.743-.158a2.875,2.875,0,0,0,1.28-1.974,3.59,3.59,0,0,0-.864-2.508,4.078,4.078,0,0,0-2.761-1.724,7.088,7.088,0,0,0-4.308,1.258l-4.9-8.782a13.594,13.594,0,0,1,9.513-2.009q4.768.829,9.023,6.64a15.825,15.825,0,0,1,3.461,8.688,9.732,9.732,0,0,1-4.04,8.762,8.132,8.132,0,0,1-4.118,1.517,20.786,20.786,0,0,1-6.923-1.051,13.221,13.221,0,0,0-4.6-.693A6.77,6.77,0,0,0,374.964,95.874Zm-8.07-6.621,6.186,8.447-7.45,5.456-6.185-8.447Z" transform="translate(-359.445 -70.451)" fill="#fff"/>
          </g>
        </g>
        <g id="Group_14598" data-name="Group 14598" transform="translate(0 34.31)">
          <g id="Group_14595" data-name="Group 14595" transform="translate(0 0)">
            <path id="Path_62986" data-name="Path 62986" d="M119.891,206.7a42.061,42.061,0,0,1-21.483-5.97c-9.1-5.422-15.528-13.826-17.713-23.12a26.063,26.063,0,0,1-24.18-24.619,22.513,22.513,0,0,1-3.1-34.693A38.342,38.342,0,0,1,99.739,72.248a19.954,19.954,0,0,1,36.495-.085,29.741,29.741,0,0,1,33.193,38.292,22.557,22.557,0,0,1-11.085,39.44A34.115,34.115,0,0,1,146.2,168.188a34.5,34.5,0,0,1-26.71,6.795c-.1,8.711,1.93,20.52,11.679,28.963a.7.7,0,0,1-.265,1.208A39.632,39.632,0,0,1,119.891,206.7ZM90.653,72.57a36.957,36.957,0,0,0-35.776,45.792.708.708,0,0,1-.2.681,21.1,21.1,0,0,0,2.911,32.976.7.7,0,0,1,.317.561,24.657,24.657,0,0,0,23.4,23.661.7.7,0,0,1,.651.552c1.981,9.122,8.241,17.407,17.176,22.731a40.013,40.013,0,0,0,30.154,4.612c-9.622-9-11.41-21.214-11.18-30.008a.708.708,0,0,1,.261-.529.717.717,0,0,1,.573-.144,33.1,33.1,0,0,0,26.4-6.378A32.736,32.736,0,0,0,157.1,149.094a.7.7,0,0,1,.586-.525,21.146,21.146,0,0,0,10.483-37.334.7.7,0,0,1-.222-.767,28.335,28.335,0,0,0-32.009-36.826.7.7,0,0,1-.777-.424,18.546,18.546,0,0,0-34.35.12.706.706,0,0,1-.828.419A37.415,37.415,0,0,0,90.653,72.57Z" transform="translate(-46.628 -60.323)" fill="#e6e6e6"/>
          </g>
          <g id="Group_14596" data-name="Group 14596" transform="translate(20.693 38.107)">
            <path id="Path_62987" data-name="Path 62987" d="M97.4,136.12l-12.386,2.916-.291-1.238a15.732,15.732,0,0,1-.491-5.3,11.685,11.685,0,0,1,1.287-4.1,67.51,67.51,0,0,1,5.022-7.237q2.133-2.773,1.711-4.565a3.734,3.734,0,0,0-1.714-2.538,4.668,4.668,0,0,0-3.445-.239,5.3,5.3,0,0,0-3.469,2.434q-1.155,1.888-.681,5.8l-13.015,1.413a17.686,17.686,0,0,1,2.425-12.422q3.415-5.294,12.542-7.442,7.106-1.672,12.171.265,6.876,2.612,8.449,9.294a10.6,10.6,0,0,1-.273,5.706q-.927,2.936-4.777,7.764a17.248,17.248,0,0,0-3.17,5.167A8.814,8.814,0,0,0,97.4,136.12Zm-12.035,6.308L98.634,139.3l2.755,11.7-13.265,3.123Z" transform="translate(-69.706 -102.822)" fill="#ebebeb"/>
          </g>
          <g id="Group_14597" data-name="Group 14597" transform="translate(67.635 20.022)">
            <path id="Path_62988" data-name="Path 62988" d="M134.338,107.88l-8.594-2.614.261-.859A11.107,11.107,0,0,1,127.585,101a8.268,8.268,0,0,1,2.242-2.049,47.769,47.769,0,0,1,5.632-2.636q2.286-.936,2.664-2.18a2.636,2.636,0,0,0-.147-2.157,3.3,3.3,0,0,0-2.017-1.367,3.747,3.747,0,0,0-2.981.255,6.517,6.517,0,0,0-2.474,3.3l-8.445-3.753a12.483,12.483,0,0,1,5.886-6.722q3.962-2.02,10.3-.1a14.555,14.555,0,0,1,7.336,4.479,8.944,8.944,0,0,1,1.861,8.67,7.483,7.483,0,0,1-2.191,3.387,19.109,19.109,0,0,1-5.67,3.045,12.176,12.176,0,0,0-3.767,2.029A6.216,6.216,0,0,0,134.338,107.88Zm-9.583-.418,9.206,2.8-2.469,8.12-9.205-2.8Z" transform="translate(-122.058 -82.652)" fill="#ebebeb"/>
          </g>
        </g>
      </g>
    </g>
    <g id="Shadow" transform="translate(50.313 365.35)">
      <ellipse id="_Path_" data-name="&lt;Path&gt;" cx="173.853" cy="10.153" rx="173.853" ry="10.153" fill="#f5f5f5"/>
    </g>
    <g id="Question_Marks" data-name="Question Marks" transform="translate(93.377 206.021)">
      <g id="Group_14602" data-name="Group 14602">
        <g id="Group_14600" data-name="Group 14600" transform="translate(19.588)">
          <path id="Path_62989" data-name="Path 62989" d="M156.494,245.35l-.826-.351a16.258,16.258,0,0,0,1.3-4.443l.891.1A17.141,17.141,0,0,1,156.494,245.35Zm-.352-10.272a11.956,11.956,0,0,0-9.352-6.971l.149-.884a12.816,12.816,0,0,1,10.019,7.484Z" transform="translate(-128.134 -227.223)" fill="#c11717"/>
          <path id="Path_62990" data-name="Path 62990" d="M149.3,254.706l-8.822,4.016-.4-.882a11.943,11.943,0,0,1-1.154-3.889,8.893,8.893,0,0,1,.352-3.258,51.31,51.31,0,0,1,2.678-6.152q1.184-2.389.6-3.665a2.847,2.847,0,0,0-1.658-1.642,3.561,3.561,0,0,0-2.609.333,4.042,4.042,0,0,0-2.231,2.333,7.024,7.024,0,0,0,.352,4.437l-9.515,2.986a13.475,13.475,0,0,1-.031-9.641q1.766-4.461,8.266-7.421a15.706,15.706,0,0,1,9.133-1.608,9.651,9.651,0,0,1,7.692,5.691,8.066,8.066,0,0,1,.642,4.3,20.612,20.612,0,0,1-2.417,6.51,13.148,13.148,0,0,0-1.6,4.33A6.7,6.7,0,0,0,149.3,254.706Zm-8.056,6.5,9.449-4.3,3.794,8.334-9.448,4.3Z" transform="translate(-125.984 -227.561)" fill="#c11717"/>
        </g>
        <g id="Group_14601" data-name="Group 14601" transform="translate(0 32.045)">
          <path id="Path_62991" data-name="Path 62991" d="M125.212,278l-4.489,6.092-.609-.448a9.363,9.363,0,0,1-2.265-2.213,6.949,6.949,0,0,1-1-2.356,40.077,40.077,0,0,1-.513-5.213,3.493,3.493,0,0,0-.983-2.727,2.224,2.224,0,0,0-1.755-.49,2.778,2.778,0,0,0-1.653,1.219,3.154,3.154,0,0,0-.635,2.438,5.484,5.484,0,0,0,1.927,2.892l-5.352,5.653a10.518,10.518,0,0,1-3.686-6.562q-.492-3.714,2.815-8.2a12.259,12.259,0,0,1,5.617-4.568,7.532,7.532,0,0,1,7.407.956,6.3,6.3,0,0,1,2.075,2.691,16.107,16.107,0,0,1,.827,5.358,10.252,10.252,0,0,0,.554,3.562A5.232,5.232,0,0,0,125.212,278Zm-3.023,7.493L127,278.967l5.756,4.239-4.807,6.526Z" transform="translate(-104.139 -262.962)" fill="#c11717"/>
        </g>
      </g>
    </g>
    <g id="Character" transform="translate(115.464 159.47)">
      <g id="Group_14608" data-name="Group 14608">
        <path id="Path_62992" data-name="Path 62992" d="M231.677,405.981a4.021,4.021,0,0,1-3.575-2.174,102.848,102.848,0,0,0-16.278-23.97,4.022,4.022,0,0,1-.907-3.84c3.026-10.5,7.775-24.854,7.822-25a4.022,4.022,0,0,1,7.636,2.529c-.044.133-4.135,12.5-7.1,22.556a113.1,113.1,0,0,1,15.975,24.025,4.024,4.024,0,0,1-3.569,5.871Z" transform="translate(-137.244 -193.178)" fill="#149852"/>
        <path id="Path_62993" data-name="Path 62993" d="M237.965,415.157H206.772l16.531-9.377,13.858.536Z" transform="translate(-136.832 -199.124)" fill="#263238"/>
        <ellipse id="Ellipse_3574" data-name="Ellipse 3574" cx="26.938" cy="22.324" rx="26.938" ry="22.324" transform="translate(59.11 143.671) rotate(-17.357)" fill="#263238"/>
        <path id="Path_62994" data-name="Path 62994" d="M151.189,328.015a4.022,4.022,0,0,1-1.54-7.738,4.538,4.538,0,0,0,2.663-3.38,4.019,4.019,0,0,1,3.291-3.582,28.7,28.7,0,0,0,2.956-.758c5.45-1.592,12.2-3.565,33.454,2.387,20.965-11.725,21.2-33.711,21.2-34.66a4.027,4.027,0,0,1,4.008-4.03h.014a4.015,4.015,0,0,1,4.021,3.989c.008,1.168-.122,28.768-26.937,42.59a4,4,0,0,1-2.959.289c-20.26-5.851-25.965-4.184-30.547-2.843-.406.117-.818.238-1.237.355a12.409,12.409,0,0,1-6.851,7.076A4.017,4.017,0,0,1,151.189,328.015Z" transform="translate(-130.672 -185.739)" fill="#263238"/>
        <path id="Path_62995" data-name="Path 62995" d="M203.034,288.81c-7.627-30.33-27.961-108.55,37.182-113.332,58.443-4.29,74.483,73.5,78.382,100.449a315.875,315.875,0,0,1,3.169,41.084,29.865,29.865,0,0,1-23.991,29.6c-31.841,6.468-61.974,7.387-82.267-.623a13.325,13.325,0,0,1-8.279-13.634C208.011,323.642,208.026,308.659,203.034,288.81Z" transform="translate(-135.507 -175.307)" fill="#149852"/>
        <path id="Path_62996" data-name="Path 62996" d="M323.2,275.943c-3.674-25.4-18.131-95.98-68.738-100.394a14.709,14.709,0,0,0-14.414,7.638c-2.258,4.372-2.184,9.675,1.2,14.917C252.4,215.4,279,275.181,274.981,307.756c-1.829,14.822-11.125,26.656-3.035,43.318a261.058,261.058,0,0,0,30.433-4.447,29.853,29.853,0,0,0,23.995-29.6A315.307,315.307,0,0,0,323.2,275.943Z" transform="translate(-140.111 -175.326)" opacity="0.1"/>
        <path id="Path_62997" data-name="Path 62997" d="M314.088,317.623a.4.4,0,0,1-.4-.4,313.893,313.893,0,0,0-3.165-41.031c-9.683-66.937-35.754-100.792-75.406-97.871a.4.4,0,0,1-.43-.371.4.4,0,0,1,.372-.43c40.127-2.96,66.507,31.135,76.261,98.557a314.734,314.734,0,0,1,3.173,41.138.4.4,0,0,1-.4.406Z" transform="translate(-139.716 -175.517)" fill="#263238"/>
        <ellipse id="Ellipse_3575" data-name="Ellipse 3575" cx="26.938" cy="22.324" rx="26.938" ry="22.324" transform="translate(134.725 145.816) rotate(-17.358)" fill="#263238"/>
        <path id="Path_62998" data-name="Path 62998" d="M322.884,405.981a4.021,4.021,0,0,1-3.575-2.174,102.868,102.868,0,0,0-16.278-23.97,4.023,4.023,0,0,1-.907-3.84c3.025-10.5,7.775-24.854,7.822-25a4.022,4.022,0,0,1,7.637,2.529c-.045.133-4.135,12.5-7.105,22.556a113.1,113.1,0,0,1,15.975,24.025,4.023,4.023,0,0,1-3.569,5.871Z" transform="translate(-146.669 -193.178)" fill="#149852"/>
        <path id="Path_62999" data-name="Path 62999" d="M313.748,266.261a4.023,4.023,0,0,1-1.884-7.579h0c.776-.413,18.287-9.984,23.2-32.969-11.675-4.883-32.659-15.906-37.247-21.445a4.029,4.029,0,0,1-.863-1.867,20.012,20.012,0,0,1,.9-9.864l-2.118-4.091a4.022,4.022,0,1,1,7.144-3.7l3.047,5.884a4.022,4.022,0,0,1-.155,3.97,9.8,9.8,0,0,0-1,5.3c5.167,4.668,26.04,15.73,36.249,19.521a4.022,4.022,0,0,1,2.575,4.386c-4.548,29.38-27.026,41.488-27.98,41.99A4,4,0,0,1,313.748,266.261Z" transform="translate(-145.979 -176.058)" fill="#263238"/>
        <path id="Path_63000" data-name="Path 63000" d="M301.334,205.024a2.011,2.011,0,0,1-1.682-3.111c.139-.213,3.464-5.228,8.521-6.582a2.011,2.011,0,0,1,1.042,3.884c-3.532.947-6.17,4.858-6.2,4.9A2.009,2.009,0,0,1,301.334,205.024Z" transform="translate(-146.396 -177.369)" fill="#263238"/>
        <path id="Path_63001" data-name="Path 63001" d="M329.173,415.157H297.979l16.531-9.377,13.858.536Z" transform="translate(-146.257 -199.124)" fill="#263238"/>
        <g id="Group_14603" data-name="Group 14603" transform="translate(91.294 52.428)">
          <ellipse id="Ellipse_3576" data-name="Ellipse 3576" cx="21.451" cy="19.306" rx="21.451" ry="19.306" transform="matrix(0.996, -0.088, 0.088, 0.996, 1.518, 6.912)" fill="#fff"/>
          <ellipse id="Ellipse_3577" data-name="Ellipse 3577" cx="5.894" cy="10.722" rx="5.894" ry="10.722" transform="matrix(0.962, -0.274, 0.274, 0.962, 10.752, 17.432)" fill="#263238"/>
          <path id="Path_63002" data-name="Path 63002" d="M230.773,261.648c13.541-1.743,40.355-9.384,44.779-12.468-3.486-10.19-19.69-18.9-34.188-14C228.3,239.61,230.773,261.648,230.773,261.648Z" transform="translate(-230.586 -233.777)" fill="#263238"/>
          <path id="Path_63003" data-name="Path 63003" d="M233.734,270.778c16.805-3.194,38.658-8.557,44.908-11.993-.386,10.965-3.569,22.072-20.73,25.826C243.891,287.678,233.734,270.778,233.734,270.778Z" transform="translate(-230.911 -236.361)" fill="#263238"/>
        </g>
        <g id="Group_14604" data-name="Group 14604" transform="translate(50.83 62.226)">
          <ellipse id="Ellipse_3578" data-name="Ellipse 3578" cx="13.198" cy="16.701" rx="13.198" ry="16.701" transform="matrix(0.834, -0.552, 0.552, 0.834, 0, 14.566)" fill="#fff"/>
          <path id="Path_63004" data-name="Path 63004" d="M207.409,267.706c1.02,4.8.14,8.811-1.966,8.95s-4.641-3.642-5.661-8.446-.14-8.811,1.966-8.951S206.389,262.9,207.409,267.706Z" transform="translate(-186.895 -246.208)" fill="#263238"/>
          <path id="Path_63005" data-name="Path 63005" d="M189.739,264.421c9.085,1.072,27.124-.123,30.121-1.764-2.215-8.7-12.96-18.536-22.723-17.274C188.337,246.52,189.739,264.421,189.739,264.421Z" transform="translate(-185.893 -244.763)" fill="#263238"/>
          <path id="Path_63006" data-name="Path 63006" d="M191.63,272.785c11.287.514,25.979.225,30.2-1.365-.386,8.613-2.646,16.833-14.178,16.7C198.233,288.007,191.63,272.785,191.63,272.785Z" transform="translate(-186.097 -247.465)" fill="#263238"/>
        </g>
        <path id="Path_63007" data-name="Path 63007" d="M260.592,227.455a50.615,50.615,0,0,1-28.745-8.785,4.022,4.022,0,0,1,4.851-6.417,43.9,43.9,0,0,0,32.134,6.376,4.022,4.022,0,0,1,1.5,7.9A52.178,52.178,0,0,1,260.592,227.455Z" transform="translate(-139.258 -179.041)" fill="#263238"/>
        <path id="Path_63008" data-name="Path 63008" d="M183.414,219.526a4.021,4.021,0,0,1-3.785-5.382c2.132-5.936,5.668-9.79,10.509-11.454,8.776-3.023,18.226,2.854,18.625,3.106a4.022,4.022,0,0,1-4.285,6.807c-1.831-1.14-7.509-3.77-11.746-2.3-2.443.849-4.252,2.995-5.532,6.559A4.022,4.022,0,0,1,183.414,219.526Z" transform="translate(-134.002 -178.048)" fill="#263238"/>
        <path id="Path_63009" data-name="Path 63009" d="M219.092,296.391a1.145,1.145,0,0,1-.335-.048,1.2,1.2,0,0,1-.826-1.472,7.878,7.878,0,0,1,4.091-4.42c4.614-2.379,11.646-1.887,20.9,1.463a1.207,1.207,0,0,1-.821,2.269c-10.612-3.844-16.12-3.013-18.874-1.638a5.6,5.6,0,0,0-2.975,2.986A1.218,1.218,0,0,1,219.092,296.391Z" transform="translate(-137.98 -187.053)" fill="#263238"/>
        <g id="Group_14607" data-name="Group 14607" transform="translate(0 104.761)">
          <g id="Group_14605" data-name="Group 14605" transform="translate(2.981 0.16)">
            <path id="Path_63010" data-name="Path 63010" d="M172.254,292.32A107.023,107.023,0,0,0,132.1,304.111c6.929-1.308,31.7,29.346,38.07,52.988,11.748-4.357,25.449-7.323,40.061-9.64C201.377,323.091,185.193,295.487,172.254,292.32Z" transform="translate(-132.096 -292.32)" fill="#407bff"/>
            <path id="Path_63011" data-name="Path 63011" d="M172.254,292.32A107.023,107.023,0,0,0,132.1,304.111c6.929-1.308,31.7,29.346,38.07,52.988,11.748-4.357,25.449-7.323,40.061-9.64C201.377,323.091,185.193,295.487,172.254,292.32Z" transform="translate(-132.096 -292.32)" fill="#fff" opacity="0.6"/>
          </g>
          <g id="Group_14606" data-name="Group 14606">
            <path id="Path_63012" data-name="Path 63012" d="M171.91,292.3c-15.315-1.729-40.18,11.093-40.18,11.093-4.406,2.809-3.21,8.079-.806,10.3,2.306-3.31,28.005-11.92,37.666-13.076C163.782,296.175,168.248,292.95,171.91,292.3Z" transform="translate(-128.771 -292.141)" fill="#407bff"/>
            <path id="Path_63013" data-name="Path 63013" d="M171.91,292.3c-15.315-1.729-40.18,11.093-40.18,11.093-4.406,2.809-3.21,8.079-.806,10.3,2.306-3.31,28.005-11.92,37.666-13.076C163.782,296.175,168.248,292.95,171.91,292.3Z" transform="translate(-128.771 -292.141)" fill="#e8dcdc" opacity="0.2"/>
          </g>
        </g>
        <path id="Path_63014" data-name="Path 63014" d="M151.08,331.986a4.016,4.016,0,0,1-3.372-1.825c-2.917-4.469-1.095-11.289-.7-12.61a4.022,4.022,0,0,1,7.709,2.295c-.657,2.251-.79,5.126-.273,5.92a4.022,4.022,0,0,1-3.364,6.22Z" transform="translate(-130.56 -189.71)" fill="#263238"/>
      </g>
    </g>
  </g>
</svg>
