<svg xmlns="http://www.w3.org/2000/svg" width="48" height="48" viewBox="0 0 48 48">
  <g id="Group_15920" data-name="Group 15920" transform="translate(-7118 -7416)">
    <circle id="Ellipse_4020" data-name="Ellipse 4020" cx="24" cy="24" r="24" transform="translate(7118 7416)" fill="#f3f7f8"/>
    <g id="Group_15919" data-name="Group 15919" transform="translate(7130 7428)">
      <path id="Path_68795" data-name="Path 68795" d="M12,22.75A10.75,10.75,0,1,1,22.75,12,10.759,10.759,0,0,1,12,22.75Zm0-20A9.25,9.25,0,1,0,21.25,12,9.261,9.261,0,0,0,12,2.75Z" fill="#347f95"/>
      <path id="Path_68796" data-name="Path 68796" d="M9,21.75H8A.755.755,0,0,1,7.25,21a.745.745,0,0,1,.73-.75,29.49,29.49,0,0,1,0-16.5A.745.745,0,0,1,7.25,3,.755.755,0,0,1,8,2.25H9a.767.767,0,0,1,.61.31.751.751,0,0,1,.1.68,27.948,27.948,0,0,0,0,17.53.751.751,0,0,1-.1.68A.787.787,0,0,1,9,21.75Z" fill="#347f95"/>
      <path id="Path_68797" data-name="Path 68797" d="M15,21.75a.672.672,0,0,1-.24-.04.745.745,0,0,1-.47-.95,27.948,27.948,0,0,0,0-17.53.749.749,0,0,1,1.42-.48,29.318,29.318,0,0,1,0,18.47A.744.744,0,0,1,15,21.75Z" fill="#347f95"/>
      <path id="Path_68798" data-name="Path 68798" d="M12,17.2a29.176,29.176,0,0,1-8.25-1.18A.75.75,0,0,1,2.25,16V15a.767.767,0,0,1,.31-.61.751.751,0,0,1,.68-.1,27.948,27.948,0,0,0,17.53,0,.751.751,0,0,1,.68.1.74.74,0,0,1,.31.61v1a.755.755,0,0,1-.75.75.745.745,0,0,1-.75-.73A29.3,29.3,0,0,1,12,17.2Z" fill="#347f95"/>
      <path id="Path_68799" data-name="Path 68799" d="M21,9.75a.672.672,0,0,1-.24-.04,27.948,27.948,0,0,0-17.53,0,.749.749,0,0,1-.95-.47.763.763,0,0,1,.48-.95,29.317,29.317,0,0,1,18.47,0,.745.745,0,0,1,.47.95A.729.729,0,0,1,21,9.75Z" fill="#347f95"/>
    </g>
  </g>
</svg>
