<svg xmlns="http://www.w3.org/2000/svg" width="203.092" height="164.052" viewBox="0 0 203.092 164.052">
  <g id="Group_7276" data-name="Group 7276" transform="translate(0 468.497)">
    <g id="freepik--Password--inject-20" transform="translate(0 -441.108)">
      <rect id="Rectangle_3244" data-name="Rectangle 3244" width="202.406" height="30.68" transform="translate(0.343 0.343)" fill="#fff"/>
      <path id="Path_49371" data-name="Path 49371" d="M430.012,217.3H226.92V185.94H430.012Zm-202.406-.686h201.72V186.626H227.606Z" transform="translate(-226.92 -185.94)" fill="#dbdbdb"/>
      <path id="Path_49372" data-name="Path 49372" d="M253.005,198.56a16.628,16.628,0,0,1,.8,3.511,27.82,27.82,0,0,1,0,7.029,16.745,16.745,0,0,1-.809,3.511,16.326,16.326,0,0,1-.809-3.511,28.251,28.251,0,0,1,0-7.029A17.09,17.09,0,0,1,253.005,198.56Z" transform="translate(-234.792 -189.906)" fill="#37474f"/>
      <path id="Path_49373" data-name="Path 49373" d="M257.281,208.335a16.14,16.14,0,0,1-3.511.823,27.43,27.43,0,0,1-3.511.219,26.147,26.147,0,0,1-3.511-.219,16.29,16.29,0,0,1-3.518-.809,17.146,17.146,0,0,1,3.518-.809,27.348,27.348,0,0,1,3.511-.219,28.744,28.744,0,0,1,3.511.226A16.531,16.531,0,0,1,257.281,208.335Z" transform="translate(-232.045 -192.659)" fill="#37474f"/>
      <path id="Path_49374" data-name="Path 49374" d="M256.167,201.56a16.756,16.756,0,0,1-1.913,3.052,26.742,26.742,0,0,1-2.325,2.64,27.544,27.544,0,0,1-2.64,2.332,16.808,16.808,0,0,1-3.058,1.913,16.8,16.8,0,0,1,1.913-3.058,27.55,27.55,0,0,1,2.332-2.64,28.448,28.448,0,0,1,2.64-2.325,16.987,16.987,0,0,1,3.052-1.913Z" transform="translate(-232.988 -190.849)" fill="#37474f"/>
      <path id="Path_49375" data-name="Path 49375" d="M256.16,211.49a16.982,16.982,0,0,1-3.052-1.913,27.533,27.533,0,0,1-2.64-2.331,26.668,26.668,0,0,1-2.345-2.647,16.811,16.811,0,0,1-1.913-3.058,16.461,16.461,0,0,1,3.058,1.913,27.48,27.48,0,0,1,4.965,4.972,16.756,16.756,0,0,1,1.927,3.065Z" transform="translate(-232.982 -190.842)" fill="#37474f"/>
      <path id="Path_49376" data-name="Path 49376" d="M292.948,198.56a16.628,16.628,0,0,1,.8,3.511,28.791,28.791,0,0,1,.226,3.511,27.534,27.534,0,0,1-.219,3.518,17.188,17.188,0,0,1-.809,3.511,16.328,16.328,0,0,1-.809-3.511,26.313,26.313,0,0,1-.219-3.518,27.5,27.5,0,0,1,.219-3.511A16.655,16.655,0,0,1,292.948,198.56Z" transform="translate(-247.346 -189.906)" fill="#37474f"/>
      <path id="Path_49377" data-name="Path 49377" d="M297.221,208.329a16.24,16.24,0,0,1-3.511.809,27.505,27.505,0,0,1-3.511.219,26.343,26.343,0,0,1-3.518-.219,16.326,16.326,0,0,1-3.511-.809,17.2,17.2,0,0,1,3.511-.809,27.529,27.529,0,0,1,3.518-.219,28.8,28.8,0,0,1,3.511.226,16.631,16.631,0,0,1,3.511.8Z" transform="translate(-244.597 -192.652)" fill="#37474f"/>
      <path id="Path_49378" data-name="Path 49378" d="M296.107,201.56a16.754,16.754,0,0,1-1.913,3.052,26.748,26.748,0,0,1-2.325,2.64,27.523,27.523,0,0,1-2.64,2.332,16.809,16.809,0,0,1-3.058,1.913,16.8,16.8,0,0,1,1.913-3.058,27.537,27.537,0,0,1,2.332-2.64,26.741,26.741,0,0,1,2.64-2.325A16.751,16.751,0,0,1,296.107,201.56Z" transform="translate(-245.539 -190.849)" fill="#37474f"/>
      <path id="Path_49379" data-name="Path 49379" d="M296.119,211.49a16.751,16.751,0,0,1-3.052-1.913,25.971,25.971,0,0,1-2.64-2.332,26.663,26.663,0,0,1-2.3-2.647,16.818,16.818,0,0,1-1.913-3.058,16.453,16.453,0,0,1,3.058,1.913,27.476,27.476,0,0,1,4.965,4.972,16.753,16.753,0,0,1,1.886,3.065Z" transform="translate(-245.552 -190.842)" fill="#37474f"/>
      <path id="Path_49380" data-name="Path 49380" d="M332.879,198.56a16.239,16.239,0,0,1,.809,3.511,27.521,27.521,0,0,1,.219,3.511,26.364,26.364,0,0,1-.219,3.518,16.326,16.326,0,0,1-.809,3.511,16.726,16.726,0,0,1-.8-3.511,27.536,27.536,0,0,1-.226-3.518,28.808,28.808,0,0,1,.226-3.511,16.633,16.633,0,0,1,.8-3.511Z" transform="translate(-259.894 -189.906)" fill="#37474f"/>
      <path id="Path_49381" data-name="Path 49381" d="M337.161,208.329a16.324,16.324,0,0,1-3.511.809,27.539,27.539,0,0,1-3.518.219,26.317,26.317,0,0,1-3.511-.219,16.24,16.24,0,0,1-3.511-.809,17.086,17.086,0,0,1,3.511-.809,27.5,27.5,0,0,1,3.511-.219,28.86,28.86,0,0,1,3.518.226,16.735,16.735,0,0,1,3.511.8Z" transform="translate(-257.148 -192.652)" fill="#37474f"/>
      <path id="Path_49382" data-name="Path 49382" d="M336.046,201.56a16.755,16.755,0,0,1-1.913,3.052,26.747,26.747,0,0,1-2.325,2.64,27.541,27.541,0,0,1-2.64,2.332,16.807,16.807,0,0,1-3.058,1.913,16.459,16.459,0,0,1,1.913-3.058,28.449,28.449,0,0,1,2.325-2.64,27.662,27.662,0,0,1,2.647-2.325A16.751,16.751,0,0,1,336.046,201.56Z" transform="translate(-258.09 -190.849)" fill="#37474f"/>
      <path id="Path_49383" data-name="Path 49383" d="M336.046,211.49a16.753,16.753,0,0,1-3.051-1.913,26.8,26.8,0,0,1-2.647-2.332,27.478,27.478,0,0,1-2.325-2.647,16.453,16.453,0,0,1-1.913-3.058,16.461,16.461,0,0,1,3.058,1.913,27.483,27.483,0,0,1,4.965,4.972A16.747,16.747,0,0,1,336.046,211.49Z" transform="translate(-258.09 -190.842)" fill="#37474f"/>
      <path id="Path_49384" data-name="Path 49384" d="M372.819,198.56a16.655,16.655,0,0,1,.809,3.511,28.251,28.251,0,0,1,0,7.029,16.328,16.328,0,0,1-.809,3.511,16.749,16.749,0,0,1-.809-3.511,27.551,27.551,0,0,1-.219-3.518,28.791,28.791,0,0,1,.226-3.511,16.624,16.624,0,0,1,.8-3.511Z" transform="translate(-272.445 -189.906)" fill="#37474f"/>
      <path id="Path_49385" data-name="Path 49385" d="M377.1,208.329a16.323,16.323,0,0,1-3.511.809,27.538,27.538,0,0,1-3.518.219,26.318,26.318,0,0,1-3.511-.219,16.24,16.24,0,0,1-3.511-.809,17.088,17.088,0,0,1,3.511-.809,27.505,27.505,0,0,1,3.511-.219,28.858,28.858,0,0,1,3.518.226,16.734,16.734,0,0,1,3.511.8Z" transform="translate(-269.699 -192.652)" fill="#37474f"/>
      <path id="Path_49386" data-name="Path 49386" d="M375.987,201.56a16.759,16.759,0,0,1-1.913,3.052,26.848,26.848,0,0,1-2.331,2.64,25.989,25.989,0,0,1-2.64,2.332,16.749,16.749,0,0,1-3.052,1.913,16.09,16.09,0,0,1,1.913-3.058,27.461,27.461,0,0,1,2.325-2.64,28.424,28.424,0,0,1,2.64-2.325A17.047,17.047,0,0,1,375.987,201.56Z" transform="translate(-270.642 -190.849)" fill="#37474f"/>
      <path id="Path_49387" data-name="Path 49387" d="M375.986,211.5a17.046,17.046,0,0,1-3.058-1.913,27.532,27.532,0,0,1-2.64-2.331,26.583,26.583,0,0,1-2.325-2.633,16.084,16.084,0,0,1-1.913-3.058,16.384,16.384,0,0,1,3.052,1.913,25.9,25.9,0,0,1,2.64,2.325,27.74,27.74,0,0,1,2.332,2.647A16.75,16.75,0,0,1,375.986,211.5Z" transform="translate(-270.642 -190.849)" fill="#37474f"/>
      <path id="Path_49388" data-name="Path 49388" d="M412.757,198.56a17.093,17.093,0,0,1,.809,3.511,28.257,28.257,0,0,1,0,7.029,16.331,16.331,0,0,1-.809,3.511,16.741,16.741,0,0,1-.809-3.511,27.817,27.817,0,0,1,0-7.029,16.628,16.628,0,0,1,.809-3.511Z" transform="translate(-284.995 -189.906)" fill="#37474f"/>
      <path id="Path_49389" data-name="Path 49389" d="M417.044,208.329a16.294,16.294,0,0,1-3.518.809,27.348,27.348,0,0,1-3.511.219,26.24,26.24,0,0,1-3.511-.219,16.146,16.146,0,0,1-3.5-.809,16.987,16.987,0,0,1,3.511-.809,27.432,27.432,0,0,1,3.511-.219,28.648,28.648,0,0,1,3.511.226A16.689,16.689,0,0,1,417.044,208.329Z" transform="translate(-282.253 -192.652)" fill="#37474f"/>
      <path id="Path_49390" data-name="Path 49390" d="M415.927,201.56a16.406,16.406,0,0,1-1.92,3.052,28.08,28.08,0,0,1-4.965,4.972,16.75,16.75,0,0,1-3.052,1.913,16.087,16.087,0,0,1,1.913-3.058,27.456,27.456,0,0,1,2.325-2.64,28.428,28.428,0,0,1,2.64-2.325A16.814,16.814,0,0,1,415.927,201.56Z" transform="translate(-283.193 -190.849)" fill="#37474f"/>
      <path id="Path_49391" data-name="Path 49391" d="M415.927,211.5a16.807,16.807,0,0,1-3.058-1.913,27.533,27.533,0,0,1-2.64-2.331,26.594,26.594,0,0,1-2.325-2.633,16.086,16.086,0,0,1-1.913-3.058,16.384,16.384,0,0,1,3.052,1.913,25.9,25.9,0,0,1,2.64,2.325,26.747,26.747,0,0,1,2.325,2.647,16.412,16.412,0,0,1,1.92,3.052Z" transform="translate(-283.193 -190.849)" fill="#37474f"/>
      <path id="Path_49392" data-name="Path 49392" d="M452.7,198.56a16.632,16.632,0,0,1,.8,3.511,27.814,27.814,0,0,1,0,7.029,16.741,16.741,0,0,1-.809,3.511,16.333,16.333,0,0,1-.809-3.511,28.257,28.257,0,0,1,0-7.029,17.09,17.09,0,0,1,.816-3.511Z" transform="translate(-297.545 -189.906)" fill="#37474f"/>
      <path id="Path_49393" data-name="Path 49393" d="M456.971,208.329a16.139,16.139,0,0,1-3.511.809,27.436,27.436,0,0,1-3.511.219,26.167,26.167,0,0,1-3.511-.219,16.293,16.293,0,0,1-3.518-.809,17.143,17.143,0,0,1,3.518-.809,27.347,27.347,0,0,1,3.511-.219,28.735,28.735,0,0,1,3.511.226,16.535,16.535,0,0,1,3.511.8Z" transform="translate(-294.798 -192.652)" fill="#37474f"/>
      <path id="Path_49394" data-name="Path 49394" d="M455.86,201.56a16.03,16.03,0,0,1-1.913,3.052,25.913,25.913,0,0,1-2.325,2.64,27.544,27.544,0,0,1-2.64,2.332,16.983,16.983,0,0,1-3.052,1.913,16.423,16.423,0,0,1,1.906-3.058,28.085,28.085,0,0,1,4.972-4.965,16.991,16.991,0,0,1,3.052-1.913Z" transform="translate(-295.744 -190.849)" fill="#37474f"/>
      <path id="Path_49395" data-name="Path 49395" d="M455.86,211.5a16.994,16.994,0,0,1-3.052-1.913,28.7,28.7,0,0,1-4.972-4.965,16.412,16.412,0,0,1-1.906-3.058,16.618,16.618,0,0,1,3.052,1.913,27.463,27.463,0,0,1,2.64,2.325,26.734,26.734,0,0,1,2.325,2.647A16.031,16.031,0,0,1,455.86,211.5Z" transform="translate(-295.744 -190.849)" fill="#37474f"/>
    </g>
    <g id="freepik--Padlock--inject-20" transform="translate(53.413 -468.497)">
      <path id="Path_49396" data-name="Path 49396" d="M393.75,182.866v37.346H383.2V182.866c0-14.2-10.787-25.75-24.056-25.75s-24.056,11.548-24.056,25.75v37.346H324.53V182.866c0-20.339,15.525-36.866,34.61-36.866S393.75,162.527,393.75,182.866Z" transform="translate(-311.007 -146)" fill="#80949e"/>
      <path id="Path_49397" data-name="Path 49397" d="M324.53,213.92l10.554.425v27.211H324.53Z" transform="translate(-311.007 -167.344)" fill="#263238" opacity="0.3"/>
      <path id="Path_49398" data-name="Path 49398" d="M420.634,217.832v24.817H410.08V217.4Z" transform="translate(-337.891 -168.437)" fill="#263238" opacity="0.3"/>
      <rect id="Rectangle_3245" data-name="Rectangle 3245" width="96.272" height="87.344" transform="translate(0 52.947)" fill="#149852"/>
      <rect id="Rectangle_3246" data-name="Rectangle 3246" width="48.133" height="87.344" transform="translate(48.133 52.947)" opacity="0.1"/>
      <path id="Path_49399" data-name="Path 49399" d="M374.947,284.315l4.025,19.112h-17.1l4.032-19.112a8.551,8.551,0,1,1,9.045,0Z" transform="translate(-322.741 -184.498)" fill="#263238"/>
    </g>
    <g id="freepik--Shield--inject-20" transform="translate(4.677 -391.151)">
      <path id="Path_49400" data-name="Path 49400" d="M302.644,281.228s-5.033,40.295-13.3,49.374c-9.93,10.876-17.144,9.285-21.149,14.894h0c-4-5.616-11.212-4.018-21.155-14.9-8.27-9.073-13.3-49.374-13.3-49.374,21.793-10.574,34.466-22.431,34.466-22.431h0C268.583,259.16,281.187,270.818,302.644,281.228Z" transform="translate(-233.74 -258.79)" fill="#ebebeb"/>
      <path id="Path_49401" data-name="Path 49401" d="M268.212,258.8v86.692h0c-4-5.616-11.212-4.019-21.155-14.9-8.27-9.072-13.3-49.374-13.3-49.374,21.779-10.567,34.452-22.424,34.452-22.424Z" transform="translate(-233.746 -258.79)" fill="#dbdbdb"/>
      <path id="Path_49402" data-name="Path 49402" d="M299.75,287.561s-4.252,34.034-11.239,41.7c-8.4,9.2-14.49,7.852-17.878,12.59-3.388-4.739-9.477-3.388-17.871-12.59-6.988-7.667-11.233-41.7-11.233-41.7,18.412-8.915,29.1-18.961,29.1-18.961S281.338,278.619,299.75,287.561Z" transform="translate(-236.188 -261.873)" fill="#dbdbdb"/>
      <path id="Path_49403" data-name="Path 49403" d="M241.54,287.567s4.252,34.034,11.239,41.7c8.387,9.2,14.449,7.852,17.878,12.577V268.62C270.321,268.922,259.685,278.762,241.54,287.567Z" transform="translate(-236.191 -261.879)" fill="#c7c7c7"/>
      <circle id="Ellipse_3338" data-name="Ellipse 3338" cx="13.496" cy="13.496" r="13.496" transform="translate(15.367 43.354) rotate(-45)" fill="#149852"/>
      <path id="Path_49404" data-name="Path 49404" d="M278.984,327.509l-6.014-6.254,2.229-2.146,3.312,3.449,7.145-10.958,2.592,1.687Z" transform="translate(-246.068 -275.386)" fill="#fff"/>
    </g>
  </g>
</svg>
