<svg xmlns="http://www.w3.org/2000/svg" width="22.721" height="18.715" viewBox="0 0 22.721 18.715">
  <g id="Group_13859" data-name="Group 13859" transform="translate(-1.711 -3.52)">
    <path id="Path_61345" data-name="Path 61345" d="M20.979,6.963C20.5,4.568,18.727,3.52,16.256,3.52H6.567c-2.913,0-4.855,1.457-4.855,4.855v5.683c0,2.45,1,3.884,2.659,4.5a4.291,4.291,0,0,0,.783.21,6.453,6.453,0,0,0,1.412.143h9.7c2.913,0,4.855-1.457,4.855-4.855V8.375A6.247,6.247,0,0,0,20.979,6.963ZM5.927,12.878a.828.828,0,0,1-1.655,0V9.567a.828.828,0,0,1,1.655,0Zm5.484,1.258a2.913,2.913,0,1,1,2.913-2.913A2.91,2.91,0,0,1,11.411,14.136Zm7.129-1.258a.828.828,0,0,1-1.655,0V9.567a.828.828,0,1,1,1.655,0Z" transform="translate(0 0)" fill="#f3f7f8"/>
    <path id="Path_61346" data-name="Path 61346" d="M24.007,11.26v5.683c0,3.4-1.942,4.866-4.866,4.866H9.452a6.212,6.212,0,0,1-2.207-.364,3.721,3.721,0,0,1-1.335-.817.285.285,0,0,1,.232-.486H15.83c4.083,0,6.511-2.428,6.511-6.5V7.95a.287.287,0,0,1,.486-.232A4.958,4.958,0,0,1,24.007,11.26Z" transform="translate(0.425 0.425)" fill="#f3f7f8"/>
    <path id="Union_2" data-name="Union 2" d="M2.3,2.762l-.539-.717H.911v.717H.381V2.045H0V1.686H.381V.969H0V.61H.381V0H.916l.461.61h.888V0h.528V.61h.382V.969H2.793v.716h.382v.359H2.793v.717ZM2.265,1.686V.969H1.649l.542.716Zm-.775,0L.951.969H.911v.716Z" transform="translate(9.738 9.851)" fill="#f3f7f8" stroke="rgba(0,0,0,0)" stroke-miterlimit="10" stroke-width="1"/>
  </g>
</svg>
