<svg id="Group_3325" data-name="Group 3325" xmlns="http://www.w3.org/2000/svg" width="37.164" height="37.164" viewBox="0 0 37.164 37.164">
  <path id="Path_38016" data-name="Path 38016" d="M0,0H37.164V37.164H0Z" fill="none"/>
  <path id="Path_38017" data-name="Path 38017" d="M23.679,1a1.549,1.549,0,0,1,1.549,1.549V4.1H32.97v9.291H29.844L34.1,25.071a6.2,6.2,0,1,1-11.77,3.8H15.741a6.2,6.2,0,0,1-12.077-.351A3.1,3.1,0,0,1,2,25.776V10.291A1.549,1.549,0,0,1,3.549,8.743h10.84a1.548,1.548,0,0,1,1.549,1.549v7.743a1.548,1.548,0,0,0,1.549,1.549h3.1a1.548,1.548,0,0,0,1.549-1.549V4.1H17.485V1Zm4.646,23.228a3.094,3.094,0,1,0,2.911,2.038L31.21,26.2A3.1,3.1,0,0,0,28.325,24.228Zm-18.582,0a3.1,3.1,0,1,0,3.1,3.1A3.1,3.1,0,0,0,9.743,24.228Zm3.1-12.388H5.1v3.1H12.84ZM29.873,7.194H25.228v3.1h4.646Z" transform="translate(1.097 0.549)" fill="#347f95"/>
</svg>
