<svg xmlns="http://www.w3.org/2000/svg" width="48" height="48" viewBox="0 0 48 48">
  <g id="Group_15914" data-name="Group 15914" transform="translate(-7249 -7416)">
    <circle id="Ellipse_4018" data-name="Ellipse 4018" cx="24" cy="24" r="24" transform="translate(7249 7416)" fill="#f3f7f8"/>
    <g id="Group_15916" data-name="Group 15916" transform="translate(7261 7428)">
      <path id="Path_68786" data-name="Path 68786" d="M11.02,20.25H7.5a12.077,12.077,0,0,1-1.77-.1C2.4,19.78,1.75,17.8,1.75,14.5v-5c0-3.3.66-5.29,4.01-5.66A13.109,13.109,0,0,1,7.5,3.75h3.46a.75.75,0,0,1,0,1.5H7.5a12.151,12.151,0,0,0-1.55.08c-2.03.22-2.7.86-2.7,4.17v5c0,3.31.67,3.94,2.67,4.17a11.262,11.262,0,0,0,1.58.08h3.52a.75.75,0,1,1,0,1.5Z" fill="#347f95"/>
      <path id="Path_68787" data-name="Path 68787" d="M16.5,20.25H15.02a.75.75,0,0,1,0-1.5H16.5a12.151,12.151,0,0,0,1.55-.08c2.03-.22,2.7-.86,2.7-4.17v-5c0-3.31-.67-3.94-2.67-4.17a11.262,11.262,0,0,0-1.58-.08H15.02a.75.75,0,0,1,0-1.5H16.5a12.077,12.077,0,0,1,1.77.1c3.33.37,3.98,2.35,3.98,5.65v5c0,3.3-.66,5.29-4.01,5.66A13.109,13.109,0,0,1,16.5,20.25Z" fill="#347f95"/>
      <path id="Path_68788" data-name="Path 68788" d="M15,22.75a.755.755,0,0,1-.75-.75V2a.75.75,0,0,1,1.5,0V22A.755.755,0,0,1,15,22.75Z" fill="#347f95"/>
      <path id="Path_68789" data-name="Path 68789" d="M8,16.25a.755.755,0,0,1-.75-.75v-7a.75.75,0,0,1,1.5,0v7A.755.755,0,0,1,8,16.25Z" fill="#347f95"/>
    </g>
  </g>
</svg>
