<svg xmlns="http://www.w3.org/2000/svg" width="48" height="48" viewBox="0 0 48 48">
  <g id="Group_15905" data-name="Group 15905" transform="translate(-7118 -7416)">
    <circle id="Ellipse_4020" data-name="Ellipse 4020" cx="24" cy="24" r="24" transform="translate(7118 7416)" fill="#f3f7f8"/>
    <g id="Group_15901" data-name="Group 15901" transform="translate(7130 7428)">
      <path id="Path_68773" data-name="Path 68773" d="M15,22.75H9c-5.43,0-7.75-2.32-7.75-7.75V9C1.25,3.57,3.57,1.25,9,1.25h6c5.43,0,7.75,2.32,7.75,7.75v6C22.75,20.43,20.43,22.75,15,22.75Zm-6-20C4.39,2.75,2.75,4.39,2.75,9v6c0,4.61,1.64,6.25,6.25,6.25h6c4.61,0,6.25-1.64,6.25-6.25V9c0-4.61-1.64-6.25-6.25-6.25Z" fill="#347f95"/>
      <path id="Path_68774" data-name="Path 68774" d="M8.57,16.02a.742.742,0,0,1-.53-.22.754.754,0,0,1,0-1.06l6.55-6.55a.75.75,0,0,1,1.06,1.06L9.1,15.8A.742.742,0,0,1,8.57,16.02Z" fill="#347f95"/>
      <path id="Path_68775" data-name="Path 68775" d="M8.98,11.11a1.98,1.98,0,1,1,1.98-1.98A1.985,1.985,0,0,1,8.98,11.11Zm0-2.45a.48.48,0,0,0-.48.48.48.48,0,0,0,.96,0A.48.48,0,0,0,8.98,8.66Z" fill="#347f95"/>
      <path id="Path_68776" data-name="Path 68776" d="M15.52,16.84a1.98,1.98,0,1,1,1.98-1.98A1.985,1.985,0,0,1,15.52,16.84Zm0-2.45a.48.48,0,0,0-.48.48.48.48,0,1,0,.48-.48Z" fill="#347f95"/>
    </g>
  </g>
</svg>
