<svg id="Group_15247" data-name="Group 15247" xmlns="http://www.w3.org/2000/svg" width="24" height="24" viewBox="0 0 24 24">
  <path id="Path_68743" data-name="Path 68743" d="M0,0H24V24H0Z" fill="none"/>
  <g id="Group_15908" data-name="Group 15908" transform="translate(1.279 1.279)">
    <path id="Path_68777" data-name="Path 68777" d="M14.959,12.571H7.911a.661.661,0,1,1,0-1.321h7.048a.661.661,0,1,1,0,1.321Z" transform="translate(-0.714 -1.19)" fill="#001319"/>
    <path id="Path_68778" data-name="Path 68778" d="M11.911,15.619a.666.666,0,0,1-.661-.661V7.911a.661.661,0,0,1,1.321,0v7.048A.666.666,0,0,1,11.911,15.619Z" transform="translate(-1.19 -0.714)" fill="#001319"/>
    <path id="Path_68779" data-name="Path 68779" d="M13.364,20.191H8.078c-4.784,0-6.828-2.044-6.828-6.828V8.078c0-4.784,2.044-6.828,6.828-6.828h5.286c4.784,0,6.828,2.044,6.828,6.828v5.286C20.191,18.147,18.147,20.191,13.364,20.191ZM8.078,2.571c-4.061,0-5.506,1.445-5.506,5.506v5.286c0,4.061,1.445,5.506,5.506,5.506h5.286c4.061,0,5.506-1.445,5.506-5.506V8.078c0-4.061-1.445-5.506-5.506-5.506Z" transform="translate(0 0)" fill="#001319"/>
  </g>
</svg>
