<svg id="Group_14036" data-name="Group 14036" xmlns="http://www.w3.org/2000/svg" width="20" height="20" viewBox="0 0 20 20">
  <path id="Path_62246" data-name="Path 62246" d="M0,0H20V20H0Z" fill="none"/>
  <path id="Path_62247" data-name="Path 62247" d="M3.832,3H17.144a.832.832,0,0,1,.832.832V17.144a.832.832,0,0,1-.832.832H3.832A.832.832,0,0,1,3,17.144V3.832A.832.832,0,0,1,3.832,3Zm.832,1.664V16.312H16.312V4.664ZM9.656,9.656V6.328H11.32V9.656h3.328V11.32H11.32v3.328H9.656V11.32H6.328V9.656Z" transform="translate(-0.488 -0.488)" fill="#347f95"/>
</svg>
