<svg id="Group_6451" data-name="Group 6451" xmlns="http://www.w3.org/2000/svg" width="32.15" height="42.759" viewBox="0 0 32.15 42.759">
  <g id="Group_6376" data-name="Group 6376" transform="translate(0 0)">
    <g id="Group_6375" data-name="Group 6375" style="isolation: isolate">
      <g id="Group_6304" data-name="Group 6304" transform="translate(16.829 31.304)" style="isolation: isolate">
        <g id="Group_6303" data-name="Group 6303" style="isolation: isolate">
          <path id="Path_46389" data-name="Path 46389" d="M376.841,194.714l-.69-.4a.109.109,0,0,1-.046-.062l.69.4a.111.111,0,0,0,.046.063Z" transform="translate(-376.105 -194.251)" fill="#013249"/>
        </g>
      </g>
      <g id="Group_6305" data-name="Group 6305" transform="translate(16.157 29.213)">
        <path id="Path_46390" data-name="Path 46390" d="M376.011,192.21l-.69-.4-.672-2.091.69.4Z" transform="translate(-374.65 -189.718)" fill="#01293c"/>
      </g>
      <g id="Group_6306" data-name="Group 6306" transform="translate(14.625 24.444)">
        <path id="Path_46391" data-name="Path 46391" d="M373.378,184.012l-.69-.4-1.36-4.228.69.4Z" transform="translate(-371.329 -179.383)" fill="#01293c"/>
      </g>
      <g id="Group_6308" data-name="Group 6308" transform="translate(14.917 23.729)" style="isolation: isolate">
        <g id="Group_6307" data-name="Group 6307" style="isolation: isolate">
          <path id="Path_46392" data-name="Path 46392" d="M372.652,178.234l-.69-.4.015.007.69.4-.015-.007Z" transform="translate(-371.962 -177.833)" fill="#013249"/>
        </g>
      </g>
      <g id="Group_6309" data-name="Group 6309" transform="translate(10.971 28.666)">
        <path id="Path_46393" data-name="Path 46393" d="M364.1,188.934l-.69-.4,5.014.006.69.4Z" transform="translate(-363.409 -188.533)" fill="#012b3e"/>
      </g>
      <g id="Group_6311" data-name="Group 6311" transform="translate(20.898 10.946)" style="isolation: isolate">
        <g id="Group_6310" data-name="Group 6310" style="isolation: isolate">
          <path id="Path_46394" data-name="Path 46394" d="M385.615,150.532l-.69-.4a.1.1,0,0,1,.048.014l.69.4a.1.1,0,0,0-.048-.014Z" transform="translate(-384.925 -150.131)" fill="#013249"/>
        </g>
      </g>
      <g id="Group_6312" data-name="Group 6312" transform="translate(10.501 24.253)">
        <path id="Path_46395" data-name="Path 46395" d="M363.082,183.784l-.69-.4,3.818-4.413.69.4Z" transform="translate(-362.392 -178.97)" fill="#013046"/>
      </g>
      <g id="Group_6314" data-name="Group 6314" transform="translate(3.895 38.624)" style="isolation: isolate">
        <g id="Group_6313" data-name="Group 6313" style="isolation: isolate">
          <path id="Path_46396" data-name="Path 46396" d="M348.823,210.71l-.69-.4c-.055-.031-.07-.1-.048-.194l.69.4c-.021.09-.007.162.048.194Z" transform="translate(-348.075 -210.115)" fill="#013249"/>
        </g>
      </g>
      <g id="Group_6315" data-name="Group 6315" transform="translate(5.156 29.207)">
        <path id="Path_46397" data-name="Path 46397" d="M351.5,195.745l-.69-.4,4.877-5.638.69.4Z" transform="translate(-350.808 -189.706)" fill="#013046"/>
      </g>
      <g id="Group_6316" data-name="Group 6316" transform="translate(13.345 20.455)">
        <path id="Path_46398" data-name="Path 46398" d="M370.287,174.388l-.69-.4-1.042-3.249.69.4Z" transform="translate(-368.555 -170.738)" fill="#01293c"/>
      </g>
      <g id="Group_6317" data-name="Group 6317" transform="translate(10.979 23.418)">
        <path id="Path_46399" data-name="Path 46399" d="M364.117,177.56l-.69-.4,3.408.286.69.4Z" transform="translate(-363.427 -177.159)" fill="#012a3d"/>
      </g>
      <g id="Group_6318" data-name="Group 6318" transform="translate(10.557 20.713)">
        <path id="Path_46400" data-name="Path 46400" d="M363.2,174.368l-.69-.4,2.133-2.67.69.4Z" transform="translate(-362.513 -171.297)" fill="#013046"/>
      </g>
      <g id="Group_6319" data-name="Group 6319" transform="translate(6.787 28.662)">
        <path id="Path_46401" data-name="Path 46401" d="M355.033,188.926l-.69-.4,3.714,0,.69.4Z" transform="translate(-354.343 -188.525)" fill="#012b3e"/>
      </g>
      <g id="Group_6320" data-name="Group 6320" transform="translate(6.673 23.904)">
        <path id="Path_46402" data-name="Path 46402" d="M354.786,182.953l-.69-.4,3.468-4.34.69.4Z" transform="translate(-354.096 -178.212)" fill="#013046"/>
      </g>
      <g id="Group_6321" data-name="Group 6321" transform="translate(13.245 16.034)">
        <path id="Path_46403" data-name="Path 46403" d="M369.038,165.213l-.69-.4-.01-3.655.69.4Z" transform="translate(-368.338 -161.157)" fill="#012c3f"/>
      </g>
      <g id="Group_6322" data-name="Group 6322" transform="translate(13.663 11.455)">
        <path id="Path_46404" data-name="Path 46404" d="M369.935,155.274l-.69-.4,6.3-3.639.69.4Z" transform="translate(-369.245 -151.234)" fill="#012f44"/>
      </g>
      <g id="Group_6323" data-name="Group 6323" transform="translate(10.898 19.218)">
        <path id="Path_46405" data-name="Path 46405" d="M363.942,168.459l-.69-.4,2.357.471.69.4Z" transform="translate(-363.252 -168.058)" fill="#012a3c"/>
      </g>
      <g id="Group_6325" data-name="Group 6325" transform="translate(20.872 1.814)" style="isolation: isolate">
        <g id="Group_6324" data-name="Group 6324" style="isolation: isolate">
          <path id="Path_46406" data-name="Path 46406" d="M385.558,130.741l-.69-.4a.112.112,0,0,1,.048.014l.69.4a.11.11,0,0,0-.048-.014Z" transform="translate(-384.868 -130.34)" fill="#013249"/>
        </g>
      </g>
      <g id="Group_6326" data-name="Group 6326" transform="translate(8.382 23.2)">
        <path id="Path_46407" data-name="Path 46407" d="M358.49,177.088l-.69-.4,2.175.183.69.4Z" transform="translate(-357.8 -176.687)" fill="#012a3d"/>
      </g>
      <g id="Group_6327" data-name="Group 6327" transform="translate(10.522 16.095)">
        <path id="Path_46408" data-name="Path 46408" d="M363.127,164.74l-.69-.4,2.247-3.05.69.4Z" transform="translate(-362.437 -161.29)" fill="#013046"/>
      </g>
      <g id="Group_6328" data-name="Group 6328" transform="translate(8.279 20.176)">
        <path id="Path_46409" data-name="Path 46409" d="M358.266,173.134l-.69-.4,4.5-2.6.69.4Z" transform="translate(-357.576 -170.135)" fill="#012f44"/>
      </g>
      <g id="Group_6329" data-name="Group 6329" transform="translate(7.803 19.651)">
        <path id="Path_46410" data-name="Path 46410" d="M357.235,172.583l-.69-.4L358.89,169l.69.4Z" transform="translate(-356.545 -168.996)" fill="#013046"/>
      </g>
      <g id="Group_6330" data-name="Group 6330" transform="translate(3.905 23.498)">
        <path id="Path_46411" data-name="Path 46411" d="M348.786,192.861l-.69-.4,3.479-15.126.69.4Z" transform="translate(-348.096 -177.334)" fill="#012e43"/>
      </g>
      <g id="Group_6331" data-name="Group 6331" transform="translate(13.232 11.469)">
        <path id="Path_46412" data-name="Path 46412" d="M369.01,155.32l-.69-.4-.01-3.655.69.4Z" transform="translate(-368.31 -151.264)" fill="#012c3f"/>
      </g>
      <g id="Group_6332" data-name="Group 6332" transform="translate(13.651 10.625)">
        <path id="Path_46413" data-name="Path 46413" d="M369.908,149.837l-.69-.4,7.247.321.69.4Z" transform="translate(-369.218 -149.436)" fill="#012a3d"/>
      </g>
      <g id="Group_6333" data-name="Group 6333" transform="translate(10.885 14.653)">
        <path id="Path_46414" data-name="Path 46414" d="M363.914,158.566l-.69-.4,2.357.471.69.4Z" transform="translate(-363.224 -158.165)" fill="#012a3c"/>
      </g>
      <g id="Group_6334" data-name="Group 6334" transform="translate(8.267 18.694)">
        <path id="Path_46415" data-name="Path 46415" d="M358.241,167.323l-.69-.4,2.255.451.69.4Z" transform="translate(-357.551 -166.922)" fill="#012a3c"/>
      </g>
      <g id="Group_6335" data-name="Group 6335" transform="translate(10.509 11.528)">
        <path id="Path_46416" data-name="Path 46416" d="M363.1,154.842l-.69-.4,2.247-3.05.69.4Z" transform="translate(-362.409 -151.392)" fill="#013046"/>
      </g>
      <g id="Group_6336" data-name="Group 6336" transform="translate(8.266 15.612)">
        <path id="Path_46417" data-name="Path 46417" d="M358.238,163.242l-.69-.4,4.5-2.6.69.4Z" transform="translate(-357.548 -160.242)" fill="#012f44"/>
      </g>
      <g id="Group_6337" data-name="Group 6337" transform="translate(7.372 19.211)">
        <path id="Path_46418" data-name="Path 46418" d="M356.312,172.731l-.69-.4-.012-4.287.69.4Z" transform="translate(-355.61 -168.043)" fill="#012c3f"/>
      </g>
      <g id="Group_6338" data-name="Group 6338" transform="translate(7.79 15.086)">
        <path id="Path_46419" data-name="Path 46419" d="M357.207,162.69l-.69-.4,2.345-3.185.69.4Z" transform="translate(-356.517 -159.104)" fill="#013046"/>
      </g>
      <g id="Group_6339" data-name="Group 6339" transform="translate(13.219 6.902)">
        <path id="Path_46420" data-name="Path 46420" d="M368.982,145.422l-.69-.4-.01-3.655.69.4Z" transform="translate(-368.281 -141.366)" fill="#012c3f"/>
      </g>
      <g id="Group_6340" data-name="Group 6340" transform="translate(13.638 2.323)">
        <path id="Path_46421" data-name="Path 46421" d="M369.879,135.483l-.69-.4,6.3-3.639.69.4Z" transform="translate(-369.189 -131.443)" fill="#012f44"/>
      </g>
      <g id="Group_6341" data-name="Group 6341" transform="translate(10.872 10.089)">
        <path id="Path_46422" data-name="Path 46422" d="M363.886,148.673l-.69-.4,2.357.469.69.4Z" transform="translate(-363.196 -148.272)" fill="#012a3c"/>
      </g>
      <g id="Group_6342" data-name="Group 6342" transform="translate(8.254 14.127)">
        <path id="Path_46423" data-name="Path 46423" d="M358.213,157.425l-.69-.4,2.255.451.69.4Z" transform="translate(-357.523 -157.024)" fill="#012a3c"/>
      </g>
      <g id="Group_6343" data-name="Group 6343" transform="translate(10.496 6.963)">
        <path id="Path_46424" data-name="Path 46424" d="M363.071,144.95l-.69-.4,2.247-3.05.69.4Z" transform="translate(-362.381 -141.499)" fill="#013046"/>
      </g>
      <g id="Group_6344" data-name="Group 6344" transform="translate(8.253 11.044)">
        <path id="Path_46425" data-name="Path 46425" d="M358.21,153.344l-.69-.4,4.5-2.6.69.4Z" transform="translate(-357.52 -150.344)" fill="#012f44"/>
      </g>
      <g id="Group_6345" data-name="Group 6345" transform="translate(7.359 14.809)">
        <path id="Path_46426" data-name="Path 46426" d="M356.284,162.822l-.69-.4-.011-3.918.69.4Z" transform="translate(-355.583 -158.503)" fill="#012c3f"/>
      </g>
      <g id="Group_6346" data-name="Group 6346" transform="translate(7.777 10.522)">
        <path id="Path_46427" data-name="Path 46427" d="M357.179,152.795l-.69-.4,2.345-3.183.69.4Z" transform="translate(-356.489 -149.211)" fill="#013046"/>
      </g>
      <g id="Group_6347" data-name="Group 6347" transform="translate(13.206 2.337)">
        <path id="Path_46428" data-name="Path 46428" d="M368.954,135.53l-.69-.4-.01-3.655.69.4Z" transform="translate(-368.254 -131.474)" fill="#012c3f"/>
      </g>
      <g id="Group_6348" data-name="Group 6348" transform="translate(13.583 1.465)">
        <path id="Path_46429" data-name="Path 46429" d="M369.761,129.984l-.69-.4,7.289.349.69.4Z" transform="translate(-369.071 -129.583)" fill="#012a3d"/>
      </g>
      <g id="Group_6349" data-name="Group 6349" transform="translate(10.859 5.521)">
        <path id="Path_46430" data-name="Path 46430" d="M363.858,138.775l-.69-.4,2.357.471.69.4Z" transform="translate(-363.168 -138.374)" fill="#012a3c"/>
      </g>
      <g id="Group_6350" data-name="Group 6350" transform="translate(1.067 18.728)">
        <path id="Path_46431" data-name="Path 46431" d="M342.635,171.035l-.69-.4,6.3-3.639.69.4Z" transform="translate(-341.946 -166.995)" fill="#012f44"/>
      </g>
      <g id="Group_6351" data-name="Group 6351" transform="translate(8.242 9.562)">
        <path id="Path_46432" data-name="Path 46432" d="M358.185,147.533l-.69-.4,2.255.451.69.4Z" transform="translate(-357.495 -147.132)" fill="#012a3c"/>
      </g>
      <g id="Group_6352" data-name="Group 6352" transform="translate(10.483 2.398)">
        <path id="Path_46433" data-name="Path 46433" d="M363.043,135.055l-.69-.4,2.247-3.048.69.4Z" transform="translate(-362.353 -131.606)" fill="#013046"/>
      </g>
      <g id="Group_6354" data-name="Group 6354" transform="translate(0.032 23.267)" style="isolation: isolate">
        <g id="Group_6353" data-name="Group 6353" style="isolation: isolate">
          <path id="Path_46434" data-name="Path 46434" d="M340.449,177.31l-.69-.4a.126.126,0,0,1-.055-.078l.69.4a.126.126,0,0,0,.055.078Z" transform="translate(-339.704 -176.832)" fill="#013249"/>
        </g>
      </g>
      <g id="Group_6355" data-name="Group 6355" transform="translate(8.24 6.48)">
        <path id="Path_46435" data-name="Path 46435" d="M358.182,143.451l-.69-.4,4.5-2.6.69.4Z" transform="translate(-357.492 -140.451)" fill="#012f44"/>
      </g>
      <g id="Group_6356" data-name="Group 6356" transform="translate(0.136 14.259)">
        <path id="Path_46436" data-name="Path 46436" d="M340.618,166.385l-.69-.4,7.222-8.675.69.4Z" transform="translate(-339.928 -157.31)" fill="#013046"/>
      </g>
      <g id="Group_6358" data-name="Group 6358" transform="translate(0.026 22.934)" style="isolation: isolate">
        <g id="Group_6357" data-name="Group 6357" style="isolation: isolate">
          <path id="Path_46437" data-name="Path 46437" d="M340.386,176.844l-.69-.4a.415.415,0,0,1,.1-.333l.69.4a.414.414,0,0,0-.1.333Z" transform="translate(-339.69 -176.11)" fill="#013249"/>
        </g>
      </g>
      <g id="Group_6359" data-name="Group 6359" transform="translate(7.346 10.079)">
        <path id="Path_46438" data-name="Path 46438" d="M356.255,152.833l-.69-.4-.012-4.179.69.4Z" transform="translate(-355.554 -148.252)" fill="#012c3f"/>
      </g>
      <g id="Group_6360" data-name="Group 6360" transform="translate(7.765 5.954)">
        <path id="Path_46439" data-name="Path 46439" d="M357.151,142.9l-.69-.4,2.345-3.185.69.4Z" transform="translate(-356.461 -139.313)" fill="#013046"/>
      </g>
      <g id="Group_6361" data-name="Group 6361" transform="translate(8.229 4.997)">
        <path id="Path_46440" data-name="Path 46440" d="M358.157,137.64l-.69-.4,2.255.449.69.4Z" transform="translate(-357.467 -137.239)" fill="#012a3c"/>
      </g>
      <g id="Group_6362" data-name="Group 6362" transform="translate(8.031 1.802)">
        <path id="Path_46441" data-name="Path 46441" d="M357.729,133.539l-.69-.4,4.893-2.825.69.4Z" transform="translate(-357.039 -130.313)" fill="#012f44"/>
      </g>
      <g id="Group_6363" data-name="Group 6363" transform="translate(7.333 5.677)">
        <path id="Path_46442" data-name="Path 46442" d="M356.227,143.032l-.69-.4-.011-3.918.69.4Z" transform="translate(-355.526 -138.712)" fill="#012c3f"/>
      </g>
      <g id="Group_6364" data-name="Group 6364" transform="translate(10.612 0.011)">
        <path id="Path_46443" data-name="Path 46443" d="M363.322,126.832l-.69-.4,2.971,1.454.69.4Z" transform="translate(-362.632 -126.431)" fill="#01283b"/>
      </g>
      <g id="Group_6366" data-name="Group 6366" transform="translate(10.326)" style="isolation: isolate">
        <g id="Group_6365" data-name="Group 6365" style="isolation: isolate">
          <path id="Path_46444" data-name="Path 46444" d="M362.7,126.984l-.69-.4a.417.417,0,0,1,.142-.146.156.156,0,0,1,.143-.018l.69.4a.154.154,0,0,0-.143.018.417.417,0,0,0-.142.146Z" transform="translate(-362.013 -126.408)" fill="#013249"/>
        </g>
      </g>
      <g id="Group_6367" data-name="Group 6367" transform="translate(7.33 0.175)">
        <path id="Path_46445" data-name="Path 46445" d="M356.209,132.144l-.69-.4,3-4.955.69.4Z" transform="translate(-355.519 -126.788)" fill="#013046"/>
      </g>
      <g id="Group_6368" data-name="Group 6368" transform="translate(1.041 9.596)">
        <path id="Path_46446" data-name="Path 46446" d="M342.579,151.245l-.69-.4,6.3-3.639.69.4Z" transform="translate(-341.889 -147.204)" fill="#012f44"/>
      </g>
      <g id="Group_6370" data-name="Group 6370" transform="translate(0.007 14.135)" style="isolation: isolate">
        <g id="Group_6369" data-name="Group 6369" style="isolation: isolate">
          <path id="Path_46447" data-name="Path 46447" d="M340.393,157.52l-.69-.4a.122.122,0,0,1-.055-.078l.69.4a.122.122,0,0,0,.055.078Z" transform="translate(-339.648 -157.041)" fill="#013249"/>
        </g>
      </g>
      <g id="Group_6371" data-name="Group 6371" transform="translate(0.11 5.13)">
        <path id="Path_46448" data-name="Path 46448" d="M340.561,146.6l-.69-.4,7.22-8.671.69.4Z" transform="translate(-339.872 -137.527)" fill="#013046"/>
      </g>
      <g id="Group_6372" data-name="Group 6372" transform="translate(0.69 0.401)">
        <path id="Path_46449" data-name="Path 46449" d="M362.027,138.223c.084,0,.127.092.1.213a.479.479,0,0,1-.2.3l-7.135,4.12.012,4.287,1.24,3.863a.093.093,0,0,1,.052.047.227.227,0,0,1,.015.161l2.246,6.994a.417.417,0,0,1-.137.381c-.152.1-.236.081-.265-.008l-.671-2.091-5.655-.006-5.517,6.376-.678,2.95a.474.474,0,0,1-.2.289c-.173.05-.236-.051-.2-.2l3.479-15.126-.012-4.287-7.135,4.119c-.1.055-.179.027-.2-.064a.414.414,0,0,1,.1-.333l7.222-8.675-.012-4.18-7.135,4.119c-.1.055-.18.03-.2-.064a.415.415,0,0,1,.1-.333l7.22-8.671,3-4.955a.416.416,0,0,1,.142-.146.154.154,0,0,1,.143-.018l2.971,1.454,7.29.349c.083,0,.127.092.1.213a.474.474,0,0,1-.2.3l-7.135,4.119.012,4.18Zm-14.111,17.716,3.714,0,3.818-4.413-3.759-.314-3.773,4.723Zm9.2.01-1.36-4.229-3.654,4.222,5.014.007ZM342.17,140.513l6.3-3.64-.011-3.918-6.292,7.558Zm12.585-11.191.011,3.918,6.3-3.639-6.315-.279ZM342.2,149.644,348.5,146l-.011-3.918-6.292,7.558Zm12.6-7.273,6.3-3.64-6.315-.279.011,3.918Zm-8.507,19.75,4.877-5.638-3.581,0-1.3,5.642Zm2.562-11.142-1.045,4.54,3.468-4.34-2.423-.2Zm6.669,0-1.042-3.249-2.366,2.963,3.408.286Zm-3.917-23.1L349.16,131.9l4.893-2.825-2.455-1.2Zm.389,4.92,2.357.471-.011-3.655-2.346,3.184Zm.013,4.567,2.357.469-.01-3.655L352,137.366Zm.013,4.565,2.357.471-.01-3.655-2.347,3.184Zm.013,4.565,2.357.471-.01-3.655-2.347,3.184Zm-3.144-13.733.01,3.655,2.344-3.185-2.355-.47Zm.013,4.564.01,3.655,2.345-3.183-2.355-.473Zm.013,4.567.01,3.655,2.345-3.186-2.355-.47Zm.013,4.565.01,3.655,2.345-3.186-2.355-.47Zm.486,3.594,4.5-2.6L351.653,147l-2.245,3.049Zm4.463-16.3-2.257-.45-2.245,3.049,4.5-2.6Zm0,.484-4.5,2.6,2.255.451,2.247-3.05Zm.026,9.132-4.5,2.6,2.255.451,2.247-3.05Zm0-.483-2.257-.45-2.245,3.049,4.5-2.6Zm-.012-4.084-4.5,2.6,2.254.451,2.247-3.05Zm-4.527-6.531,2.255.448,2.247-3.048-4.5,2.6Zm4.526,6.047-2.257-.448-2.245,3.046,4.5-2.6Zm-.065,9.668-4.308,2.487,2.175.183,2.133-2.67Z" transform="translate(-341.129 -127.277)" fill="#024f73"/>
      </g>
      <g id="Group_6374" data-name="Group 6374" transform="translate(0 13.801)" style="isolation: isolate">
        <g id="Group_6373" data-name="Group 6373" style="isolation: isolate">
          <path id="Path_46450" data-name="Path 46450" d="M340.33,157.053l-.69-.4a.415.415,0,0,1,.1-.333l.69.4a.415.415,0,0,0-.1.333Z" transform="translate(-339.634 -156.319)" fill="#013249"/>
        </g>
      </g>
    </g>
  </g>
  <g id="Group_6450" data-name="Group 6450" transform="translate(10.451 3.523)">
    <g id="Group_6449" data-name="Group 6449" style="isolation: isolate">
      <g id="Group_6378" data-name="Group 6378" transform="translate(16.829 31.304)" style="isolation: isolate">
        <g id="Group_6377" data-name="Group 6377" style="isolation: isolate">
          <path id="Path_46451" data-name="Path 46451" d="M399.49,202.349l-.69-.4a.109.109,0,0,1-.046-.062l.69.4a.11.11,0,0,0,.046.062Z" transform="translate(-398.754 -201.886)" fill="#005178"/>
        </g>
      </g>
      <g id="Group_6379" data-name="Group 6379" transform="translate(16.157 29.213)">
        <path id="Path_46452" data-name="Path 46452" d="M398.66,199.845l-.69-.4-.672-2.091.69.4Z" transform="translate(-397.299 -197.353)" fill="#00486b"/>
      </g>
      <g id="Group_6380" data-name="Group 6380" transform="translate(14.625 24.444)">
        <path id="Path_46453" data-name="Path 46453" d="M396.027,191.647l-.69-.4-1.36-4.228.69.4Z" transform="translate(-393.978 -187.018)" fill="#00486b"/>
      </g>
      <g id="Group_6382" data-name="Group 6382" transform="translate(14.917 23.729)" style="isolation: isolate">
        <g id="Group_6381" data-name="Group 6381" style="isolation: isolate">
          <path id="Path_46454" data-name="Path 46454" d="M395.3,185.869l-.69-.4.015.007.69.4-.015-.007Z" transform="translate(-394.611 -185.468)" fill="#005178"/>
        </g>
      </g>
      <g id="Group_6383" data-name="Group 6383" transform="translate(10.971 28.666)">
        <path id="Path_46455" data-name="Path 46455" d="M386.748,196.569l-.69-.4,5.014.006.69.4Z" transform="translate(-386.058 -196.168)" fill="#004b6d"/>
      </g>
      <g id="Group_6385" data-name="Group 6385" transform="translate(20.898 10.946)" style="isolation: isolate">
        <g id="Group_6384" data-name="Group 6384" style="isolation: isolate">
          <path id="Path_46456" data-name="Path 46456" d="M408.264,158.167l-.69-.4a.108.108,0,0,1,.048.014l.69.4a.1.1,0,0,0-.048-.014Z" transform="translate(-407.574 -157.766)" fill="#005178"/>
        </g>
      </g>
      <g id="Group_6386" data-name="Group 6386" transform="translate(10.501 24.253)">
        <path id="Path_46457" data-name="Path 46457" d="M385.731,191.419l-.69-.4,3.818-4.413.69.4Z" transform="translate(-385.041 -186.605)" fill="#004f75"/>
      </g>
      <g id="Group_6388" data-name="Group 6388" transform="translate(3.895 38.624)" style="isolation: isolate">
        <g id="Group_6387" data-name="Group 6387" style="isolation: isolate">
          <path id="Path_46458" data-name="Path 46458" d="M371.472,218.345l-.69-.4c-.054-.031-.07-.1-.048-.194l.69.4c-.021.09-.006.162.048.194Z" transform="translate(-370.724 -217.75)" fill="#005178"/>
        </g>
      </g>
      <g id="Group_6389" data-name="Group 6389" transform="translate(5.156 29.207)">
        <path id="Path_46459" data-name="Path 46459" d="M374.147,203.38l-.69-.4,4.877-5.638.69.4Z" transform="translate(-373.457 -197.341)" fill="#004f75"/>
      </g>
      <g id="Group_6390" data-name="Group 6390" transform="translate(13.345 20.455)">
        <path id="Path_46460" data-name="Path 46460" d="M392.936,182.023l-.69-.4-1.042-3.249.69.4Z" transform="translate(-391.204 -178.373)" fill="#00486b"/>
      </g>
      <g id="Group_6391" data-name="Group 6391" transform="translate(10.979 23.418)">
        <path id="Path_46461" data-name="Path 46461" d="M386.766,185.2l-.69-.4,3.408.286.69.4Z" transform="translate(-386.076 -184.794)" fill="#00496c"/>
      </g>
      <g id="Group_6392" data-name="Group 6392" transform="translate(10.557 20.713)">
        <path id="Path_46462" data-name="Path 46462" d="M385.852,182l-.69-.4,2.133-2.67.69.4Z" transform="translate(-385.162 -178.932)" fill="#004f75"/>
      </g>
      <g id="Group_6393" data-name="Group 6393" transform="translate(6.787 28.662)">
        <path id="Path_46463" data-name="Path 46463" d="M377.682,196.561l-.69-.4,3.714,0,.69.4Z" transform="translate(-376.992 -196.16)" fill="#004b6d"/>
      </g>
      <g id="Group_6394" data-name="Group 6394" transform="translate(6.673 23.904)">
        <path id="Path_46464" data-name="Path 46464" d="M377.435,190.588l-.69-.4,3.468-4.34.69.4Z" transform="translate(-376.745 -185.847)" fill="#004f75"/>
      </g>
      <g id="Group_6395" data-name="Group 6395" transform="translate(13.245 16.034)">
        <path id="Path_46465" data-name="Path 46465" d="M391.687,172.848l-.69-.4-.01-3.655.69.4Z" transform="translate(-390.987 -168.792)" fill="#004c6e"/>
      </g>
      <g id="Group_6396" data-name="Group 6396" transform="translate(13.663 11.455)">
        <path id="Path_46466" data-name="Path 46466" d="M392.584,162.909l-.69-.4,6.3-3.639.69.4Z" transform="translate(-391.894 -158.869)" fill="#004f73"/>
      </g>
      <g id="Group_6397" data-name="Group 6397" transform="translate(10.898 19.218)">
        <path id="Path_46467" data-name="Path 46467" d="M386.591,176.094l-.69-.4,2.357.471.69.4Z" transform="translate(-385.901 -175.693)" fill="#004a6b"/>
      </g>
      <g id="Group_6399" data-name="Group 6399" transform="translate(20.872 1.814)" style="isolation: isolate">
        <g id="Group_6398" data-name="Group 6398" style="isolation: isolate">
          <path id="Path_46468" data-name="Path 46468" d="M408.207,138.376l-.69-.4a.106.106,0,0,1,.048.014l.69.4a.11.11,0,0,0-.048-.014Z" transform="translate(-407.517 -137.975)" fill="#005178"/>
        </g>
      </g>
      <g id="Group_6400" data-name="Group 6400" transform="translate(8.382 23.2)">
        <path id="Path_46469" data-name="Path 46469" d="M381.139,184.723l-.69-.4,2.175.183.69.4Z" transform="translate(-380.449 -184.322)" fill="#00496c"/>
      </g>
      <g id="Group_6401" data-name="Group 6401" transform="translate(10.522 16.095)">
        <path id="Path_46470" data-name="Path 46470" d="M385.776,172.376l-.69-.4,2.247-3.05.69.4Z" transform="translate(-385.086 -168.925)" fill="#004f75"/>
      </g>
      <g id="Group_6402" data-name="Group 6402" transform="translate(8.279 20.176)">
        <path id="Path_46471" data-name="Path 46471" d="M380.915,180.77l-.69-.4,4.5-2.6.69.4Z" transform="translate(-380.225 -177.77)" fill="#004f73"/>
      </g>
      <g id="Group_6403" data-name="Group 6403" transform="translate(7.803 19.651)">
        <path id="Path_46472" data-name="Path 46472" d="M379.884,180.218l-.69-.4,2.345-3.185.69.4Z" transform="translate(-379.194 -176.631)" fill="#004f75"/>
      </g>
      <g id="Group_6404" data-name="Group 6404" transform="translate(3.905 23.498)">
        <path id="Path_46473" data-name="Path 46473" d="M371.435,200.5l-.69-.4,3.479-15.126.69.4Z" transform="translate(-370.745 -184.969)" fill="#004d72"/>
      </g>
      <g id="Group_6405" data-name="Group 6405" transform="translate(13.232 11.469)">
        <path id="Path_46474" data-name="Path 46474" d="M391.659,162.955l-.69-.4-.01-3.655.69.4Z" transform="translate(-390.959 -158.899)" fill="#004c6e"/>
      </g>
      <g id="Group_6406" data-name="Group 6406" transform="translate(13.651 10.625)">
        <path id="Path_46475" data-name="Path 46475" d="M392.557,157.472l-.69-.4,7.247.321.69.4Z" transform="translate(-391.867 -157.071)" fill="#00496c"/>
      </g>
      <g id="Group_6407" data-name="Group 6407" transform="translate(10.885 14.653)">
        <path id="Path_46476" data-name="Path 46476" d="M386.563,166.2l-.69-.4,2.357.471.69.4Z" transform="translate(-385.873 -165.8)" fill="#004a6b"/>
      </g>
      <g id="Group_6408" data-name="Group 6408" transform="translate(8.267 18.694)">
        <path id="Path_46477" data-name="Path 46477" d="M380.89,174.958l-.69-.4,2.255.451.69.4Z" transform="translate(-380.2 -174.557)" fill="#004a6b"/>
      </g>
      <g id="Group_6409" data-name="Group 6409" transform="translate(10.509 11.528)">
        <path id="Path_46478" data-name="Path 46478" d="M385.748,162.478l-.69-.4,2.247-3.05.69.4Z" transform="translate(-385.058 -159.027)" fill="#004f75"/>
      </g>
      <g id="Group_6410" data-name="Group 6410" transform="translate(8.266 15.612)">
        <path id="Path_46479" data-name="Path 46479" d="M380.887,170.877l-.69-.4,4.5-2.6.69.4Z" transform="translate(-380.197 -167.877)" fill="#004f73"/>
      </g>
      <g id="Group_6411" data-name="Group 6411" transform="translate(7.372 19.211)">
        <path id="Path_46480" data-name="Path 46480" d="M378.961,180.366l-.69-.4-.012-4.287.69.4Z" transform="translate(-378.259 -175.678)" fill="#004c6e"/>
      </g>
      <g id="Group_6412" data-name="Group 6412" transform="translate(7.79 15.086)">
        <path id="Path_46481" data-name="Path 46481" d="M379.856,170.325l-.69-.4,2.345-3.185.69.4Z" transform="translate(-379.166 -166.739)" fill="#004f75"/>
      </g>
      <g id="Group_6413" data-name="Group 6413" transform="translate(13.219 6.902)">
        <path id="Path_46482" data-name="Path 46482" d="M391.631,153.057l-.69-.4L390.93,149l.69.4Z" transform="translate(-390.93 -149.001)" fill="#004c6e"/>
      </g>
      <g id="Group_6414" data-name="Group 6414" transform="translate(13.638 2.323)">
        <path id="Path_46483" data-name="Path 46483" d="M392.528,143.118l-.69-.4,6.3-3.639.69.4Z" transform="translate(-391.838 -139.078)" fill="#004f73"/>
      </g>
      <g id="Group_6415" data-name="Group 6415" transform="translate(10.872 10.089)">
        <path id="Path_46484" data-name="Path 46484" d="M386.535,156.308l-.69-.4,2.357.469.69.4Z" transform="translate(-385.845 -155.907)" fill="#004a6b"/>
      </g>
      <g id="Group_6416" data-name="Group 6416" transform="translate(8.254 14.127)">
        <path id="Path_46485" data-name="Path 46485" d="M380.862,165.06l-.69-.4,2.255.451.69.4Z" transform="translate(-380.172 -164.659)" fill="#004a6b"/>
      </g>
      <g id="Group_6417" data-name="Group 6417" transform="translate(10.496 6.963)">
        <path id="Path_46486" data-name="Path 46486" d="M385.72,152.585l-.69-.4,2.247-3.05.69.4Z" transform="translate(-385.03 -149.134)" fill="#004f75"/>
      </g>
      <g id="Group_6418" data-name="Group 6418" transform="translate(8.253 11.044)">
        <path id="Path_46487" data-name="Path 46487" d="M380.859,160.979l-.69-.4,4.5-2.6.69.4Z" transform="translate(-380.169 -157.979)" fill="#004f73"/>
      </g>
      <g id="Group_6419" data-name="Group 6419" transform="translate(7.359 14.809)">
        <path id="Path_46488" data-name="Path 46488" d="M378.933,170.457l-.69-.4-.011-3.918.69.4Z" transform="translate(-378.232 -166.138)" fill="#004c6e"/>
      </g>
      <g id="Group_6420" data-name="Group 6420" transform="translate(7.778 10.522)">
        <path id="Path_46489" data-name="Path 46489" d="M379.828,160.43l-.69-.4,2.345-3.183.69.4Z" transform="translate(-379.138 -156.846)" fill="#004f75"/>
      </g>
      <g id="Group_6421" data-name="Group 6421" transform="translate(13.206 2.337)">
        <path id="Path_46490" data-name="Path 46490" d="M391.6,143.165l-.69-.4-.01-3.655.69.4Z" transform="translate(-390.902 -139.109)" fill="#004c6e"/>
      </g>
      <g id="Group_6422" data-name="Group 6422" transform="translate(13.583 1.465)">
        <path id="Path_46491" data-name="Path 46491" d="M392.41,137.619l-.69-.4,7.289.349.69.4Z" transform="translate(-391.72 -137.218)" fill="#00496c"/>
      </g>
      <g id="Group_6423" data-name="Group 6423" transform="translate(10.859 5.521)">
        <path id="Path_46492" data-name="Path 46492" d="M386.507,146.41l-.69-.4,2.357.471.69.4Z" transform="translate(-385.817 -146.009)" fill="#004a6b"/>
      </g>
      <g id="Group_6424" data-name="Group 6424" transform="translate(1.067 18.728)">
        <path id="Path_46493" data-name="Path 46493" d="M365.284,178.67l-.69-.4,6.3-3.639.69.4Z" transform="translate(-364.595 -174.63)" fill="#004f73"/>
      </g>
      <g id="Group_6425" data-name="Group 6425" transform="translate(8.242 9.562)">
        <path id="Path_46494" data-name="Path 46494" d="M380.834,155.168l-.69-.4,2.255.451.69.4Z" transform="translate(-380.144 -154.767)" fill="#004a6b"/>
      </g>
      <g id="Group_6426" data-name="Group 6426" transform="translate(10.483 2.398)">
        <path id="Path_46495" data-name="Path 46495" d="M385.692,142.69l-.69-.4,2.247-3.048.69.4Z" transform="translate(-385.002 -139.241)" fill="#004f75"/>
      </g>
      <g id="Group_6428" data-name="Group 6428" transform="translate(0.032 23.267)" style="isolation: isolate">
        <g id="Group_6427" data-name="Group 6427" style="isolation: isolate">
          <path id="Path_46496" data-name="Path 46496" d="M363.1,184.945l-.69-.4a.125.125,0,0,1-.055-.078l.69.4a.126.126,0,0,0,.055.078Z" transform="translate(-362.353 -184.467)" fill="#005178"/>
        </g>
      </g>
      <g id="Group_6429" data-name="Group 6429" transform="translate(8.24 6.48)">
        <path id="Path_46497" data-name="Path 46497" d="M380.831,151.086l-.69-.4,4.5-2.6.69.4Z" transform="translate(-380.141 -148.086)" fill="#004f73"/>
      </g>
      <g id="Group_6430" data-name="Group 6430" transform="translate(0.136 14.259)">
        <path id="Path_46498" data-name="Path 46498" d="M363.267,174.021l-.69-.4,7.222-8.675.69.4Z" transform="translate(-362.577 -164.945)" fill="#004f75"/>
      </g>
      <g id="Group_6432" data-name="Group 6432" transform="translate(0.026 22.934)" style="isolation: isolate">
        <g id="Group_6431" data-name="Group 6431" style="isolation: isolate">
          <path id="Path_46499" data-name="Path 46499" d="M363.035,184.479l-.69-.4a.415.415,0,0,1,.1-.333l.69.4a.414.414,0,0,0-.1.333Z" transform="translate(-362.339 -183.745)" fill="#005178"/>
        </g>
      </g>
      <g id="Group_6433" data-name="Group 6433" transform="translate(7.346 10.079)">
        <path id="Path_46500" data-name="Path 46500" d="M378.9,160.468l-.69-.4-.012-4.179.69.4Z" transform="translate(-378.203 -155.887)" fill="#004c6e"/>
      </g>
      <g id="Group_6434" data-name="Group 6434" transform="translate(7.765 5.954)">
        <path id="Path_46501" data-name="Path 46501" d="M379.8,150.534l-.69-.4,2.345-3.185.69.4Z" transform="translate(-379.11 -146.948)" fill="#004f75"/>
      </g>
      <g id="Group_6435" data-name="Group 6435" transform="translate(8.229 4.997)">
        <path id="Path_46502" data-name="Path 46502" d="M380.806,145.275l-.69-.4,2.255.448.69.4Z" transform="translate(-380.116 -144.874)" fill="#004a6b"/>
      </g>
      <g id="Group_6436" data-name="Group 6436" transform="translate(8.031 1.802)">
        <path id="Path_46503" data-name="Path 46503" d="M380.378,141.174l-.69-.4,4.893-2.825.69.4Z" transform="translate(-379.688 -137.948)" fill="#004f73"/>
      </g>
      <g id="Group_6437" data-name="Group 6437" transform="translate(7.333 5.677)">
        <path id="Path_46504" data-name="Path 46504" d="M378.876,150.667l-.69-.4-.011-3.918.69.4Z" transform="translate(-378.175 -146.347)" fill="#004c6e"/>
      </g>
      <g id="Group_6438" data-name="Group 6438" transform="translate(10.612 0.011)">
        <path id="Path_46505" data-name="Path 46505" d="M385.971,134.467l-.69-.4,2.971,1.454.69.4Z" transform="translate(-385.281 -134.066)" fill="#00476a"/>
      </g>
      <g id="Group_6440" data-name="Group 6440" transform="translate(10.326)" style="isolation: isolate">
        <g id="Group_6439" data-name="Group 6439" style="isolation: isolate">
          <path id="Path_46506" data-name="Path 46506" d="M385.352,134.62l-.69-.4a.414.414,0,0,1,.142-.147.156.156,0,0,1,.144-.018l.69.4a.156.156,0,0,0-.144.018.416.416,0,0,0-.142.146Z" transform="translate(-384.662 -134.043)" fill="#005178"/>
        </g>
      </g>
      <g id="Group_6441" data-name="Group 6441" transform="translate(7.33 0.175)">
        <path id="Path_46507" data-name="Path 46507" d="M378.858,139.779l-.69-.4,3-4.955.69.4Z" transform="translate(-378.168 -134.424)" fill="#004f75"/>
      </g>
      <g id="Group_6442" data-name="Group 6442" transform="translate(1.041 9.596)">
        <path id="Path_46508" data-name="Path 46508" d="M365.228,158.88l-.69-.4,6.3-3.639.69.4Z" transform="translate(-364.538 -154.839)" fill="#004f73"/>
      </g>
      <g id="Group_6444" data-name="Group 6444" transform="translate(0.007 14.135)" style="isolation: isolate">
        <g id="Group_6443" data-name="Group 6443" style="isolation: isolate">
          <path id="Path_46509" data-name="Path 46509" d="M363.042,165.155l-.69-.4a.122.122,0,0,1-.055-.078l.69.4a.123.123,0,0,0,.055.078Z" transform="translate(-362.297 -164.676)" fill="#005178"/>
        </g>
      </g>
      <g id="Group_6445" data-name="Group 6445" transform="translate(0.11 5.13)">
        <path id="Path_46510" data-name="Path 46510" d="M363.21,154.234l-.69-.4,7.22-8.671.69.4Z" transform="translate(-362.521 -145.162)" fill="#004f75"/>
      </g>
      <g id="Group_6446" data-name="Group 6446" transform="translate(0.69 0.401)">
        <path id="Path_46511" data-name="Path 46511" d="M384.676,145.859c.084,0,.127.092.1.213a.481.481,0,0,1-.2.3l-7.135,4.119.013,4.287,1.24,3.863a.092.092,0,0,1,.052.047.227.227,0,0,1,.015.161l2.246,6.994a.417.417,0,0,1-.137.381c-.152.1-.236.081-.265-.007l-.671-2.092-5.655-.006-5.517,6.376-.678,2.95a.474.474,0,0,1-.2.289c-.173.05-.236-.051-.2-.2l3.479-15.126-.012-4.287-7.135,4.119c-.1.055-.179.027-.2-.064a.414.414,0,0,1,.1-.333l7.222-8.675-.012-4.18-7.135,4.12c-.1.055-.18.029-.2-.064a.415.415,0,0,1,.1-.333l7.22-8.671,3-4.955a.416.416,0,0,1,.142-.146.156.156,0,0,1,.143-.018l2.971,1.454,7.29.349c.083,0,.127.092.1.213a.474.474,0,0,1-.2.3l-7.135,4.119.012,4.18Zm-14.111,17.716,3.714,0,3.818-4.413-3.759-.314-3.773,4.723Zm9.2.01-1.36-4.228-3.654,4.222,5.014.006Zm-14.944-15.437,6.3-3.64-.011-3.918-6.292,7.558ZM377.4,136.956l.011,3.918,6.3-3.639-6.315-.279Zm-12.559,20.323,6.3-3.639-.011-3.918-6.292,7.558Zm12.6-7.272,6.3-3.639-6.315-.279.011,3.918Zm-8.507,19.75,4.877-5.638-3.581,0-1.3,5.642Zm2.562-11.142-1.045,4.54,3.468-4.34-2.423-.2Zm6.669,0-1.042-3.249-2.366,2.963,3.408.286Zm-3.917-23.1-2.439,4.026,4.893-2.825-2.455-1.2Zm.389,4.92,2.357.471-.011-3.655-2.346,3.184ZM374.65,145l2.357.469-.01-3.655L374.65,145Zm.013,4.565,2.357.471-.01-3.655-2.347,3.184Zm.013,4.565,2.357.471-.01-3.655-2.347,3.184ZM371.532,140.4l.01,3.655,2.344-3.185-2.355-.47Zm.013,4.564.01,3.655,2.345-3.183-2.355-.472Zm.013,4.567.01,3.655L373.913,150l-2.355-.47Zm.013,4.565.01,3.655,2.345-3.186-2.355-.47Zm.486,3.594,4.5-2.6-2.257-.449-2.245,3.049Zm4.463-16.3-2.257-.45-2.245,3.049,4.5-2.6Zm0,.484-4.5,2.6,2.255.451,2.247-3.05Zm.026,9.132-4.5,2.6,2.255.451,2.247-3.05Zm0-.484-2.257-.45-2.245,3.049,4.5-2.6Zm-.012-4.084-4.5,2.6,2.255.451,2.247-3.05Zm-4.527-6.531,2.255.448,2.247-3.048-4.5,2.6Zm4.526,6.047-2.257-.448-2.245,3.046,4.5-2.6Zm-.065,9.668-4.308,2.487,2.175.183,2.133-2.67Z" transform="translate(-363.778 -134.912)" fill="#006ea2"/>
      </g>
      <g id="Group_6448" data-name="Group 6448" transform="translate(0 13.801)" style="isolation: isolate">
        <g id="Group_6447" data-name="Group 6447" style="isolation: isolate">
          <path id="Path_46512" data-name="Path 46512" d="M362.979,164.688l-.69-.4a.415.415,0,0,1,.1-.333l.69.4a.415.415,0,0,0-.1.333Z" transform="translate(-362.283 -163.954)" fill="#005178"/>
        </g>
      </g>
    </g>
  </g>
</svg>
