<svg xmlns="http://www.w3.org/2000/svg" width="37.83" height="29.017" viewBox="0 0 37.83 29.017">
  <path id="Path_68757" data-name="Path 68757" d="M36.371,81.351c-2.185-2.321-3.358-4.924-3.358-9.144,0-7.426,5.213-14.081,12.793-17.371L47.7,57.76c-7.075,3.827-8.459,8.794-9.01,11.925a7.6,7.6,0,0,1,4.093-.66A7.425,7.425,0,0,1,42.2,83.853a8.212,8.212,0,0,1-5.83-2.5Zm21.216,0c-2.185-2.321-3.359-4.924-3.359-9.144,0-7.426,5.213-14.081,12.793-17.371l1.895,2.924c-7.076,3.827-8.459,8.794-9.01,11.925A7.6,7.6,0,0,1,64,69.025a7.425,7.425,0,0,1-.581,14.828,8.212,8.212,0,0,1-5.83-2.5Z" transform="translate(-33.012 -54.836)" fill="#347F95"/>
</svg>
