<svg id="Group_15061" data-name="Group 15061" xmlns="http://www.w3.org/2000/svg" width="31.941" height="31.941" viewBox="0 0 31.941 31.941">
  <rect id="Rectangle_872" data-name="Rectangle 872" width="31.941" height="31.941" rx="10" fill="#fff" opacity="0.2"/>
  <path id="Icon_material-people" data-name="Icon material-people" d="M12.75,12A2.25,2.25,0,1,0,10.5,9.75,2.241,2.241,0,0,0,12.75,12Zm-6,0A2.25,2.25,0,1,0,4.5,9.75,2.241,2.241,0,0,0,6.75,12Zm0,1.5C5,13.5,1.5,14.377,1.5,16.125V18H12V16.125C12,14.378,8.5,13.5,6.75,13.5Zm6,0c-.217,0-.465.015-.727.038A3.165,3.165,0,0,1,13.5,16.125V18H18V16.125C18,14.378,14.5,13.5,12.75,13.5Z" transform="translate(6.221 3.22)" fill="#fff"/>
</svg>
