<svg id="Group_9934" data-name="Group 9934" xmlns="http://www.w3.org/2000/svg" width="148.502" height="117.401" viewBox="0 0 148.502 117.401">
  <g id="Group_9934-2" data-name="Group 9934" transform="translate(19.752 40.353)">
    <path id="Path_56574" data-name="Path 56574" d="M859.9,1058c-.406.607-.806,1.217-1.19,1.839-10.009,16.223-31.192,29.443-51.484,29.443a56.164,56.164,0,0,1-49.712-29.995.071.071,0,0,0-.009-.015q-.486-.924-.94-1.867a26.527,26.527,0,0,1,34.027-35.573q.415.179.833.351a62.352,62.352,0,0,0,42.291,1.852l0,.011a21.966,21.966,0,0,1,6.526-.988c12.138,0,23.308,10.541,23.345,22.679A21.872,21.872,0,0,1,859.9,1058Z" transform="translate(-754.203 -1019.928)" fill="#fbca0c"/>
  </g>
  <path id="Path_56575" data-name="Path 56575" d="M757.894,1051.21c.406-.607.806-1.217,1.19-1.838,10.009-16.223,31.193-29.443,51.484-29.443a56.165,56.165,0,0,1,49.712,29.995.074.074,0,0,0,.008.016q.486.924.94,1.867a26.527,26.527,0,0,1-34.027,35.573q-.415-.179-.833-.351a62.352,62.352,0,0,0-42.291-1.852l0-.011a21.965,21.965,0,0,1-6.526.988c-12.138.005-23.308-10.541-23.345-22.679A21.874,21.874,0,0,1,757.894,1051.21Z" transform="translate(-734.451 -979.575)" fill="#78cfe2"/>
  <g id="Group_9936" data-name="Group 9936" transform="translate(11.261 72.716)">
    <g id="Group_9935" data-name="Group 9935" transform="translate(0)">
      <path id="Path_56576" data-name="Path 56576" d="M620.652,1555.719h0a.318.318,0,0,1,.077.443l-1.552,2.209,2.72,1.929-1.916,2.729,2.72,1.93-1.915,2.729a.318.318,0,0,1-.443.078h0a.318.318,0,0,1-.078-.443l1.552-2.211-2.462-1.747a.318.318,0,0,1-.076-.442l1.734-2.47-2.462-1.746a.318.318,0,0,1-.076-.442l1.733-2.468A.318.318,0,0,1,620.652,1555.719Z" transform="translate(-618.188 -1555.431)" fill="#fbca0c"/>
      <path id="Path_56577" data-name="Path 56577" d="M616.973,1564.495a.549.549,0,0,1-.448-.864l1.42-2.023-2.275-1.615a.549.549,0,0,1-.131-.762l1.6-2.282-2.275-1.614a.55.55,0,0,1-.132-.763l1.733-2.469a.548.548,0,0,1,.764-.133h0a.548.548,0,0,1,.134.764l-1.42,2.022,2.72,1.929-1.916,2.729,2.72,1.93-2.046,2.917a.545.545,0,0,1-.354.225A.556.556,0,0,1,616.973,1564.495Zm-.057-12.163H616.9a.087.087,0,0,0-.056.036l-1.733,2.469a.087.087,0,0,0,.021.121l2.649,1.879-1.866,2.657a.088.088,0,0,0,.021.122l2.65,1.88-1.683,2.4a.088.088,0,0,0,.021.122.091.091,0,0,0,.065.015.089.089,0,0,0,.056-.036l1.783-2.541-2.72-1.93,1.916-2.729-2.72-1.929,1.683-2.4a.087.087,0,0,0-.021-.122h0A.087.087,0,0,0,616.917,1552.331Z" transform="translate(-614.635 -1551.87)" fill="#fbca0c"/>
    </g>
  </g>
  <g id="Group_9937" data-name="Group 9937" transform="translate(131.49 81.732)">
    <path id="Path_56578" data-name="Path 56578" d="M2597.388,1704.874l-.943.184-.184-.943a.318.318,0,1,0-.624.121l.183.943-.943.184a.318.318,0,1,0,.121.624l.944-.183.183.943a.318.318,0,0,0,.624-.121l-.183-.944.943-.183a.318.318,0,0,0-.122-.625Z" transform="translate(-2594.389 -1703.626)" fill="#2c326c"/>
    <path id="Path_56579" data-name="Path 56579" d="M2592.878,1703.673a.55.55,0,0,1-.539-.444l-.139-.717-.717.139a.548.548,0,1,1-.209-1.077l.717-.14-.139-.717a.548.548,0,1,1,1.076-.21l.139.717.717-.139a.548.548,0,1,1,.209,1.077l-.717.14.139.717a.548.548,0,0,1-.539.653Zm-.313-1.7.228,1.169a.088.088,0,0,0,.172-.033l-.228-1.17,1.17-.227a.087.087,0,0,0,.069-.1.087.087,0,0,0-.1-.069l-1.169.228-.228-1.17a.084.084,0,0,0-.037-.056.085.085,0,0,0-.065-.013.087.087,0,0,0-.07.1l.228,1.17-1.17.228a.087.087,0,0,0-.069.1.087.087,0,0,0,.1.069Z" transform="translate(-2590.83 -1700.064)" fill="#2c326c"/>
  </g>
  <path id="Path_56580" data-name="Path 56580" d="M982.77,884.14h-.8l.568-.568a.318.318,0,0,0-.45-.45l-.568.568v-.8a.318.318,0,0,0-.318-.318h0a.318.318,0,0,0-.318.318v.8l-.568-.568a.318.318,0,0,0-.45.45l.568.568h-.8a.318.318,0,0,0-.318.318h0a.318.318,0,0,0,.318.318h.8l-.568.568a.318.318,0,0,0,.45.45l.568-.568v.8a.318.318,0,0,0,.318.318h0a.318.318,0,0,0,.318-.318v-.8l.568.568a.318.318,0,1,0,.45-.45l-.568-.568h.8a.318.318,0,0,0,.318-.318h0A.318.318,0,0,0,982.77,884.14Z" transform="translate(-945.863 -850.572)" fill="#2c326c"/>
  <g id="Group_9939" data-name="Group 9939" transform="translate(97.345 33.933)">
    <g id="Group_9938" data-name="Group 9938">
      <path id="Path_56581" data-name="Path 56581" d="M2035.361,925.654a.706.706,0,0,1-.219-.035.69.69,0,0,1-.466-.518l-1.285-6.065a.7.7,0,0,1,.9-.807l5.9,1.92a.7.7,0,0,1,.25,1.181h0l-4.61,4.145A.692.692,0,0,1,2035.361,925.654Zm-1.29-6.958a.2.2,0,0,0-.128.05.191.191,0,0,0-.06.185l1.285,6.065a.2.2,0,0,0,.321.1l4.61-4.145a.195.195,0,0,0-.07-.33l-5.895-1.919A.194.194,0,0,0,2034.072,918.7Zm6.195,2.447h0Z" transform="translate(-2033.145 -917.963)" fill="#fbca0c"/>
      <path id="Path_56582" data-name="Path 56582" d="M2031.8,922.32a.936.936,0,0,1-.29-.046.919.919,0,0,1-.62-.69l-1.285-6.065a.928.928,0,0,1,1.195-1.074l5.895,1.919a.928.928,0,0,1,.333,1.572l-4.61,4.145A.922.922,0,0,1,2031.8,922.32Zm-1.29-7.46a.467.467,0,0,0-.454.564l1.285,6.065a.467.467,0,0,0,.768.25l4.6-4.133v-.056l-.014.013-4.609,4.145a.425.425,0,0,1-.7-.228l-1.285-6.065a.42.42,0,0,1,.132-.4.425.425,0,0,1,.283-.11.433.433,0,0,1,.134.022l5.894,1.919a.426.426,0,0,1,.167.708v.056l.013-.012a.466.466,0,0,0-.168-.79l-5.895-1.92A.467.467,0,0,0,2030.51,914.86Zm.05.52,1.259,5.943,4.518-4.062Zm-.059-.019Z" transform="translate(-2029.583 -914.399)" fill="#fbca0c"/>
    </g>
  </g>
  <g id="Group_9940" data-name="Group 9940" transform="translate(35.689 109.432)">
    <circle id="Ellipse_3464" data-name="Ellipse 3464" cx="3.08" cy="3.08" r="3.08" transform="matrix(0.16, -0.987, 0.987, 0.16, 0, 6.08)" fill="#2c326c"/>
  </g>
  <g id="Group_9942" data-name="Group 9942" transform="translate(88.172 112.338)">
    <g id="Group_9941" data-name="Group 9941" transform="translate(0 0)">
      <path id="Path_56583" data-name="Path 56583" d="M1885.283,2211.518a.237.237,0,0,1-.1-.037l-2.475-1.625a.251.251,0,0,1-.072-.348l1.625-2.475a.251.251,0,0,1,.348-.072l2.475,1.625a.249.249,0,0,1,.108.159.251.251,0,0,1-.036.189l-1.624,2.474a.252.252,0,0,1-.159.108A.239.239,0,0,1,1885.283,2211.518Zm-2.085-1.944,2.055,1.349,1.349-2.055-2.055-1.349Z" transform="translate(-1882.369 -2206.689)" fill="#fbca0c"/>
      <path id="Path_56584" data-name="Path 56584" d="M1881.768,2208.19a.528.528,0,0,1-.08-.007h0a.467.467,0,0,1-.184-.072l-2.474-1.624a.482.482,0,0,1-.138-.667l1.625-2.475a.481.481,0,0,1,.667-.138l2.475,1.625a.482.482,0,0,1,.138.667l-1.625,2.474a.484.484,0,0,1-.4.217Zm-.85-4.6h0a.016.016,0,0,0-.013.009l-1.625,2.474a.021.021,0,0,0,.006.029l2.474,1.625.008,0h.008a.02.02,0,0,0,.013-.009l1.625-2.475a.021.021,0,0,0,0-.015.019.019,0,0,0-.009-.013l-2.474-1.625A.019.019,0,0,0,1880.919,2203.589Zm.844,4.091-2.441-1.6,1.6-2.44,2.44,1.6Zm-1.8-1.735,1.67,1.1,1.1-1.669-1.67-1.1Z" transform="translate(-1878.812 -2203.127)" fill="#fbca0c"/>
    </g>
  </g>
  <g id="Group_9943" data-name="Group 9943" transform="translate(45.875 65.339)">
    <path id="Path_56585" data-name="Path 56585" d="M1189.989,1440.7l-1.846-3.057c-.144.014-.3.014-.461.014h-2.393v3.042h-1.7v-10.093h4.094c2.581,0,4.066,1.254,4.066,3.446a3.242,3.242,0,0,1-2.091,3.273l2.264,3.374Zm-2.307-4.57c1.557,0,2.451-.663,2.451-2.033,0-1.326-.894-1.961-2.451-1.961h-2.393v3.994Z" transform="translate(-1183.587 -1430.612)" fill="#08144e"/>
    <path id="Path_56586" data-name="Path 56586" d="M1362.133,1430.612v1.528h-5.508v2.739h4.931v1.514h-4.931v2.783h5.681v1.528h-7.382v-10.093Z" transform="translate(-1344.5 -1430.612)" fill="#08144e"/>
    <path id="Path_56587" data-name="Path 56587" d="M1517.158,1430.612l-.014,1.528h-5.061v2.913h4.585v1.514h-4.585v4.138h-1.7v-10.093Z" transform="translate(-1490.5 -1430.612)" fill="#08144e"/>
    <path id="Path_56588" data-name="Path 56588" d="M1653.855,1430.612v1.528h-5.508v2.739h4.931v1.514h-4.931v2.783h5.68v1.528h-7.382v-10.093Z" transform="translate(-1618.474 -1430.612)" fill="#08144e"/>
    <path id="Path_56589" data-name="Path 56589" d="M1808.506,1440.7l-1.846-3.057c-.144.014-.3.014-.461.014h-2.393v3.042h-1.7v-10.093h4.095c2.581,0,4.066,1.254,4.066,3.446a3.242,3.242,0,0,1-2.091,3.273l2.264,3.374Zm-2.307-4.57c1.557,0,2.451-.663,2.451-2.033,0-1.326-.894-1.961-2.451-1.961h-2.393v3.994Z" transform="translate(-1764.474 -1430.612)" fill="#08144e"/>
    <path id="Path_56590" data-name="Path 56590" d="M2030.8,1438.427h-5.089l-.966,2.278h-1.773l4.455-10.093h1.744l4.412,10.093h-1.816Zm-.649-1.514-1.9-4.484-1.9,4.484Z" transform="translate(-1971.901 -1430.612)" fill="#08144e"/>
  </g>
  <g id="Group_9944" data-name="Group 9944" transform="translate(45.875 79.083)">
    <path id="Path_56591" data-name="Path 56591" d="M1191.43,1656.515l-.017,1.769h-5.857v3.371h5.307v1.752h-5.307v4.789h-1.969v-11.681Z" transform="translate(-1183.587 -1656.515)" fill="#fff"/>
    <path id="Path_56592" data-name="Path 56592" d="M1348.711,1668.2l-2.136-3.537c-.167.017-.35.017-.534.017h-2.77v3.521H1341.3v-11.681h4.74c2.987,0,4.706,1.452,4.706,3.988a3.752,3.752,0,0,1-2.42,3.788l2.62,3.9Zm-2.67-5.29c1.8,0,2.837-.768,2.837-2.353,0-1.535-1.035-2.269-2.837-2.269h-2.77v4.622Z" transform="translate(-1331.707 -1656.515)" fill="#fff"/>
    <path id="Path_56593" data-name="Path 56593" d="M1541.581,1656.515V1668.2h-1.969v-11.681Z" transform="translate(-1517.952 -1656.515)" fill="#fff"/>
    <path id="Path_56594" data-name="Path 56594" d="M1630.787,1656.515v1.769h-6.374v3.171h5.707v1.752h-5.707v3.221h6.575v1.769h-8.544v-11.681Z" transform="translate(-1595.744 -1656.515)" fill="#fff"/>
    <path id="Path_56595" data-name="Path 56595" d="M1804.311,1656.515l6.258,8.394v-8.394h1.936V1668.2h-1.936l-6.224-8.377v8.377h-1.969v-11.681Z" transform="translate(-1764.729 -1656.515)" fill="#fff"/>
    <path id="Path_56596" data-name="Path 56596" d="M2030.441,1662.356a5.777,5.777,0,0,1-6.091,5.84h-4.739v-11.681h4.789A5.744,5.744,0,0,1,2030.441,1662.356Zm-1.986.016a3.982,3.982,0,0,0-4.088-4.088h-2.787v8.144h2.871A3.916,3.916,0,0,0,2028.455,1662.372Z" transform="translate(-1968.747 -1656.515)" fill="#fff"/>
  </g>
  <g id="Group_9948" data-name="Group 9948" transform="translate(0 43.537)">
    <g id="Group_9947" data-name="Group 9947">
      <g id="Group_9946" data-name="Group 9946">
        <path id="Path_56597" data-name="Path 56597" d="M447.367,1172.449a.591.591,0,0,1-.141-.017,1.647,1.647,0,0,1,.781-3.2.593.593,0,0,1-.281,1.152.461.461,0,0,0-.219.9.593.593,0,0,1-.14,1.169Z" transform="translate(-444.97 -1163.288)" fill="#2c326c"/>
        <path id="Path_56598" data-name="Path 56598" d="M439.164,1206.106a.584.584,0,0,1-.141-.017,1.647,1.647,0,0,1,.78-3.2.593.593,0,1,1-.281,1.152.461.461,0,0,0-.218.9.593.593,0,0,1-.14,1.169Z" transform="translate(-437.266 -1194.896)" fill="#2c326c"/>
        <g id="Group_9945" data-name="Group 9945">
          <path id="Path_56599" data-name="Path 56599" d="M468.433,1081.854a.6.6,0,0,1-.141-.017l-4.254-1.038a.593.593,0,0,1-.426-.4l-1.343-4.326a.592.592,0,0,1-.01-.316l.424-1.74a.461.461,0,1,0-.9-.219.581.581,0,0,1-.025.078,8.7,8.7,0,0,0-.609,3.4l.012.536a.593.593,0,0,1-.733.589l-4.5-1.1a.461.461,0,1,0-.219.9.593.593,0,1,1-.281,1.152,1.647,1.647,0,0,1,.78-3.2l3.75.915a9.874,9.874,0,0,1,.68-3.6,1.647,1.647,0,0,1,3.189.824l-.386,1.581,1.195,3.848,3.928.958a.593.593,0,0,1-.14,1.169Z" transform="translate(-452.68 -1072.26)" fill="#2c326c"/>
          <path id="Path_56600" data-name="Path 56600" d="M443.867,1241.986a.609.609,0,0,1-.141-.017l-3.561-.869a1.649,1.649,0,0,1-1.38.6l-5.8-1.415-2.177-.53a1.647,1.647,0,1,1,.78-3.2.593.593,0,0,1-.281,1.152.461.461,0,0,0-.219.9l2.177.53,5.716,1.394a2.544,2.544,0,0,0,.55-.474.594.594,0,0,1,.584-.183l3.892.949a.593.593,0,0,1-.14,1.169Zm-4.926-1.445Z" transform="translate(-429.548 -1226.512)" fill="#2c326c"/>
        </g>
      </g>
    </g>
  </g>
  <g id="Group_9950" data-name="Group 9950" transform="translate(124.15 25.883)">
    <path id="Path_56601" data-name="Path 56601" d="M2572.043,1039.51a.593.593,0,0,1-.484-.251l-3.388-4.8a.593.593,0,1,1,.969-.683l3.12,4.423,1.349-.529-.289-.409a.593.593,0,0,1-.575-.244l-2.24-3.176a.593.593,0,1,1,.969-.683l1.982,2.809a.593.593,0,0,1,.575.244l.983,1.394a.593.593,0,0,1-.268.894l-2.485.975A.593.593,0,0,1,2572.043,1039.51Z" transform="translate(-2562.107 -1017.643)" fill="#2c326c"/>
    <path id="Path_56602" data-name="Path 56602" d="M2556.377,999.081a.594.594,0,0,1-.485-.251l-.74-1.049a.593.593,0,0,1,.143-.826l2.549-1.8a.592.592,0,0,1,.826.143l1.48,2.1a.593.593,0,0,1-.353.92l-3.289.749A.591.591,0,0,1,2556.377,999.081Zm.087-1.5.169.24,2.039-.464-.628-.89Z" transform="translate(-2549.881 -982.092)" fill="#2c326c"/>
    <g id="Group_9949" data-name="Group 9949" transform="translate(0 1.313)">
      <path id="Path_56603" data-name="Path 56603" d="M2473.16,820.245a.586.586,0,0,1-.1-.009.594.594,0,0,1-.384-.243l-2.382-3.378a.593.593,0,0,1,.143-.826l5.238-3.695,5.4-8.173a.593.593,0,0,1,.99.654l-5.466,8.266a.583.583,0,0,1-.152.158l-4.845,3.417,1.7,2.409,4.843-3.416a.594.594,0,0,1,.2-.091l9.623-2.375a.593.593,0,0,1,.284,1.151l-9.515,2.348-5.237,3.694A.59.59,0,0,1,2473.16,820.245Z" transform="translate(-2470.185 -803.656)" fill="#2c326c"/>
    </g>
    <path id="Path_56604" data-name="Path 56604" d="M2653.412,794.05a.938.938,0,0,1-.158-.014.912.912,0,0,1-.593-.375l-6.685-9.478a.917.917,0,0,1,.221-1.278l.93-.656a.918.918,0,0,1,1.278.221l6.685,9.478a.917.917,0,0,1-.221,1.278h0l-.93.656A.909.909,0,0,1,2653.412,794.05Zm-6.312-10.331,6.375,9.039.49-.346-6.375-9.038Zm7.427,9.022Zm-.343-.484h0Z" transform="translate(-2635.123 -782.082)" fill="#2c326c"/>
    <path id="Path_56605" data-name="Path 56605" d="M2519.119,974.009a.592.592,0,0,1-.485-.251l-2.64-3.744a.593.593,0,1,1,.969-.684l2.64,3.744a.593.593,0,0,1-.484.935Z" transform="translate(-2513.104 -957.702)" fill="#2c326c"/>
  </g>
  <g id="Group_9952" data-name="Group 9952" transform="translate(140.467 23.753)">
    <path id="Path_56606" data-name="Path 56606" d="M2763.754,800.787a.593.593,0,0,1-.342-1.078l3.326-2.346a.593.593,0,1,1,.684.969l-3.326,2.346A.59.59,0,0,1,2763.754,800.787Z" transform="translate(-2761.653 -794.202)" fill="#fbca0c"/>
    <g id="Group_9951" data-name="Group 9951">
      <path id="Path_56607" data-name="Path 56607" d="M2738.973,751.525a.593.593,0,0,1-.486-.932l2.269-3.261a.593.593,0,1,1,.973.677l-2.269,3.261A.592.592,0,0,1,2738.973,751.525Z" transform="translate(-2738.38 -747.078)" fill="#fbca0c"/>
      <path id="Path_56608" data-name="Path 56608" d="M2788.53,856.034a.593.593,0,0,1-.155-1.165l3.834-1.043a.593.593,0,0,1,.311,1.144l-3.833,1.043A.6.6,0,0,1,2788.53,856.034Z" transform="translate(-2784.922 -847.311)" fill="#fbca0c"/>
    </g>
  </g>
  <path id="Path_56609" data-name="Path 56609" d="M1733.946,644.9a3.534,3.534,0,0,1-1.6-.381.593.593,0,1,1,.538-1.057,2.309,2.309,0,0,0,1.058.252,2.336,2.336,0,1,0-1.519-4.11.593.593,0,0,1-.772-.9,3.522,3.522,0,1,1,2.291,6.2Z" transform="translate(-1652.242 -617.77)" fill="#2c326c"/>
  <path id="Path_56610" data-name="Path 56610" d="M1715.427,764.214a.593.593,0,0,1-.593-.593,3.719,3.719,0,0,0-6.637-2.3.593.593,0,1,1-.93-.736,4.9,4.9,0,0,1,8.753,3.04A.593.593,0,0,1,1715.427,764.214Z" transform="translate(-1629.411 -731.278)" fill="#2c326c"/>
  <path id="Path_56611" data-name="Path 56611" d="M1478.048,644.9a3.522,3.522,0,1,1,0-7.043,3.489,3.489,0,0,1,2.153.734.593.593,0,0,1-.726.938,2.312,2.312,0,0,0-1.427-.486,2.336,2.336,0,1,0,0,4.671,2.312,2.312,0,0,0,1.046-.246.593.593,0,0,1,.532,1.06A3.485,3.485,0,0,1,1478.048,644.9Z" transform="translate(-1410.95 -617.77)" fill="#2c326c"/>
  <path id="Path_56612" data-name="Path 56612" d="M1452.388,764.214a.593.593,0,0,1-.593-.593,4.9,4.9,0,0,1,8.872-2.883.593.593,0,1,1-.959.7,3.719,3.719,0,0,0-6.727,2.186A.593.593,0,0,1,1452.388,764.214Z" transform="translate(-1389.603 -731.278)" fill="#2c326c"/>
  <g id="Group_9953" data-name="Group 9953" transform="translate(67.395 19.902)">
    <path id="Path_56613" data-name="Path 56613" d="M1576.068,644.717a4.949,4.949,0,1,1,4.948-4.949A4.954,4.954,0,0,1,1576.068,644.717Zm0-8.711a3.763,3.763,0,1,0,3.763,3.763A3.767,3.767,0,0,0,1576.068,636.006Z" transform="translate(-1569.062 -634.82)" fill="#2c326c"/>
    <path id="Path_56614" data-name="Path 56614" d="M1550.729,811.711a.593.593,0,0,1-.593-.593,5.82,5.82,0,0,0-11.639,0,.593.593,0,1,1-1.186,0,7.005,7.005,0,0,1,14.011,0A.593.593,0,0,1,1550.729,811.711Z" transform="translate(-1537.311 -793.813)" fill="#2c326c"/>
  </g>
  <path id="Path_56615" data-name="Path 56615" d="M1450.834,326.415a.594.594,0,0,1-.531-.329l-1.921-3.867h-2.962l-1.376,2.383a.593.593,0,0,1-1.027,0l-1.377-2.385a3.974,3.974,0,0,1-3.867-3.968V311.67a3.974,3.974,0,0,1,3.97-3.97h18.308a3.974,3.974,0,0,1,3.97,3.97v6.579a3.974,3.974,0,0,1-3.97,3.97h-.023l-1.376,2.383a.593.593,0,0,1-1.027,0l-1.376-2.383h-2.961l-1.922,3.867A.592.592,0,0,1,1450.834,326.415Zm-5.756-5.382h3.672a.593.593,0,0,1,.531.329l1.554,3.128,1.554-3.128a.593.593,0,0,1,.531-.329h3.671a.593.593,0,0,1,.514.3l1.034,1.791,1.034-1.791a.593.593,0,0,1,.513-.3h.365a2.787,2.787,0,0,0,2.784-2.784V311.67a2.787,2.787,0,0,0-2.784-2.784h-18.308a2.787,2.787,0,0,0-2.784,2.784v6.579a2.787,2.787,0,0,0,2.784,2.784h.241a.593.593,0,0,1,.513.3l1.034,1.79,1.034-1.79A.593.593,0,0,1,1445.078,321.033Z" transform="translate(-1376.434 -307.7)" fill="#fbca0c"/>
</svg>
