<svg xmlns="http://www.w3.org/2000/svg" width="189.059" height="200.137" viewBox="0 0 189.059 200.137"><g transform="translate(-184.342 -1269.773)"><g transform="translate(184.842 1350.848)"><path d="M142.557,0H40.5A8.5,8.5,0,0,0,32,8.5V110.557a8.5,8.5,0,0,0,8.5,8.5H142.557a8.5,8.5,0,0,0,8.5-8.5V8.5A8.5,8.5,0,0,0,142.557,0Z" transform="translate(-9.889)" fill="rgba(52,127,149,0.1)"/><g transform="translate(36.569 45.924)"><path d="M53.252,54H168.061a4.252,4.252,0,0,1,4.252,4.252V79.513a4.252,4.252,0,0,1-4.252,4.252H53.252A4.252,4.252,0,0,1,49,79.513V58.252A4.252,4.252,0,0,1,53.252,54Z" transform="translate(-49 -54)" fill="#fff" stroke="rgba(112,112,112,0.08)" stroke-width="1"/></g><path d="M123.663,62H101.551a2.551,2.551,0,0,0,0,5.1h22.111a2.551,2.551,0,1,0,0-5.1Z" transform="translate(-19.909 -9.273)" fill="#5ebcd8"/><path d="M138.971,75H101.551a2.551,2.551,0,0,0,0,5.1h37.419a2.551,2.551,0,0,0,0-5.1Z" transform="translate(-19.909 -11.217)" fill="#dee9fc"/><path d="M78.079,78.158A8.079,8.079,0,1,0,70,70.079,8.079,8.079,0,0,0,78.079,78.158Z" transform="translate(-15.572 -9.273)" fill="#347f95"/><g transform="translate(0 82.492)"><path d="M10.252,97H125.061a4.252,4.252,0,0,1,4.252,4.252v21.261a4.251,4.251,0,0,1-4.252,4.252H10.252A4.252,4.252,0,0,1,6,122.513V101.252A4.252,4.252,0,0,1,10.252,97Z" transform="translate(-6 -97)" fill="#fff" stroke="rgba(112,112,112,0.08)" stroke-width="1"/></g><path d="M80.663,105H58.551a2.551,2.551,0,1,0,0,5.1H80.663a2.551,2.551,0,1,0,0-5.1Z" transform="translate(-13.478 -15.704)" fill="#5ebcd8"/><path d="M95.971,118H58.551a2.551,2.551,0,1,0,0,5.1H95.971a2.551,2.551,0,1,0,0-5.1Z" transform="translate(-13.478 -17.649)" fill="#dee9fc"/><path d="M22.079,121.158A8.079,8.079,0,1,0,14,113.079,8.079,8.079,0,0,0,22.079,121.158Z" transform="translate(-7.197 -15.704)" fill="#347f95"/><g transform="translate(0 9.355)"><path d="M125.061,11H10.252A4.252,4.252,0,0,0,6,15.252V36.513a4.252,4.252,0,0,0,4.252,4.252H125.061a4.252,4.252,0,0,0,4.252-4.252V15.252A4.252,4.252,0,0,0,125.061,11Z" transform="translate(-6 -11)" fill="#fff" stroke="rgba(112,112,112,0.08)" stroke-width="1"/></g><path d="M78.663,19H56.551a2.551,2.551,0,0,0,0,5.1H78.663a2.551,2.551,0,0,0,0-5.1Z" transform="translate(-13.179 -2.842)" fill="#5ebcd8"/><path d="M93.971,32H56.551a2.551,2.551,0,0,0,0,5.1H93.971a2.551,2.551,0,0,0,0-5.1Z" transform="translate(-13.179 -4.786)" fill="#dee9fc"/><path d="M35.079,35.158A8.079,8.079,0,1,0,27,27.079,8.079,8.079,0,0,0,35.079,35.158Z" transform="translate(-9.141 -2.842)" fill="#347f95"/><g transform="translate(22.317 20.821)"><path d="M0,0H7.243V7.243H0Z" fill="none"/><path d="M5.115,6.743c-.084-.377-.463-.686-.619-.889a2.453,2.453,0,0,1,.227-3.219,2.189,2.189,0,0,1,3.081,0A2.453,2.453,0,0,1,8.03,5.855a2.488,2.488,0,0,0-.618.889h-2.3Zm2.28.593v.3a.58.58,0,0,1-.566.593H5.7a.58.58,0,0,1-.566-.593v-.3ZM6.546,4.373V3.186L5.273,4.966H5.98V6.152L7.254,4.373H6.546Z" transform="translate(-2.642 -1.322)" fill="#fcfcfc"/></g><g transform="translate(58.886 57.185)"><path d="M0,0H7.243V7.243H0Z" fill="none"/><path d="M5.115,6.743c-.084-.377-.463-.686-.619-.889a2.453,2.453,0,0,1,.227-3.219,2.189,2.189,0,0,1,3.081,0A2.453,2.453,0,0,1,8.03,5.855a2.488,2.488,0,0,0-.618.889h-2.3Zm2.28.593v.3a.58.58,0,0,1-.566.593H5.7a.58.58,0,0,1-.566-.593v-.3ZM6.546,4.373V3.186L5.273,4.966H5.98V6.152L7.254,4.373H6.546Z" transform="translate(-2.642 -1.322)" fill="#fcfcfc"/></g><g transform="translate(11.261 93.753)"><path d="M0,0H7.243V7.243H0Z" fill="none"/><path d="M5.115,6.743c-.084-.377-.463-.686-.619-.889a2.453,2.453,0,0,1,.227-3.219,2.189,2.189,0,0,1,3.081,0A2.453,2.453,0,0,1,8.03,5.855a2.488,2.488,0,0,0-.618.889h-2.3Zm2.28.593v.3a.58.58,0,0,1-.566.593H5.7a.58.58,0,0,1-.566-.593v-.3ZM6.546,4.373V3.186L5.273,4.966H5.98V6.152L7.254,4.373H6.546Z" transform="translate(-2.642 -1.322)" fill="#fcfcfc"/></g></g><g transform="translate(289.878 1269.773)"><g transform="translate(0 0)"><path d="M193.533,260.628H175.627l-12.969,112.9h32.423l-17.036,39.313-16.931-6.89H143.209l3.86,54.81,79.02-41.93L200.352,409.9l26.38-54.894-34.738-2.633,25.528-55.762Z" transform="translate(-143.209 -260.628)" fill="#c17c17"/><path d="M175.627,260.628l-30.875,112.9h32.423L160.14,412.845l-16.931-6.89,3.86,54.81,61.114-41.93-31.969-2.31,32.613-61.52-34.739-2.633,25.528-55.762Z" transform="translate(-143.209 -260.628)" fill="#ffe38a"/></g><path d="M176.5,265.355l-32.7,100.45h32.423l-17.036,39.313-13.4-.712.327,48.632L208.8,410.953,175.255,408.8l32.613-61.52-34.739-2.633,25.528-55.762Z" transform="translate(-142.251 -252.9)" fill="#f7b541"/></g></g></svg>