<svg xmlns="http://www.w3.org/2000/svg" width="31.878" height="37.994" viewBox="0 0 31.878 37.994">
  <g id="Group_13467" data-name="Group 13467" transform="translate(0)">
    <g id="Group_5733" data-name="Group 5733" transform="translate(0 0)" style="isolation: isolate">
      <g id="Group_5708" data-name="Group 5708" transform="translate(19.371 22.862)">
        <g id="Group_5707" data-name="Group 5707" style="isolation: isolate">
          <path id="Path_45916" data-name="Path 45916" d="M177.027,185.623l-1.437-.835a31.85,31.85,0,0,0,3.37-4.773l1.437.835a31.89,31.89,0,0,1-3.37,4.773Z" transform="translate(-175.59 -180.015)" fill="#e38e20"/>
        </g>
      </g>
      <g id="Group_5710" data-name="Group 5710" transform="translate(22.74 17.572)">
        <g id="Group_5709" data-name="Group 5709" style="isolation: isolate">
          <path id="Path_45917" data-name="Path 45917" d="M183.367,176.186l-1.437-.835a31.823,31.823,0,0,0,2.443-5.29l1.437.835a31.815,31.815,0,0,1-2.442,5.29Z" transform="translate(-181.93 -170.061)" fill="#e38e20"/>
        </g>
      </g>
      <g id="Group_5711" data-name="Group 5711" transform="translate(11.093 32.523)">
        <path id="Path_45918" data-name="Path 45918" d="M165.63,202.573l-1.437-.835-4.179-3.546,1.437.835Z" transform="translate(-160.014 -198.192)" fill="#e39a20"/>
      </g>
      <g id="Group_5713" data-name="Group 5713" transform="translate(11.138 27.636)">
        <g id="Group_5712" data-name="Group 5712" style="isolation: isolate">
          <path id="Path_45919" data-name="Path 45919" d="M161.537,194.584l-1.437-.835a14,14,0,0,0,4.118-1.633,22.16,22.16,0,0,0,4.114-3.12l1.437.835a22.145,22.145,0,0,1-4.114,3.12,14,14,0,0,1-4.118,1.633Z" transform="translate(-160.1 -188.996)" fill="#e38e20"/>
        </g>
      </g>
      <g id="Group_5714" data-name="Group 5714" transform="translate(25.254 8)">
        <path id="Path_45920" data-name="Path 45920" d="M188.1,152.885l-1.437-.835,5.187,1.8,1.437.835Z" transform="translate(-186.659 -152.05)" fill="#e39a20"/>
      </g>
      <g id="Group_5716" data-name="Group 5716" transform="translate(25.156 8.101)">
        <g id="Group_5715" data-name="Group 5715" style="isolation: isolate">
          <path id="Path_45921" data-name="Path 45921" d="M187.939,162.546l-1.437-.835a21.938,21.938,0,0,0,.634-5.107,13.815,13.815,0,0,0-.661-4.364l1.437.835a13.816,13.816,0,0,1,.661,4.364,21.939,21.939,0,0,1-.634,5.107Z" transform="translate(-186.475 -152.24)" fill="#e38e20"/>
        </g>
      </g>
      <g id="Group_5718" data-name="Group 5718" transform="translate(22.735 5.673)">
        <g id="Group_5717" data-name="Group 5717" style="isolation: isolate">
          <path id="Path_45922" data-name="Path 45922" d="M185.778,150.934l-1.437-.835a6.889,6.889,0,0,0-2.421-2.428l1.437.835a6.893,6.893,0,0,1,2.421,2.428Z" transform="translate(-181.92 -147.671)" fill="#e38e20"/>
        </g>
      </g>
      <g id="Group_5720" data-name="Group 5720" transform="translate(7.706 31.489)">
        <g id="Group_5719" data-name="Group 5719" style="isolation: isolate">
          <path id="Path_45923" data-name="Path 45923" d="M155.079,197.082l-1.437-.835.046.027a6.954,6.954,0,0,0,3.386.873l1.437.835a6.953,6.953,0,0,1-3.385-.873l-.046-.027Z" transform="translate(-153.642 -196.247)" fill="#e38e20"/>
        </g>
      </g>
      <g id="Group_5721" data-name="Group 5721" transform="translate(4.496 29.16)">
        <path id="Path_45924" data-name="Path 45924" d="M149.039,200.7l-1.437-.835.694-8,1.437.835Z" transform="translate(-147.602 -191.864)" fill="#e39a20"/>
      </g>
      <g id="Group_5722" data-name="Group 5722" transform="translate(19.351)">
        <path id="Path_45925" data-name="Path 45925" d="M176.99,142.469l-1.437-.835,6.6-4.636,1.437.835Z" transform="translate(-175.553 -136.997)" fill="#e39a20"/>
      </g>
      <g id="Group_5724" data-name="Group 5724" transform="translate(15.192 6.78)">
        <g id="Group_5723" data-name="Group 5723" style="isolation: isolate">
          <path id="Path_45926" data-name="Path 45926" d="M169.164,151.847l-1.437-.835c2.55-1.472,4.86-1.608,6.529-.639l1.437.835c-1.668-.969-3.979-.833-6.529.639Z" transform="translate(-167.727 -149.754)" fill="#e38e20"/>
        </g>
      </g>
      <g id="Group_5726" data-name="Group 5726" transform="translate(6.049 8.038)">
        <g id="Group_5725" data-name="Group 5725" style="isolation: isolate">
          <path id="Path_45927" data-name="Path 45927" d="M154.636,174.68l-1.437-.835c-1.647-.957-2.667-2.992-2.676-5.884-.016-5.822,4.077-12.915,9.143-15.84l1.437.835c-5.066,2.925-9.159,10.018-9.143,15.84.008,2.892,1.029,4.927,2.675,5.884Z" transform="translate(-150.524 -152.121)" fill="#e38e20"/>
        </g>
      </g>
      <g id="Group_5727" data-name="Group 5727" transform="translate(1.437 0.835)">
        <path id="Path_45928" data-name="Path 45928" d="M172.287,148.364l-5.161,7.765.738,7.173-6.6,2.984-4.145,8.352-4.178-3.546-6.6,4.636.694-8-5.19-1.789,5.163-7.772-.737-7.173,6.6-2.984,4.145-8.351,4.178,3.546,6.6-4.636-.695,8Zm-7.7,13.067a31.822,31.822,0,0,0,2.442-5.29,21.937,21.937,0,0,0,.634-5.107A13.814,13.814,0,0,0,167,146.67a6.661,6.661,0,0,0-5.85-3.33,14,14,0,0,0-4.118,1.632,22.168,22.168,0,0,0-4.114,3.121,32.04,32.04,0,0,0-5.812,10.067,21.906,21.906,0,0,0-.634,5.107,13.8,13.8,0,0,0,.661,4.36,6.88,6.88,0,0,0,2.464,2.457,6.953,6.953,0,0,0,3.385.873,13.993,13.993,0,0,0,4.118-1.633,22.141,22.141,0,0,0,4.114-3.12,31.889,31.889,0,0,0,3.37-4.773Z" transform="translate(-141.846 -138.569)" fill="#fdbb24"/>
      </g>
      <g id="Group_5728" data-name="Group 5728" transform="translate(7.486 7.615)">
        <path id="Path_45929" data-name="Path 45929" d="M162.371,152.583c5.066-2.925,9.19-.576,9.206,5.246s-4.08,12.913-9.147,15.838-9.186.577-9.2-5.245S157.3,155.508,162.371,152.583Z" transform="translate(-153.228 -151.325)" fill="#fec111"/>
      </g>
      <g id="Group_5729" data-name="Group 5729" transform="translate(0 19.599)">
        <path id="Path_45930" data-name="Path 45930" d="M140.579,182.48l-1.437-.835,5.164-7.771,1.437.835Z" transform="translate(-139.142 -173.874)" fill="#fdc724"/>
      </g>
      <g id="Group_5730" data-name="Group 5730" transform="translate(11.028 1.09)">
        <path id="Path_45931" data-name="Path 45931" d="M161.328,148.236l-1.437-.835,4.145-8.352,1.437.835Z" transform="translate(-159.891 -139.049)" fill="#fdc724"/>
      </g>
      <g id="Group_5731" data-name="Group 5731" transform="translate(4.426 12.426)">
        <path id="Path_45932" data-name="Path 45932" d="M149.644,168.385l-1.437-.835-.737-7.173,1.437.835Z" transform="translate(-147.47 -160.377)" fill="#e39a20"/>
      </g>
      <g id="Group_5732" data-name="Group 5732" transform="translate(4.426 9.442)">
        <path id="Path_45933" data-name="Path 45933" d="M148.907,158.582l-1.437-.835,6.6-2.984,1.437.835Z" transform="translate(-147.47 -154.763)" fill="#fdc724"/>
      </g>
    </g>
  </g>
</svg>
