<svg xmlns="http://www.w3.org/2000/svg" width="23.027" height="23.027" viewBox="0 0 23.027 23.027">
  <g id="Group_6848" data-name="Group 6848" transform="translate(-329 -600)">
    <g id="Rectangle_1977" data-name="Rectangle 1977" transform="translate(329.862 600.862)" fill="#fff" stroke="#707070" stroke-width="1" opacity="0">
      <rect width="21.302" height="21.302" stroke="none"/>
      <rect x="0.5" y="0.5" width="20.302" height="20.302" fill="none"/>
    </g>
    <g id="Group_6722" data-name="Group 6722" transform="translate(329 600)">
      <path id="Path_47398" data-name="Path 47398" d="M0,0H23.027V23.027H0Z" fill="none"/>
      <path id="Path_47399" data-name="Path 47399" d="M11.554,17.311a5.757,5.757,0,1,1,5.757-5.757A5.757,5.757,0,0,1,11.554,17.311Zm0-1.919a3.838,3.838,0,1,0-3.838-3.838A3.838,3.838,0,0,0,11.554,15.392ZM10.595,1h1.919V3.878H10.595Zm0,18.23h1.919v2.878H10.595ZM3.413,4.77,4.77,3.413,6.8,5.448,5.448,6.8,3.413,4.771ZM16.3,17.66,17.66,16.3,19.7,18.338,18.338,19.7ZM18.338,3.412,19.7,4.77,17.66,6.8,16.3,5.448l2.035-2.035ZM5.448,16.3,6.8,17.66,4.77,19.7,3.413,18.338Zm16.66-5.709v1.919H19.23V10.595Zm-18.23,0v1.919H1V10.595Z" transform="translate(-0.041 -0.041)" fill="#fff"/>
      <g id="Group_6742" data-name="Group 6742">
        <path id="Path_47400" data-name="Path 47400" d="M0,0H23.027V23.027H0Z" fill="none"/>
        <path id="Path_47401" data-name="Path 47401" d="M11.554,17.311a5.757,5.757,0,1,1,5.757-5.757A5.757,5.757,0,0,1,11.554,17.311ZM10.595,1h1.919V3.878H10.595Zm0,18.23h1.919v2.878H10.595ZM3.413,4.77,4.77,3.413,6.8,5.448,5.448,6.8,3.413,4.771ZM16.3,17.66,17.66,16.3,19.7,18.338,18.338,19.7ZM18.338,3.412,19.7,4.77,17.66,6.8,16.3,5.448l2.035-2.035ZM5.448,16.3,6.8,17.66,4.77,19.7,3.413,18.338Zm16.66-5.709v1.919H19.23V10.595Zm-18.23,0v1.919H1V10.595Z" transform="translate(-0.041 -0.041)" fill="#fff"/>
      </g>
    </g>
  </g>
</svg>
