<svg xmlns="http://www.w3.org/2000/svg" width="25.5" height="17" viewBox="0 0 25.5 17">
  <path id="Icon_awesome-ticket-alt" data-name="Icon awesome-ticket-alt" d="M5.667,8.75H19.833v8.5H5.667ZM23.375,13A2.125,2.125,0,0,0,25.5,15.125v4.25A2.125,2.125,0,0,1,23.375,21.5H2.125A2.125,2.125,0,0,1,0,19.375v-4.25a2.125,2.125,0,0,0,0-4.25V6.625A2.125,2.125,0,0,1,2.125,4.5h21.25A2.125,2.125,0,0,1,25.5,6.625v4.25A2.125,2.125,0,0,0,23.375,13ZM21.25,8.4a1.062,1.062,0,0,0-1.062-1.062H5.313A1.062,1.062,0,0,0,4.25,8.4V17.6a1.062,1.062,0,0,0,1.063,1.063H20.188A1.062,1.062,0,0,0,21.25,17.6Z" transform="translate(0 -4.5)" fill="#fff"/>
</svg>
