<svg id="freepik--Wallet--inject-449" xmlns="http://www.w3.org/2000/svg" width="130.718" height="115.214" viewBox="0 0 130.718 115.214">
  <rect id="Rectangle_1829" data-name="Rectangle 1829" width="35.941" height="18.236" transform="translate(94.778 62.99)" fill="#434343"/>
  <path id="Path_45278" data-name="Path 45278" d="M225.433,387.394a4.081,4.081,0,1,1-4.074-4.074A4.081,4.081,0,0,1,225.433,387.394Z" transform="translate(-98.725 -315.289)" fill="#ebebeb"/>
  <circle id="Ellipse_2696" data-name="Ellipse 2696" cx="2.233" cy="2.233" r="2.233" transform="translate(120.4 69.872)" fill="#dbdbdb"/>
  <rect id="Rectangle_1830" data-name="Rectangle 1830" width="108.781" height="81.22" transform="translate(0.215 30.774)" fill="#434343"/>
  <rect id="Rectangle_1831" data-name="Rectangle 1831" width="108.781" height="81.22" transform="translate(0.219 30.509)" opacity="0.1"/>
  <rect id="Rectangle_1832" data-name="Rectangle 1832" width="97.37" height="46.903" transform="translate(2.627 11.307) rotate(-6.66)" fill="#149852"/>
  <path id="Path_45279" data-name="Path 45279" d="M148.429,286.14l-2.933.343L54.643,297.1l-2.933.343.343,2.926,4.76,40.722.343,2.933,2.933-.343,90.852-10.62,2.926-.343h0Zm2.191,44.005L59.747,340.751l-4.76-40.708,90.852-10.613Z" transform="translate(-49.066 -286.14)" fill="#208851"/>
  <ellipse id="Ellipse_2697" data-name="Ellipse 2697" cx="13.637" cy="15.905" rx="13.637" ry="15.905" transform="translate(38.424 15.289) rotate(-6.67)" fill="#dbdbdb"/>
  <path id="Path_45280" data-name="Path 45280" d="M89.278,329.209a3.647,3.647,0,1,1-1.356-2.454A3.654,3.654,0,0,1,89.278,329.209Z" transform="translate(-58.149 -298.085)" fill="#208851"/>
  <path id="Path_45281" data-name="Path 45281" d="M164.059,320.479a3.654,3.654,0,1,1-4.053-3.2A3.654,3.654,0,0,1,164.059,320.479Z" transform="translate(-80.58 -295.473)" fill="#208851"/>
  <path id="Path_45282" data-name="Path 45282" d="M69.349,360.6l-6.482.756-.756-6.475A6.532,6.532,0,0,1,69.349,360.6Z" transform="translate(-52.185 -306.746)" fill="#dbdbdb"/>
  <path id="Path_45283" data-name="Path 45283" d="M189.429,339.73l.777,6.489-6.475.756A6.532,6.532,0,0,1,189.429,339.73Z" transform="translate(-88.652 -302.214)" fill="#dbdbdb"/>
  <path id="Path_45284" data-name="Path 45284" d="M176.91,291.576l6.482-.756.756,6.468A6.517,6.517,0,0,1,176.91,291.576Z" transform="translate(-86.619 -287.544)" fill="#208851"/>
  <path id="Path_45285" data-name="Path 45285" d="M57.146,312.134l-.756-6.461,6.475-.763A6.517,6.517,0,0,1,57.146,312.134Z" transform="translate(-50.469 -291.77)" fill="#208851"/>
  <path id="Path_45286" data-name="Path 45286" d="M120.59,311.23a.7.7,0,0,1,.7.581l.126,1.092a8.934,8.934,0,0,1,5.075,1.337.77.77,0,0,1,.455.581.7.7,0,0,1-.63.763.658.658,0,0,1-.511-.133,7.918,7.918,0,0,0-4.3-1.3l.9,7.631c4.242.385,6.167,1.736,6.476,4.4.336,2.891-1.848,5.215-5.236,5.726l.245,2.1a.64.64,0,0,1-1.274.126l-.252-2.156a10.235,10.235,0,0,1-6.433-1.925.693.693,0,1,1,.749-1.162,8.821,8.821,0,0,0,5.6,1.855l-.91-7.764c-4.2-.42-6.055-1.722-6.37-4.445s1.827-5.124,5.145-5.6l-.126-1.029a.7.7,0,0,1,.574-.686Zm.609,10.424-.868-7.434c-2.639.364-4.2,2.142-3.969,4.109.224,1.841,1.232,2.891,4.844,3.325Zm1.4,1.519.875,7.5c2.723-.371,4.305-2.156,4.067-4.2C127.318,324.587,126.233,323.551,122.6,323.173Z" transform="translate(-68.039 -293.666)" fill="#ebebeb"/>
  <path id="Path_45287" data-name="Path 45287" d="M151.513,341.383l.133,50.229a5.083,5.083,0,0,1-5.068,5.1l-79.666.21a5.082,5.082,0,0,1-5.089-5.075l-.133-50.229a4.732,4.732,0,0,1,4.711-4.7l80.366-.21A4.732,4.732,0,0,1,151.513,341.383Z" transform="translate(-52.059 -301.306)" fill="#dbdbdb"/>
  <path id="Path_45288" data-name="Path 45288" d="M167.653,403.079a4.676,4.676,0,1,1-1.377-3.307A4.676,4.676,0,0,1,167.653,403.079Z" transform="translate(-81.037 -319.815)" fill="#a6a6a6"/>
  <path id="Path_45289" data-name="Path 45289" d="M175.873,403.052a4.676,4.676,0,1,1-4.683-4.662A4.677,4.677,0,0,1,175.873,403.052Z" transform="translate(-83.503 -319.81)" fill="#347f95"/>
  <rect id="Rectangle_1833" data-name="Rectangle 1833" width="16.864" height="11.656" rx="4.2" transform="translate(17.188 44.187) rotate(-0.15)" fill="#347f95"/>
  <path id="Path_45290" data-name="Path 45290" d="M170.557,355.381h-7.631a3.2,3.2,0,0,1-3.206-3.185h0a3.206,3.206,0,0,1,3.192-3.206h7.624a3.206,3.206,0,0,1,3.206,3.192h0a3.192,3.192,0,0,1-3.185,3.2Z" transform="translate(-81.463 -304.992)" fill="#fff"/>
  <path id="Path_45291" data-name="Path 45291" d="M71.27,380.876l-.7.406a.161.161,0,0,1-.231-.056A.154.154,0,0,1,70.4,381l.945-.581a.175.175,0,0,1,.231.063.2.2,0,0,1,0,.126V385.1a.168.168,0,1,1-.336,0Z" transform="translate(-54.646 -314.413)" fill="#f8f8f8"/>
  <path id="Path_45292" data-name="Path 45292" d="M73.873,384.947l2.275-2.1a1.275,1.275,0,0,0,.42-.938,1.232,1.232,0,0,0-.329-.833,1.246,1.246,0,0,0-.931-.413,1.276,1.276,0,0,0-.854.322l-.238.217a.168.168,0,0,1-.238,0,.161.161,0,0,1,0-.238l.238-.224a1.652,1.652,0,0,1,1.085-.42,1.567,1.567,0,0,1,1.176.525,1.546,1.546,0,0,1,.42,1.064,1.61,1.61,0,0,1-.525,1.19l-1.946,1.771h2.324a.161.161,0,0,1,.168.168.168.168,0,0,1-.168.168H73.992a.161.161,0,0,1-.126-.049A.175.175,0,0,1,73.873,384.947Z" transform="translate(-55.702 -314.389)" fill="#f8f8f8"/>
  <path id="Path_45293" data-name="Path 45293" d="M82.8,380.651l-1.26,1.3a1.663,1.663,0,0,1-.336,3.29,1.6,1.6,0,0,1-1.169-.483.175.175,0,0,1,.245-.245,1.317,1.317,0,0,0,.924.378,1.344,1.344,0,0,0,.924-.385,1.307,1.307,0,0,0-.924-2.233.183.183,0,0,1-.14-.07h0a.175.175,0,0,1,0-.252l1.211-1.253H80.392a.175.175,0,0,1-.175-.175.161.161,0,0,1,.168-.175h2.289a.175.175,0,0,1,.175.175.14.14,0,0,1,0,.077A.155.155,0,0,1,82.8,380.651Z" transform="translate(-57.551 -314.398)" fill="#f8f8f8"/>
  <path id="Path_45294" data-name="Path 45294" d="M88.657,384.241H85.982a.147.147,0,0,1-.105-.035.161.161,0,0,1,0-.238l2.8-3.5h0a.161.161,0,0,1,.238,0,.266.266,0,0,1,.056.077h0v3.381H89.3a.175.175,0,0,1,.175.168.168.168,0,0,1-.168.168h-.329v.833a.175.175,0,0,1-.343,0Zm0-.336v-2.863l-2.31,2.87Z" transform="translate(-59.298 -314.418)" fill="#f8f8f8"/>
  <path id="Path_45295" data-name="Path 45295" d="M98.6,384.722a.168.168,0,0,1,0-.245.175.175,0,0,1,.252,0,1.317,1.317,0,0,0,.924.378,1.3,1.3,0,1,0-.91-2.226.168.168,0,0,1-.245,0,.113.113,0,0,1-.042-.056h0a.135.135,0,0,1,0-.056.292.292,0,0,0,0-.035l.231-1.974a.147.147,0,0,1,.07-.126.16.16,0,0,1,.112-.042h2.275a.175.175,0,0,1,.175.175.168.168,0,0,1-.175.175h-2.1l-.175,1.456a1.65,1.65,0,0,1,.833-.224,1.582,1.582,0,0,1,1.169.476,1.673,1.673,0,0,1,0,2.345,1.744,1.744,0,0,1-1.176.49A1.659,1.659,0,0,1,98.6,384.722Z" transform="translate(-63.113 -314.395)" fill="#f8f8f8"/>
  <path id="Path_45296" data-name="Path 45296" d="M105.079,381.354a1.967,1.967,0,0,1,1.708-1.064.168.168,0,0,1,.175.161.182.182,0,0,1-.168.182,1.638,1.638,0,0,0-1.4.889,3.2,3.2,0,0,0-.35.98,1.6,1.6,0,1,1-.406,1.12,2.419,2.419,0,0,1,0-.322,4.039,4.039,0,0,1,.441-1.946Zm-.119,2.24a.359.359,0,0,0,0,.091.1.1,0,0,1,0,.049,1.3,1.3,0,1,0,0-.168Z" transform="translate(-64.94 -314.38)" fill="#f8f8f8"/>
  <path id="Path_45297" data-name="Path 45297" d="M111.474,384.931l1.8-4.3h-2.345a.168.168,0,0,1,0-.336h2.583a.183.183,0,0,1,.105,0,.189.189,0,0,1,.091.1.164.164,0,0,1,0,.056.139.139,0,0,1,0,.091l-1.883,4.508a.175.175,0,0,1-.154.1.126.126,0,0,1-.07,0A.189.189,0,0,1,111.474,384.931Z" transform="translate(-66.778 -314.38)" fill="#f8f8f8"/>
  <path id="Path_45298" data-name="Path 45298" d="M118.007,380.25a1.015,1.015,0,0,1,.6,1.834,1.61,1.61,0,0,1,1.029,1.491,1.589,1.589,0,1,1-2.2-1.463,1.035,1.035,0,0,1-.406-.826,1,1,0,0,1,.973-1.036Zm0,4.557a1.3,1.3,0,1,1,.014,0Zm0-2.849a.709.709,0,1,1,.007,0Z" transform="translate(-68.487 -314.368)" fill="#f8f8f8"/>
  <path id="Path_45299" data-name="Path 45299" d="M130.385,380.211a1.61,1.61,0,0,1,1.61,1.4v.455a4.053,4.053,0,0,1-.462,1.953,2.038,2.038,0,0,1-1.708,1.064h0a.168.168,0,0,1-.175-.161.175.175,0,0,1,.168-.182,1.658,1.658,0,0,0,1.4-.889,2.918,2.918,0,0,0,.343-.98,1.575,1.575,0,0,1-1.211.539,1.61,1.61,0,1,1,0-3.22Zm1.281,1.6a1.267,1.267,0,1,0-.371.9A1.274,1.274,0,0,0,131.666,381.814Z" transform="translate(-72.171 -314.35)" fill="#f8f8f8"/>
  <path id="Path_45300" data-name="Path 45300" d="M135.18,382.661a3.094,3.094,0,0,1,.469-1.708,1.4,1.4,0,0,1,2.443,0,3.206,3.206,0,0,1,.483,1.708,3.144,3.144,0,0,1-.476,1.708,1.5,1.5,0,0,1-1.218.742,1.526,1.526,0,0,1-1.225-.735A3.143,3.143,0,0,1,135.18,382.661Zm.343,0a2.842,2.842,0,0,0,.42,1.519,1.036,1.036,0,0,0,1.869,0,2.926,2.926,0,0,0,0-3.031,1.155,1.155,0,0,0-.938-.588,1.127,1.127,0,0,0-.931.588A2.8,2.8,0,0,0,135.523,382.661Z" transform="translate(-74.102 -314.365)" fill="#f8f8f8"/>
  <path id="Path_45301" data-name="Path 45301" d="M142.84,380.7l-.7.406a.167.167,0,1,1-.168-.287l.945-.574a.182.182,0,0,1,.231.063.267.267,0,0,1,0,.126v4.487a.168.168,0,1,1-.336,0Z" transform="translate(-76.113 -314.361)" fill="#f8f8f8"/>
  <path id="Path_45302" data-name="Path 45302" d="M145.437,384.772l2.275-2.065a1.274,1.274,0,0,0,.42-.938,1.246,1.246,0,0,0-.329-.84,1.218,1.218,0,0,0-.931-.406,1.274,1.274,0,0,0-.854.322l-.238.217a.168.168,0,0,1-.231-.245l.238-.224a1.645,1.645,0,0,1,1.085-.413,1.547,1.547,0,0,1,1.169.518,1.568,1.568,0,0,1,.427,1.071,1.61,1.61,0,0,1-.525,1.19l-1.953,1.771h2.317a.175.175,0,0,1,0,.343h-2.751a.161.161,0,0,1-.126-.049A.182.182,0,0,1,145.437,384.772Z" transform="translate(-77.163 -314.347)" fill="#f8f8f8"/>
  <path id="Path_45303" data-name="Path 45303" d="M160.334,380.448l-1.26,1.3a1.644,1.644,0,0,1,.84.448,1.663,1.663,0,0,1-1.176,2.835,1.582,1.582,0,0,1-1.162-.483.161.161,0,0,1,0-.245.168.168,0,0,1,.245,0,1.281,1.281,0,0,0,.924.371,1.33,1.33,0,0,0,.931-.378,1.316,1.316,0,0,0-.931-2.233.182.182,0,0,1-.14-.07h0a.175.175,0,0,1,0-.252l1.211-1.253h-1.869a.175.175,0,0,1,0-.35h2.282a.175.175,0,0,1,.175.175.141.141,0,0,1,0,.077A.153.153,0,0,1,160.334,380.448Z" transform="translate(-80.803 -314.335)" fill="#f8f8f8"/>
  <path id="Path_45304" data-name="Path 45304" d="M166.21,384.042h-2.667a.12.12,0,0,1-.105,0,.161.161,0,0,1,0-.238l2.8-3.535h0a.168.168,0,0,1,.238,0,.223.223,0,0,1,.056.084h0v3.374h.329a.168.168,0,0,1,0,.336h-.329v.84a.175.175,0,0,1-.343,0Zm0-.336v-2.87l-2.3,2.87Z" transform="translate(-82.563 -314.359)" fill="#f8f8f8"/>
  <path id="Path_45305" data-name="Path 45305" d="M170.167,384.542a.168.168,0,0,1,0-.245.175.175,0,0,1,.252,0,1.336,1.336,0,0,0,.924.371,1.306,1.306,0,1,0-.931-2.226.161.161,0,0,1-.238,0,.126.126,0,0,1-.049-.056h0a.134.134,0,0,1,0-.056.307.307,0,0,0,0-.035l.238-1.967a.147.147,0,0,1,.07-.126.161.161,0,0,1,.112-.042h2.289a.175.175,0,0,1,.175.175.168.168,0,0,1-.175.175h-2.1l-.175,1.449a1.666,1.666,0,0,1,2,.252,1.616,1.616,0,0,1,.483,1.176,1.666,1.666,0,0,1-.476,1.176,1.7,1.7,0,0,1-1.176.483A1.68,1.68,0,0,1,170.167,384.542Z" transform="translate(-84.581 -314.341)" fill="#f8f8f8"/>
  <path id="Path_45306" data-name="Path 45306" d="M176.645,381.171a2.009,2.009,0,0,1,1.715-1.071.168.168,0,0,1,.175.161.182.182,0,0,1-.168.182,1.68,1.68,0,0,0-1.4.9,3.388,3.388,0,0,0-.343.98,1.6,1.6,0,1,1-.406,1.113,2.4,2.4,0,0,1,0-.315A4.116,4.116,0,0,1,176.645,381.171Zm-.112,2.233a.353.353,0,0,0,0,.091.107.107,0,0,1,0,.049,1.3,1.3,0,1,0,0-.168Z" transform="translate(-86.41 -314.323)" fill="#f8f8f8"/>
  <rect id="Rectangle_1834" data-name="Rectangle 1834" width="42.654" height="2.093" transform="translate(17.28 79.245) rotate(-0.15)" fill="#a6a6a6"/>
  <rect id="Rectangle_1835" data-name="Rectangle 1835" width="30.2" height="2.093" transform="translate(17.292 83.908) rotate(-0.15)" fill="#a6a6a6"/>
  <rect id="Rectangle_1836" data-name="Rectangle 1836" width="21.274" height="2.093" transform="translate(54.045 44.091) rotate(-0.15)" fill="#a6a6a6"/>
  <rect id="Rectangle_1837" data-name="Rectangle 1837" width="94.962" height="46.539" transform="translate(7.125 49.682)" fill="#347f95"/>
  <rect id="Rectangle_1838" data-name="Rectangle 1838" width="94.962" height="46.539" transform="translate(7.125 49.682)" opacity="0.2"/>
  <rect id="Rectangle_1839" data-name="Rectangle 1839" width="94.962" height="46.539" transform="translate(7.125 57.95)" fill="#347f95"/>
  <rect id="Rectangle_1840" data-name="Rectangle 1840" width="94.962" height="46.539" transform="translate(7.125 57.95)" opacity="0.3"/>
  <rect id="Rectangle_1841" data-name="Rectangle 1841" width="94.962" height="38.013" transform="translate(7.125 66.477)" fill="#347f95"/>
  <rect id="Rectangle_1842" data-name="Rectangle 1842" width="94.962" height="38.013" transform="translate(7.125 66.477)" opacity="0.2"/>
  <path id="Path_45307" data-name="Path 45307" d="M148.873,414.546,48.22,411.326V330.12l3.171,2.352a10.641,10.641,0,0,0,5.215,2.037h92.266Z" transform="translate(-48.019 -299.332)" fill="#434343"/>
  <rect id="Rectangle_1843" data-name="Rectangle 1843" width="0.7" height="1.4" transform="matrix(0.616, -0.788, 0.788, 0.616, 0, 34.719)" fill="#fff"/>
  <path id="Path_45308" data-name="Path 45308" d="M57.558,340.906a10.7,10.7,0,0,1-1.148-.182l.147-.7a10.432,10.432,0,0,0,1.043.175h1.638v.7Zm3.8,0v-.7h2.8v.7Zm4.9,0v-.7h2.8v.7Zm4.9,0v-.7h2.8v.7Zm4.9,0v-.7h2.8v.7Zm4.9,0v-.7h2.8v.7Zm4.9,0v-.7h2.8v.7Zm4.9,0v-.7h2.8v.7Zm4.9,0v-.7h2.8v.7Zm4.9,0v-.7h2.8v.7Zm4.9,0v-.7h2.8v.7Zm4.9,0v-.7h2.8v.7Zm4.9,0v-.7h2.8v.7Zm4.9,0v-.7h2.8v.7Zm4.9,0v-.7h2.8v.7Zm4.9,0v-.7h2.8v.7Zm4.9,0v-.7h2.8v.7Zm4.9,0v-.7h2.8v.7Zm-85.441-.847a11.034,11.034,0,0,1-2.394-1.4l-.07-.056.434-.553.07.056a10.369,10.369,0,0,0,2.24,1.337Z" transform="translate(-49.111 -301.71)" fill="#fff"/>
  <path id="Path_45309" data-name="Path 45309" d="M185.89,342.82h-.7v-1.05h-1.05v-.7h1.75Z" transform="translate(-88.788 -302.616)" fill="#fff"/>
  <path id="Path_45310" data-name="Path 45310" d="M186.34,412.312h-.7v-2.8h.7Zm0-4.851h-.7V404.7h.7Zm0-4.844h-.7v-2.8h.7Zm0-4.845h-.7v-2.8h.7Zm0-4.851h-.7v-2.765h.7Zm0-4.844h-.7v-2.8h.7Zm0-4.851h-.7v-2.772h.7Zm0-4.844h-.7v-2.8h.7Zm0-4.844h-.7v-2.8h.7Zm0-4.851h-.7v-2.8h.7Zm0-4.844h-.7v-2.8h.7Zm0-4.851h-.7v-2.765h.7Zm0-4.844h-.7v-2.8h.7Zm0-4.844h-.7v-2.8h.7Z" transform="translate(-89.238 -304.245)" fill="#fff"/>
  <path id="Path_45311" data-name="Path 45311" d="M185.884,445.237l-1.764-.056.028-.7,1.036.035V443.48h.7Z" transform="translate(-88.782 -333.334)" fill="#fff"/>
  <path id="Path_45312" data-name="Path 45312" d="M142.776,444.229l-2.758-.091v-.7l2.758.091Zm-4.823-.161-2.758-.091v-.7l2.758.091Zm-4.83-.161-2.751-.091v-.7l2.758.091Zm-4.823-.161-2.758-.091v-.7l2.758.091Zm-4.823-.161-2.758-.091v-.7l2.751.091Zm-4.823-.161-2.758-.091v-.7l2.758.091Zm-4.823-.161-2.758-.091v-.7l2.758.091ZM109,443.1l-2.751-.091v-.7l2.758.091Zm-4.844-.14-2.758-.091v-.7l2.758.091Zm-4.823-.161-2.758-.091v-.7l2.751.091Zm-4.823-.161-2.758-.091v-.7l2.758.091Zm-4.823-.161-2.758-.091v-.7l2.758.091Zm-4.83-.161-2.751-.091v-.7l2.758.091Zm-4.823-.161-2.758-.091v-.7l2.758.091ZM75.208,442l-2.758-.091v-.7l2.751.091Zm-4.823-.161-2.758-.091v-.7l2.758.091Zm-4.823-.161-2.709-.112v-.7l2.758.091Zm-4.809-.182L58,441.4v-.7l2.758.091Zm-4.823-.161-2.758-.091v-.7l2.758.091Z" transform="translate(-49.503 -332.452)" fill="#fff"/>
  <rect id="Rectangle_1844" data-name="Rectangle 1844" width="0.7" height="1.4" transform="translate(0.197 108.658) rotate(-88.1)" fill="#fff"/>
  <path id="Path_45313" data-name="Path 45313" d="M176.049,390.074a3.978,3.978,0,1,1-3.941-4.494A4.247,4.247,0,0,1,176.049,390.074Z" transform="translate(-83.995 -315.967)" fill="#ebebeb"/>
  <path id="Path_45314" data-name="Path 45314" d="M174.844,391.1a1.848,1.848,0,1,1-1.834-2.1A1.974,1.974,0,0,1,174.844,391.1Z" transform="translate(-84.896 -316.993)" fill="#dbdbdb"/>
</svg>
