<svg xmlns="http://www.w3.org/2000/svg" width="48" height="48" viewBox="0 0 48 48">
  <g id="Group_15902" data-name="Group 15902" transform="translate(-7249 -7416)">
    <circle id="Ellipse_4018" data-name="Ellipse 4018" cx="24" cy="24" r="24" transform="translate(7249 7416)" fill="#f3f7f8"/>
    <g id="Group_15899" data-name="Group 15899" transform="translate(7261.225 7427.477)">
      <path id="Path_68760" data-name="Path 68760" d="M17.74,22.75H7.63a.76.76,0,0,1-.71-.49.744.744,0,0,1,.22-.83,2.778,2.778,0,0,0,.62-.74,3.149,3.149,0,0,0,.48-1.68,3.243,3.243,0,0,0-5.28-2.53.756.756,0,0,1-.79.09.744.744,0,0,1-.42-.68V11.52A4.511,4.511,0,0,1,6.26,7.01H17.74a4.511,4.511,0,0,1,4.51,4.51v1.44a.755.755,0,0,1-.75.75H19.48a1.229,1.229,0,0,0-.9.37l-.01.01a1.262,1.262,0,0,0-.38,1.02A1.394,1.394,0,0,0,19.6,16.3h1.9a.755.755,0,0,1,.75.75v1.19A4.511,4.511,0,0,1,17.74,22.75Zm-8.56-1.5h8.56a3.013,3.013,0,0,0,3.01-3.01V17.8H19.6a2.879,2.879,0,0,1-2.91-2.56,2.815,2.815,0,0,1,2.79-3.04h1.27v-.69A3.013,3.013,0,0,0,17.74,8.5H6.26a3.013,3.013,0,0,0-3.01,3.01v3.08A4.738,4.738,0,0,1,9.75,19,4.728,4.728,0,0,1,9.18,21.25Z" fill="#347f95"/>
      <path id="Path_68761" data-name="Path 68761" d="M2.5,13.16a.755.755,0,0,1-.75-.75V7.84A3.629,3.629,0,0,1,4.08,4.47l7.94-3A2.646,2.646,0,0,1,15.6,3.95v3.8a.75.75,0,0,1-1.5,0V3.95A1.141,1.141,0,0,0,13.6,3a1.118,1.118,0,0,0-1.06-.13l-7.94,3A2.124,2.124,0,0,0,3.24,7.84v4.57A.734.734,0,0,1,2.5,13.16Z" fill="#347f95"/>
      <path id="Path_68762" data-name="Path 68762" d="M19.6,17.8a2.879,2.879,0,0,1-2.91-2.56,2.8,2.8,0,0,1,2.78-3.04h2.08a1.775,1.775,0,0,1,1.75,1.77v2.06a1.77,1.77,0,0,1-1.72,1.77Zm1.93-4.1H19.48a1.229,1.229,0,0,0-.9.37,1.259,1.259,0,0,0-.39,1.04A1.394,1.394,0,0,0,19.6,16.3h1.96a.265.265,0,0,0,.25-.27V13.97A.278.278,0,0,0,21.53,13.7Z" fill="#347f95"/>
      <path id="Path_68763" data-name="Path 68763" d="M14,12.75H7a.75.75,0,0,1,0-1.5h7a.75.75,0,0,1,0,1.5Z" fill="#347f95"/>
      <path id="Path_68764" data-name="Path 68764" d="M5,23.75A4.721,4.721,0,0,1,.94,21.44,4.612,4.612,0,0,1,.25,19a4.712,4.712,0,0,1,1.78-3.71A4.753,4.753,0,0,1,9.75,19a4.672,4.672,0,0,1-.69,2.45,4.225,4.225,0,0,1-.95,1.12A4.593,4.593,0,0,1,5,23.75Zm0-8A3.266,3.266,0,0,0,1.75,19a3.169,3.169,0,0,0,.47,1.67,3.224,3.224,0,0,0,4.91.77,2.879,2.879,0,0,0,.64-.76A3.149,3.149,0,0,0,8.25,19,3.256,3.256,0,0,0,5,15.75Z" fill="#347f95"/>
      <path id="Path_68765" data-name="Path 68765" d="M6.49,19.73H3.5a.75.75,0,0,1,0-1.5H6.49a.75.75,0,0,1,0,1.5Z" fill="#347f95"/>
      <path id="Path_68766" data-name="Path 68766" d="M5,21.26a.755.755,0,0,1-.75-.75V17.52a.75.75,0,0,1,1.5,0v2.99A.749.749,0,0,1,5,21.26Z" fill="#347f95"/>
    </g>
  </g>
</svg>
