<svg xmlns="http://www.w3.org/2000/svg" width="40" height="40" viewBox="0 0 40 40">
  <g id="Group_14940" data-name="Group 14940" transform="translate(0 -3)">
    <rect id="Rectangle_43" data-name="Rectangle 43" width="40" height="40" rx="12" transform="translate(0 3)" fill="#fff"/>
    <g id="Group_14783" data-name="Group 14783" transform="translate(10.522 13.522)">
      <path id="Path_45515" data-name="Path 45515" d="M0,0H18.955V18.955H0Z" fill="none"/>
      <path id="Path_45516" data-name="Path 45516" d="M2,7.739H17.006a.79.79,0,0,1,.79.79v7.9a.79.79,0,0,1-.79.79H2.79a.79.79,0,0,1-.79-.79ZM2.79,3H14.637V6.159H2V3.79A.79.79,0,0,1,2.79,3Zm9.478,8.688v1.58h2.369v-1.58Z" transform="translate(-0.42 -0.631)" fill="#347f95"/>
    </g>
  </g>
</svg>
