<svg xmlns="http://www.w3.org/2000/svg" width="63.584" height="47.658" viewBox="0 0 63.584 47.658">
  <g id="Group_15243" data-name="Group 15243" transform="translate(-1208.078 -709.09)">
    <g id="Group_11934" data-name="Group 11934" transform="translate(1224.355 711.008)">
      <g id="Group_11917" data-name="Group 11917" transform="translate(2.902 42.308)">
        <rect id="Rectangle_5791" data-name="Rectangle 5791" width="3.622" height="2.349" transform="translate(0.791 0) rotate(19.687)" fill="#63b3db"/>
      </g>
      <g id="Group_11919" data-name="Group 11919" transform="translate(2.88 20.669)">
        <g id="Group_11918" data-name="Group 11918">
          <path id="Path_58194" data-name="Path 58194" d="M1693.726,370.863a1.887,1.887,0,0,1-1.07-.97l-4.507-9.528a1.887,1.887,0,0,1,3.412-1.614l3.7,7.823,7.817-3.7a1.887,1.887,0,1,1,1.614,3.412l-9.523,4.5A1.887,1.887,0,0,1,1693.726,370.863Z" transform="translate(-1687.967 -357.67)" fill="#f8d56b"/>
        </g>
      </g>
      <g id="Group_11921" data-name="Group 11921" transform="translate(0.91 31.836)">
        <g id="Group_11920" data-name="Group 11920">
          <path id="Path_58195" data-name="Path 58195" d="M1677.257,453.82h0a6.208,6.208,0,0,1-3.754-7.936l1.5-4.18,11.691,4.183-1.5,4.18A6.208,6.208,0,0,1,1677.257,453.82Z" transform="translate(-1673.138 -441.703)" fill="#415763"/>
        </g>
      </g>
      <g id="Group_11923" data-name="Group 11923" transform="translate(0.699 28.535)">
        <g id="Group_11922" data-name="Group 11922">
          <path id="Path_58196" data-name="Path 58196" d="M1685.539,425.255l-12.666-4.532a1.989,1.989,0,0,1-1.2-2.543h0a1.989,1.989,0,0,1,2.543-1.2l12.667,4.532a1.989,1.989,0,0,1,1.2,2.543h0A1.989,1.989,0,0,1,1685.539,425.255Z" transform="translate(-1671.553 -416.86)" fill="#63b3db"/>
        </g>
      </g>
      <g id="Group_11925" data-name="Group 11925" transform="translate(3.264 20.428)">
        <g id="Group_11924" data-name="Group 11924">
          <path id="Path_58197" data-name="Path 58197" d="M1692.109,359.517a1.887,1.887,0,0,1,.7-3.663l17.379.546a1.887,1.887,0,0,1-.118,3.772l-17.379-.546A1.886,1.886,0,0,1,1692.109,359.517Z" transform="translate(-1690.858 -355.853)" fill="#f8d56b"/>
        </g>
      </g>
      <g id="Group_11927" data-name="Group 11927" transform="translate(0 15.356)">
        <g id="Group_11926" data-name="Group 11926">
          <path id="Path_58198" data-name="Path 58198" d="M1667.545,321.352a1.887,1.887,0,0,1,.7-3.663l25.109.788a1.887,1.887,0,0,1-.118,3.772l-25.109-.788A1.889,1.889,0,0,1,1667.545,321.352Z" transform="translate(-1666.294 -317.688)" fill="#f8d56b"/>
        </g>
      </g>
      <g id="Group_11929" data-name="Group 11929" transform="translate(4.65 10.07)">
        <g id="Group_11928" data-name="Group 11928">
          <path id="Path_58199" data-name="Path 58199" d="M1702.535,281.569a1.887,1.887,0,0,1,.7-3.663l19.654.617a1.887,1.887,0,1,1-.118,3.772l-19.654-.617A1.892,1.892,0,0,1,1702.535,281.569Z" transform="translate(-1701.284 -277.905)" fill="#f8d56b"/>
        </g>
      </g>
      <g id="Group_11931" data-name="Group 11931" transform="translate(6.478 4.961)">
        <g id="Group_11930" data-name="Group 11930">
          <path id="Path_58200" data-name="Path 58200" d="M1716.29,243.125a1.887,1.887,0,0,1,.7-3.663l16.343.513a1.887,1.887,0,1,1-.118,3.772l-16.343-.513A1.883,1.883,0,0,1,1716.29,243.125Z" transform="translate(-1715.039 -239.461)" fill="#f8d56b"/>
        </g>
      </g>
      <g id="Group_11933" data-name="Group 11933" transform="translate(9.464)">
        <g id="Group_11932" data-name="Group 11932">
          <path id="Path_58201" data-name="Path 58201" d="M1738.762,205.793a1.887,1.887,0,0,1,.7-3.663l9.34.293a1.887,1.887,0,0,1-.118,3.772l-9.34-.293A1.887,1.887,0,0,1,1738.762,205.793Z" transform="translate(-1737.511 -202.129)" fill="#f8d56b"/>
        </g>
      </g>
    </g>
    <g id="Group_11937" data-name="Group 11937" transform="translate(1208.078 709.09)">
      <path id="Path_58204" data-name="Path 58204" d="M1552.552,194.009l-4.895.007,3.476-6.317h-3.816l-3.524,8.726h4.888l-3.81,6.857Z" transform="translate(-1543.794 -187.699)" fill="#001319"/>
    </g>
    <g id="Group_12147" data-name="Group 12147" transform="translate(1265.273 726.186)">
      <g id="Group_12143" data-name="Group 12143" transform="translate(3.706 0)">
        <path id="Path_58302" data-name="Path 58302" d="M2002.923,318.992a.835.835,0,0,1-.6-1.419l.959-.981a.835.835,0,0,1,1.195,1.168l-.958.981A.834.834,0,0,1,2002.923,318.992Z" transform="translate(-2002.088 -316.341)" fill="#001319"/>
      </g>
      <g id="Group_12144" data-name="Group 12144" transform="translate(0 0.054)">
        <path id="Path_58303" data-name="Path 58303" d="M1976.012,319.373a.834.834,0,0,1-.584-.238l-.981-.959a.835.835,0,0,1,1.168-1.195l.981.959a.835.835,0,0,1-.584,1.433Z" transform="translate(-1974.196 -316.743)" fill="#001319"/>
      </g>
      <g id="Group_12145" data-name="Group 12145" transform="translate(0.053 3.738)">
        <path id="Path_58304" data-name="Path 58304" d="M1975.433,347.119a.835.835,0,0,1-.6-1.419l.959-.981a.835.835,0,1,1,1.195,1.167l-.959.981A.833.833,0,0,1,1975.433,347.119Z" transform="translate(-1974.598 -344.468)" fill="#001319"/>
      </g>
      <g id="Group_12146" data-name="Group 12146" transform="translate(3.738 3.706)">
        <path id="Path_58305" data-name="Path 58305" d="M2004.139,346.862a.833.833,0,0,1-.584-.238l-.981-.959a.835.835,0,1,1,1.167-1.195l.981.959a.835.835,0,0,1-.583,1.433Z" transform="translate(-2002.323 -344.233)" fill="#001319"/>
      </g>
    </g>
  </g>
</svg>
