<svg id="Group_12092" data-name="Group 12092" xmlns="http://www.w3.org/2000/svg" width="32.975" height="15.614" viewBox="0 0 32.975 15.614">
  <g id="Group_12085" data-name="Group 12085" transform="translate(6.78)">
    <g id="Group_12084" data-name="Group 12084">
      <path id="Path_58258" data-name="Path 58258" d="M1481.189,1221.416h-10.636a1.132,1.132,0,1,1,0-2.264h10.636a1.132,1.132,0,0,1,0,2.264Z" transform="translate(-1469.421 -1219.152)" fill="#0d3643"/>
    </g>
  </g>
  <g id="Group_12087" data-name="Group 12087" transform="translate(12.098 13.35)">
    <g id="Group_12086" data-name="Group 12086">
      <path id="Path_58259" data-name="Path 58259" d="M1510.938,1296.1H1500.3a1.132,1.132,0,0,1,0-2.263h10.636a1.132,1.132,0,1,1,0,2.263Z" transform="translate(-1499.17 -1293.832)" fill="#0d3643"/>
    </g>
  </g>
  <g id="Group_12089" data-name="Group 12089" transform="translate(0 6.313)">
    <g id="Group_12088" data-name="Group 12088">
      <path id="Path_58260" data-name="Path 58260" d="M1443.26,1256.729h-10.636a1.132,1.132,0,1,1,0-2.264h10.636a1.132,1.132,0,1,1,0,2.264Z" transform="translate(-1431.492 -1254.465)" fill="#0d3643"/>
    </g>
  </g>
  <g id="Group_12091" data-name="Group 12091" transform="translate(20.076 6.313)">
    <g id="Group_12090" data-name="Group 12090">
      <path id="Path_58261" data-name="Path 58261" d="M1555.562,1256.729h-10.636a1.132,1.132,0,1,1,0-2.264h10.636a1.132,1.132,0,0,1,0,2.264Z" transform="translate(-1543.794 -1254.465)" fill="#0d3643"/>
    </g>
  </g>
</svg>
