<svg xmlns="http://www.w3.org/2000/svg" width="67.266" height="41.799" viewBox="0 0 67.266 41.799">
  <g id="Group_15265" data-name="Group 15265" transform="translate(-865.73 -143.203)">
    <g id="Group_11939" data-name="Group 11939" transform="translate(921.215 145.451)">
      <path id="Path_58206" data-name="Path 58206" d="M1121.455,1548l-6.584.01,4.676-8.5h-5.133l-4.74,11.739h6.576l-5.125,9.224Z" transform="translate(-1109.674 -1539.507)" fill="#0d3643"/>
    </g>
    <g id="Group_11942" data-name="Group 11942" transform="translate(865.73 164.104)">
      <path id="Path_58209" data-name="Path 58209" d="M1947.511,1474.936l-3.932.006,2.792-5.075h-3.065l-2.831,7.01h3.927l-3.06,5.508Z" transform="translate(-1940.476 -1469.866)" fill="#0d3643"/>
    </g>
    <g id="Group_11982" data-name="Group 11982" transform="translate(883.102 143.203)">
      <g id="Group_11973" data-name="Group 11973" transform="translate(0 2.406)">
        <rect id="Rectangle_5800" data-name="Rectangle 5800" width="23.424" height="34.417" transform="translate(0 6.206) rotate(-15.363)" fill="#415763"/>
      </g>
      <g id="Group_11974" data-name="Group 11974" transform="translate(4.472 0)">
        <rect id="Rectangle_5801" data-name="Rectangle 5801" width="11.908" height="5.211" transform="translate(0 3.155) rotate(-15.363)" fill="#415763"/>
      </g>
      <g id="Group_11975" data-name="Group 11975" transform="translate(12.917 16.139)">
        <path id="Path_58220" data-name="Path 58220" d="M898.116,324.381l-4.126,1.127,1.485-6.124-3.218.874-.579,7.639,4.123-1.12-2.037,7.184Z" transform="translate(-891.678 -319.384)" fill="#f8d56b"/>
      </g>
      <g id="Group_11981" data-name="Group 11981" transform="translate(9.16 6.432)">
        <g id="Group_11978" data-name="Group 11978" transform="translate(0 0)">
          <g id="Group_11976" data-name="Group 11976" transform="translate(1.802 0)">
            <rect id="Rectangle_5802" data-name="Rectangle 5802" width="6.383" height="1.232" transform="translate(1.188 0) rotate(74.649)" fill="#fff"/>
          </g>
          <g id="Group_11977" data-name="Group 11977" transform="translate(0 1.802)">
            <rect id="Rectangle_5803" data-name="Rectangle 5803" width="6.383" height="1.232" transform="translate(6.481 1.188) rotate(164.649)" fill="#fff"/>
          </g>
        </g>
        <g id="Group_11980" data-name="Group 11980" transform="translate(6.866 26.522)">
          <g id="Group_11979" data-name="Group 11979" transform="translate(0 0)">
            <rect id="Rectangle_5804" data-name="Rectangle 5804" width="6.383" height="1.232" transform="translate(6.481 1.188) rotate(164.649)" fill="#fff"/>
          </g>
        </g>
      </g>
    </g>
  </g>
</svg>
