<svg xmlns="http://www.w3.org/2000/svg" width="58.012" height="54.036" viewBox="0 0 58.012 54.036">
  <g id="Group_15241" data-name="Group 15241" transform="translate(-1242.656 -518.584)">
    <g id="Group_12152" data-name="Group 12152" transform="translate(1292.073 564.025)">
      <g id="Group_12148" data-name="Group 12148" transform="translate(4.986)">
        <path id="Path_58306" data-name="Path 58306" d="M1508.629,1519.419a1.124,1.124,0,0,1-.8-1.909l1.29-1.32a1.123,1.123,0,0,1,1.606,1.571l-1.29,1.32A1.119,1.119,0,0,1,1508.629,1519.419Z" transform="translate(-1507.505 -1515.852)" fill="#0d3643"/>
      </g>
      <g id="Group_12149" data-name="Group 12149" transform="translate(0 0.072)">
        <path id="Path_58307" data-name="Path 58307" d="M1482.056,1519.791a1.12,1.12,0,0,1-.786-.32l-1.32-1.29a1.123,1.123,0,0,1,1.57-1.607l1.32,1.29a1.123,1.123,0,0,1-.785,1.927Z" transform="translate(-1479.613 -1516.254)" fill="#0d3643"/>
      </g>
      <g id="Group_12150" data-name="Group 12150" transform="translate(0.072 5.028)">
        <path id="Path_58308" data-name="Path 58308" d="M1481.139,1547.545a1.123,1.123,0,0,1-.8-1.909l1.29-1.32a1.123,1.123,0,0,1,1.607,1.571l-1.29,1.32A1.12,1.12,0,0,1,1481.139,1547.545Z" transform="translate(-1480.015 -1543.978)" fill="#0d3643"/>
      </g>
      <g id="Group_12151" data-name="Group 12151" transform="translate(5.028 4.986)">
        <path id="Path_58309" data-name="Path 58309" d="M1510.183,1547.281a1.121,1.121,0,0,1-.785-.32l-1.32-1.29a1.123,1.123,0,0,1,1.571-1.607l1.32,1.29a1.124,1.124,0,0,1-.785,1.927Z" transform="translate(-1507.74 -1543.744)" fill="#0d3643"/>
      </g>
    </g>
    <g id="Group_12048" data-name="Group 12048" transform="translate(1260.33 518.584)">
      <g id="Group_12044" data-name="Group 12044" transform="translate(10.288 10.537)">
        <g id="Group_12043" data-name="Group 12043" transform="translate(0 0)">
          <rect id="Rectangle_5816" data-name="Rectangle 5816" width="9.393" height="1.963" transform="matrix(0.9, -0.435, 0.435, 0.9, 0, 4.085)" fill="#415763"/>
        </g>
      </g>
      <g id="Group_12046" data-name="Group 12046" transform="translate(0 10.602)">
        <g id="Group_12045" data-name="Group 12045">
          <path id="Path_58240" data-name="Path 58240" d="M835.138,1373.587l-2.748-4.891c5.675-3.188,7.05-4.9,7.373-5.459a6.5,6.5,0,0,0-1.475-.934c-1.134-.572-2.578-1.122-4.109-1.705-4.293-1.637-9.159-3.492-10.824-7.317a11.385,11.385,0,0,1-.14-9.331c3.06-7.176,12.89-10.878,13.307-11.032l1.949,5.26c-2.218.828-8.356,3.875-10.1,7.982a5.9,5.9,0,0,0,.127,4.881c.724,1.663,4.744,3.2,7.679,4.314a39.574,39.574,0,0,1,5.5,2.4c.878.506,3.551,2.046,3.77,5C845.7,1366.194,842.713,1369.331,835.138,1373.587Z" transform="translate(-822.283 -1332.918)" fill="#f8d56b"/>
        </g>
      </g>
      <g id="Group_12047" data-name="Group 12047" transform="translate(13.683)">
        <path id="Path_58241" data-name="Path 58241" d="M928.7,1263.172l-3.458-3.232s5.629,2.118,5.608,1.951-1.788-4.177-1.788-4.177l3,3.525s3.742-8.267,3.659-8.1-.433,8.345-.433,8.345l7.593-4.791-4.623,7.729,4.064,3.272-3.241-.305.227,7-5.974-6.257-.565,7.967-1.268-9.531,1.127,3.406.578-2.949,5.352,5.2-.586-5.754,2.488.455-3.058-2.146,3.5-5.883-6.45,3.894.526-6.785-2.555,6.3-1.615-2,1.031,2.652-4.959-2Z" transform="translate(-925.247 -1253.138)" fill="#f8d56b"/>
      </g>
    </g>
    <g id="Group_15240" data-name="Group 15240" transform="translate(1242.656 528.635)">
      <path id="Path_58204" data-name="Path 58204" d="M1552.552,194.009l-4.895.007,3.476-6.317h-3.816l-3.524,8.726h4.888l-3.81,6.857Z" transform="translate(-1543.794 -187.699)" fill="#001319"/>
    </g>
  </g>
</svg>
