<svg xmlns="http://www.w3.org/2000/svg" width="38.511" height="39.176" viewBox="0 0 38.511 39.176">
  <g id="Group_15244" data-name="Group 15244" transform="translate(-1165.654 -139.807)">
    <g id="Group_11938" data-name="Group 11938" transform="translate(1165.654 161.719)">
      <path id="Path_58205" data-name="Path 58205" d="M2078.415,963.257l-5.423.008,3.851-7h-4.227l-3.9,9.667h5.416l-4.221,7.6Z" transform="translate(-2068.713 -956.266)" fill="#0d3643"/>
    </g>
    <g id="Group_12065" data-name="Group 12065" transform="translate(1170.505 139.807)">
      <g id="Group_12050" data-name="Group 12050" transform="translate(11.447 1.599)">
        <g id="Group_12049" data-name="Group 12049">
          <path id="Path_58242" data-name="Path 58242" d="M1232.514,1386.069a.5.5,0,0,1-.5-.5l-.063-35.255a.5.5,0,0,1,.42-.5l8.072-1.32a.5.5,0,0,1,.556.336l11.171,33.438a.5.5,0,0,1-.394.653l-19.18,3.137A.5.5,0,0,1,1232.514,1386.069Zm.439-35.33.061,34.24,18.019-2.947-10.849-32.476Z" transform="translate(-1231.95 -1348.492)" fill="#63b3db"/>
        </g>
      </g>
      <g id="Group_12052" data-name="Group 12052" transform="translate(0 0)">
        <g id="Group_12051" data-name="Group 12051">
          <path id="Path_58243" data-name="Path 58243" d="M1127.851,1344.988a.5.5,0,0,1-.48-.645l1.672-5.585a.5.5,0,0,1,.4-.351l27.622-4.517a.5.5,0,0,1,.49.205l3.364,4.761a.5.5,0,0,1-.328.784l-32.658,5.341A.5.5,0,0,1,1127.851,1344.988Zm2.062-5.642-1.352,4.517,31.077-5.082-2.721-3.851Z" transform="translate(-1127.35 -1333.885)" fill="#63b3db"/>
        </g>
      </g>
      <g id="Group_12054" data-name="Group 12054" transform="translate(11.472 14.882)">
        <g id="Group_12053" data-name="Group 12053">
          <path id="Path_58244" data-name="Path 58244" d="M1232.7,1483.7a.5.5,0,0,1-.359-.85l6.485-6.676-6.377-3.32a.5.5,0,0,1,.151-.939l12.484-2.042a.5.5,0,0,1,.44.843l-5.042,5.19,8.2,4.271a.5.5,0,1,1-.463.889l-8.47-4.41-6.694,6.891A.5.5,0,0,1,1232.7,1483.7Zm1.548-11.038,5.307,2.763,4.194-4.317Z" transform="translate(-1232.178 -1469.866)" fill="#63b3db"/>
        </g>
      </g>
      <g id="Group_12056" data-name="Group 12056" transform="translate(11.491 25.115)">
        <g id="Group_12055" data-name="Group 12055">
          <path id="Path_58245" data-name="Path 58245" d="M1232.873,1577.433a.5.5,0,0,1-.319-.888l8.013-6.6-7.892-3.011a.5.5,0,0,1,.1-.962l15.884-2.6a.5.5,0,0,1,.4.881l-6.522,5.368,9.7,3.7a.5.5,0,1,1-.357.936l-10.23-3.9-8.453,6.958A.5.5,0,0,1,1232.873,1577.433Zm1.9-10.768,6.688,2.552,5.527-4.549Z" transform="translate(-1232.353 -1563.372)" fill="#63b3db"/>
        </g>
      </g>
      <g id="Group_12058" data-name="Group 12058" transform="translate(11.457 1.599)">
        <g id="Group_12057" data-name="Group 12057">
          <path id="Path_58246" data-name="Path 58246" d="M1245.037,1362.777a.5.5,0,0,1-.235-.059l-12.5-6.653a.5.5,0,0,1-.083-.829l8.062-6.63a.5.5,0,0,1,.435-.1l13.139,3.162a.5.5,0,0,1-.234.974l-12.9-3.1-7.29,5.995,11.838,6.3a.5.5,0,0,1-.236.943Z" transform="translate(-1232.036 -1348.492)" fill="#63b3db"/>
        </g>
      </g>
      <g id="Group_12060" data-name="Group 12060" transform="translate(0 2.919)">
        <g id="Group_12059" data-name="Group 12059">
          <path id="Path_58247" data-name="Path 58247" d="M1139.323,1375.561a.5.5,0,0,1-.364-.845l9.214-9.743-8.82-3.36-11.236,7.051a.5.5,0,0,1-.533-.849l11.447-7.183a.5.5,0,0,1,.445-.044l9.754,3.716a.5.5,0,0,1,.186.812l-9.729,10.289A.5.5,0,0,1,1139.323,1375.561Z" transform="translate(-1127.35 -1360.554)" fill="#63b3db"/>
        </g>
      </g>
      <g id="Group_12062" data-name="Group 12062" transform="translate(1.672 4.517)">
        <g id="Group_12061" data-name="Group 12061">
          <path id="Path_58248" data-name="Path 58248" d="M1152.912,1379.874a.5.5,0,0,1-.177-.032l-9.785-3.711a.5.5,0,0,1,.355-.937l9.785,3.711a.5.5,0,0,1-.178.969Z" transform="translate(-1142.626 -1375.16)" fill="#63b3db"/>
        </g>
      </g>
      <g id="Group_12064" data-name="Group 12064" transform="translate(21.201)">
        <g id="Group_12063" data-name="Group 12063">
          <path id="Path_58249" data-name="Path 58249" d="M1321.583,1341.521a.5.5,0,0,1-.318-.888l8.092-6.635a.5.5,0,0,1,.635.775l-8.093,6.635A.5.5,0,0,1,1321.583,1341.521Z" transform="translate(-1321.082 -1333.884)" fill="#63b3db"/>
        </g>
      </g>
    </g>
  </g>
</svg>
